<?xml version='1.0' encoding='utf-8'?>
<svg xmlns="http://www.w3.org/2000/svg" enable-background="new 0 0 2000 2000" version="1.1" viewBox="0 0 2e3 2e3"> <style type="text/css">.st0{fill:#FFF0DC;} .st1{fill:#040302;} .st2{fill:#FFFFFF;} .st3{fill:#915523;} .st4{fill:url(#a);} .st5{fill:#FAD297;} .st6{fill:#A0652E;} .st7{fill:#DA9858;} .st8{fill:#B97D42;} .st9{fill:#7A4318;}</style> <rect class="st0" width="2e3" height="2e3"/> <path class="st1" d="m1420.7 302.1c-4.1-12.4-11.3-26.5-23.6-32.5-5.4-2.6-13.3-2.9-19-0.7-8.5 3.2-15.2 10.9-18.6 19.1-5.7 13.7-7.6 29.8-9.9 44.4-1 6.1-1.6 13.1-3.9 18.9-0.9 2.3-1.9 3.4-3.9 4.8-2.6 0.3-4.1 0.9-6.4-0.9-2.7-2.2-5.2-6.9-7-9.9-6.1-10-14-24.4-27.6-24.6-4.7-0.1-8.1 1.5-11.3 5-9.3 10.2-10.2 41.4-10.2 41.4-0.2 5.3-1.8 48.5-15.2 65.2-1.5 1.9-5.8 7.3-10.5 6.6-2.9-0.4-4.8-3.1-5.8-4.6-11-16.2-11.5-26.8-20.8-33-1.3-0.9-6.2-4.1-12.7-3.9-0.7 0-3.1 0.7-6.2 1.2-4.6 0.8-9 5.3-11.4 9.1-7.1 11.4-4.5 26.4-4.2 39.2 0.2 9 0.2 18.2-0.8 27.1-2.5 20.5-8.6 39.6-25.2 53-16.8 13.5-44.3 22-65.6 25.8-0.2-13.6-0.1-30.9-10.8-40.9-3.6-3.4-7.9-4.2-12.7-3.9-5.7 0.4-10.5 4.7-13.9 8.9-6.7 8.4-10.6 21.2-11.5 31.8-25.3-3.6-53.1-0.5-76.3 10.8-3.3-13.8-10.5-31.1-23.4-38.5-4.4-2.5-9.5-4-14.5-2.5-8.3 2.4-12.6 10-14 12.7-3.5 6.6-3.5 12.9-3.5 18.9 0 5.1 0.7 9.3 1.3 12.3-32.4-3-67.9-12-89.6-37.8-16.1-19.1-21.7-44.2-23.2-68.6-0.8-12.4-0.6-24.7-3-36.9-1.5-7.4-5.4-16.1-11.9-20.4-2.3-1.5-8-4-10.7-3.3-9.4 2.3-15.6 8-20.6 16-6.1 9.7-8.4 21.9-20 26.5-3.9-0.4-6.4-1.9-8.9-5.1-7.7-9.8-11.5-27.4-12.9-39.5-2.4-20.5 1.7-54.9-15-69.8-2.7-2.4-6.5-4.6-10.1-5.1-8.8-1.2-16.2 5.1-17.8 6.5-14.1 12.1-11.1 31.7-21.3 33.8-0.8 0.2-1.8 0.4-3 0-6.5-2-5.4-16.7-7.9-36.1-4.2-33-14.4-44.6-18.6-48.7-3.6-3.4-7.2-5.9-11.5-6.1-6.8-0.3-13.1 3.7-17.8 8.4-19.7 19.8-25.3 55.4-24.8 82.3 1.2 64.1 28.1 124.1 74.6 168.1 52.9 50.1 119.8 68.2 190.7 74.4 17.5 1.5 34.6 2.9 51.9 5.9 7.6 1.3 15.9 2.6 23.1 5.3l-4.6 5c-15.4-4.8-32.6-9.2-48.8-10.3-25.7-1.8-52 4.1-74.8 16-13 6.8-25.3 15-35.7 25.4-4.5 4.5-9 9.6-10.7 15.8-1.8 6.6 1.7 16.3 5.2 21.9 10.7 17.4 31.3 27 50.5 31.4 36.9 8.3 71.1 3.6 103.7-15.5-0.7 18.1-1.3 36.6 0 54.7 4.1 58.6 24.5 115.1 52.4 166.4 5.5 10.2 11.2 19.9 17.6 29.5l6.9 10.3c0.6 0.9 2.2 2.7 2.4 3.6 0.1 0.6-2.4 5.7-2.7 6.5-9.2 20.7-22.4 41.7-39.1 57.1-23.4 21.6-53.5 26.9-84.4 25.2-33.2-1.8-63.5-18.1-97.5-12.4-19.9 3.4-37 16.5-37 16.5-4.2 2.5-7.7 4.8-10.1 6.5-4.5 0.2-11.1 0.9-18.5 3.3-27.7 9.1-53.7 37.9-56.6 68.4-1.5 16.1 0.8 29.9-2.7 49-0.8 4.6-2.4 9.5-5.2 15.4-3.1 6.5-10.3 19.6-6.8 22.6 0.7 0.6 2.1 1.1 5.9-0.2 14.4-5.2 32.8-27.4 38.6-34.6-0.1 12.2 1.1 29.1 6.8 48.1 4.2 14.1 9.7 25.6 14.7 34.4-1.3 31.7-2.3 58.5-3 78.7-5.2 143.6-5.7 198.4-2.8 261.1 0.4 8.7 0.8 15.9 1.1 20.4-3.7 6-6.4 11.6-8.5 16.5-1 2.4-5.9 16.5-8.5 35.2-1.3 9 0.3 17.5 5.8 25 10.2 14 29 19.6 45.3 21.7 20.1 2.6 46.2 1.8 62.8-11.5 1.4-1.1 4.4-3.5 6.8-7.6 1.6-2.6 4.7-9 3.3-22.1-0.3-2.8-1.7-14.1-10.9-31.4-3.8-7.2-9.8-16.9-18.8-27.2l-0.9-0.9-5.5-312.9c12.6 4.2 25.2 8.4 37.9 12.6 1.3 91.6 2.6 183.1 3.9 274.7-1.7 2.4-3.8 5.9-5.9 10.3-2.9 6.2-7.6 21.8-6.3 41.6 0.6 9.6 4.1 18.6 11.4 25l1 0.9c26.4 13.5 60.7 12 88.5 2.9 9.9-3.2 17.2-7 23.1-15.8 2.4-21.2-10.5-41.7-23.2-57.7-4.3-5.4-8.5-9.7-8.5-9.7-2-1.7-3.7-2.9-4.9-3.8-3.6-84.8-7.1-169.6-10.7-254.4 15 1.9 30.9 3.6 47.6 4.8 18.6 1.3 36.3 2 53 2.1 0.2 93.1 0.4 186.2 0.7 279.3-1 2.7-2.7 7-4.6 12.2-15.6 42.7-14 53.4-12 62.4 0.8 3.4 2.8 6.6 5 9.2 11.8 13.8 35 17.4 52.2 18.4 17.5 1 47.1-0.2 61.2-12.3 4-3.4 6.3-8.1 6.5-13.3 0.3-8.2-2.8-15.5-3.2-23.4 3.2 4 6.5 8.5 10.6 11.7 8.5 6.7 22.7 8.6 33.2 9.7 8.4 0.9 18 0.8 26.4-0.3 12.7-1.7 33.1-4.1 41.3-15.3 4.3-5.9 4.1-12.1 2.8-19-6.1-31.9-21.6-51.8-21.6-51.8-3.6-5.1-6.9-9.1-9.4-12-6.8-68.7-11.6-141.5-13.5-218-0.9-37.3-1.1-73.7-0.7-109.1 0.3-10.5 0.6-21 0.8-31.6 1.5-3.6 2.9-7.2 4.3-11 9.7-26.7 13.3-52.2 14-74.6 35.2 9.3 72.8 11.2 108.5 3.2 13.4-3 26.3-6.9 38.3-13.8 12.8-7.4 25.5-18.3 29.6-33.1 2.4-8.7 1.3-18.6-0.4-27.3 5.7-5 11.7-9.9 16.6-15.7 16.4-19.4 24.7-45.4 26.2-70.5 2.2-36.4-7-74.4-31.7-102-11.2-12.6-25.5-23.1-41.4-28.8-6.2-2.2-10.4-7.2-15.3-11.4-22.3-19.1-43.7-41.8-61.6-65-3.8-4.9-8.5-10.1-11.2-15.6 11.4-38.2 10.7-77.1-8.1-112.8 33-9.5 60.6-30.3 77.3-60.4 6.6-11.9 15.4-27.4 11.3-41.4-1.1-3.6-2.8-6.4-6.2-8.1-2.7-1.3-6.8-1.7-9.6-0.8l-0.7 0.3v-0.5l1.2-0.3c6.9-2.1 14.1-6.5 20.5-9.8 45.2-23.1 88.6-62.1 111.7-107.7 6.2-12.2 10.4-25 14.1-38.2 8.7-32.3 12.4-67.8 1.7-100.1zm-357.7 1323.3c-2.4 8.4-3.4 15-4 19.2-1.2 7.8-1.9 15.8-2 23.8-2.5-5.7-5.7-12-9.6-18.6-3.4-5.8-7-10.9-10.3-15.3-2.9-63.1-5.8-126.3-8.8-189.4l-5.1-100c15.2-3.7 29-9 42.2-17.5-0.5 72.4 0.3 146.4 2.7 221.8 0.6 19 1.3 37.8 2 56.6-2.3 5-4.9 11.5-7.1 19.4z"/> <path class="st2" d="m1103.7 566.1c-0.8-0.3-1.7-0.8-2.6-1.4-1.6-1.1-2.7-2.4-3.4-3.4 59.7-11.4 81.5-33.7 90.3-52 18.1-37.4-1-93.4 20.7-103.2 1.1-0.5 3.9-1.8 7.6-1.5 18.2 1.6 21 40 36.3 41.5 9.9 0.9 19.3-14.1 22-18.5 4.1-6.6 5.6-12.7 8-22.1 2.4-9.6 3.1-17.3 3.6-23.3 1.6-17.7-0.6-19.4 1.7-30.3 1.1-5.4 4.5-22.3 12.7-23.7 0.9-0.1 3.4-0.4 9.1 4 16.5 12.4 16.9 30.4 29.9 33.2 1.4 0.3 2.1 0.5 3.1 0.3 18.9-2.3 11.9-82.2 37.3-89.9 3.5-1.1 9.6-1.3 19.3 5.3-2.1-0.6-5.3-1.1-8.9-0.2 0 0-5.9 1.4-10.8 7.5-12.6 15.8-1.4 64.4-23.3 82.3-1.9 1.6-6.8 5.6-13.4 5.6-20.5 0.1-31.5-38.1-40.3-35.9-5.5 1.4-3.7 17.4-7.1 43.9-3.5 27.9-7.6 60.7-28.1 70.3-1.1 0.5-10.2 4.6-20.3 1.7-22.9-6.5-27.9-42.1-33.4-41-5.2 1.1 3.4 32.4-6.4 68.8-3.1 11.4-10.3 37.2-33.2 57.1-26.6 23.4-58.9 24.9-70.4 24.9z"/> <path class="st3" d="m1399.3 281.1c2.9 5.3 6.5 13 9.6 22.5 21.7 67-12 141.5-51.5 185.6-10.3 11.6-43.7 48-95.3 63.4-17.2 5.1-31.8 6.5-69.4 16.7-25.5 6.9-46.2 13.7-59.9 18.4-4.1-3.7-8.8-7.6-14.1-11.5-4.8-3.6-9.8-7.1-15.1-10.2 9.7-1.4 23.5-4.2 39.1-10.6 8.4-3.5 18.4-7.6 28.5-15.7 18-14.4 25.5-32.7 27.5-37.8 16.4-41.4-3.2-81.4 11.4-88 2-0.9 3.8-0.8 4.6-0.7 14.9 1.1 16.2 34.6 36.4 40.5 2 0.6 4.5 1.3 7.7 0.8 18-3 30.2-41 32.3-71.3 1.4-20.5-1.5-41.9 9.3-46.9 0.7-0.3 1.3-0.6 2.2-0.7 13.4-2 22.6 38 40 37.8 2.6 0 4.4-0.9 5.6-1.5 22.2-10.5 11.6-65.2 29-82.7 2.2-2.2 8.5-8.6 17.2-8.7 2.2 0 3.9 0.3 4.9 0.6z"/> <linearGradient id="a" x1="1354.9" x2="1341.9" y1="502.86" y2="520.44" gradientTransform="matrix(1 0 0 -1 0 978)" gradientUnits="userSpaceOnUse"> <stop stop-color="#090000" offset="0"/> <stop stop-color="#220001" offset="1"/> </linearGradient> <path class="st4" d="m1395.8 310c1.5 18.1 1.9 46.2-6.5 78.8-5 19.3-19.4 72.3-68.7 114-27.5 23.2-56.3 34.9-78.1 41.1 22.5-9.8 56.2-28.1 86.8-61.7 61.2-67.2 66-147.5 66.5-172.2z"/> <path class="st2" d="m746.2 445.1c9-4.8 12.3-10.2 16.9-19 3.8-7.4 10.2-20.7 18.9-22.9 2.6-0.7 5.3 0.2 7.4 1.7 8.6 6.5 9.2 16 10.3 25.8-0.1-1-0.5-8.1-5.9-11.3-0.4-0.3-3.3-2-7-1.6-9.2 1.1-10.2 14.2-21.1 21.9-3.5 2.4-9.4 5.4-19.5 5.4z"/> <path class="st2" d="m645.3 513.1c-25-27.2-38.6-53.6-46.1-71.1-23.1-54.1-18.5-97.4-17.3-106.9 4.5-36.6 18.6-56.5 26.9-58.8 4-1.1 7.5-0.3 7.5-0.3 6.9 1.6 10.7 8.4 12.3 11.3 11 20.1 7.7 59.1 16.2 74 1 1.7 3.4 6 7.8 6.9 3.4 0.7 6.3-1.1 7.5-1.8 5.2-3.1 6.4-7.9 10.2-16.3 5.5-12.2 8.8-19.3 15.8-22.3 1-0.4 5-2.2 9-1.3 9 2 15.7 16.3 15.5 35.3-0.3-1.7-2.7-15.5-11.8-18.2-0.7-0.2-3.2-0.9-6.6 0-14.9 3.9-13.8 29.3-29 35.9-5.8 2.5-12.8 1.8-17.7-0.4-26.8-12.3-13.7-82.5-31.9-86.3-1.7-0.4-3.1 0-3.7 0.2-19 5.3-16.8 76.1-6.9 122.2 5.1 24.1 16.2 59.1 42.3 97.9z"/> <path class="st3" d="m643.3 510.7c-3.7-5.9-8.9-14.5-14.6-25.2-6.9-12.8-23.2-43.2-31.2-74.2-13.7-52.9-6-118.2 13.4-122.8 3-0.7 5.6 0.2 6.5 0.5 20.4 7.7 2.4 66.5 28.5 83.8 2.1 1.4 9.4 6.2 15.9 3.8 10.9-3.9 8.6-23.8 24.6-34.5 3.7-2.5 6.5-3.2 9.1-3 8.7 0.7 13.6 11.6 14.2 13.2 3.8 24.9-1 94.9 36.5 92.8 10.6-1.1 16.9-4.8 20.7-8 10-8.3 11.6-20.1 19.4-20.5 3.5-0.2 6.6 2.1 7.5 2.8 5.2 3.9 5.8 10.2 5.9 11.3 0.8 33 3.2 68.3 23.4 95.8 22.6 31.1 64.3 41.6 100.9 43.1 1.8 6.7 5.5 13.2 9.3 18.9l-15.3 15.1c-91.6-12-210.4-16.8-274.7-92.9z"/> <path class="st2" d="m823 526.5c7.2 8.4 14.1 14.2 18.9 17.8 23 17.1 47 21.3 60 23.4 9.2 1.5 16.9 1.9 21.9 2 0.8 2.3 1.6 4.7 2.4 7-14.2 0.5-37.9-0.7-62.4-12-10.6-4.9-25.4-12-35.7-28.1-2.4-4-4-7.6-5.1-10.1z"/> <path class="st1" d="m605.1 354.4c1.2 17.8 8 91.6 59.3 147.7 30.3 33.1 67.6 50.7 70.7 52.2 19.4 8.9 37.9 13.2 37.4 13.1-105.4-19.4-166.5-109-167.4-213z"/> <path class="st5" d="m636.7 1165.2c-0.3-3.7-4-55.6 33.1-81.6 12.2-8.6 24.9-11.6 34.1-12.7-7.4 2.5-18.7 7.2-30.2 16.4-15.5 12.4-23.7 26.7-27.6 35.1-8.5 17.9-9.5 34.1-9.4 42.8z"/> <path class="st6" d="m645.4 1121.3c9.1-18.9 22.5-29.5 28.2-34 6.2-4.8 16.2-11.5 30.2-16.4-9.7 9.7-26.3 29-36 58.3-7 21.2-7.7 39.9-7.2 52.2-4.3 4.8-10.4 11.4-18 19.2-13.9 14.4-17.2 16.8-18 16.2-0.5-0.4 0.1-2 4.7-12.6 2.7-6.2 4-9.3 4.6-10.6 6.1-13.5 0.5-27.9 3.7-48 0.4-2.3 2.1-12.5 7.8-24.3z"/> <path class="st7" d="m669.1 1170.9c-1.5-60.7 48.3-132.7 115.2-120.2 91.7 26.2 160.4 17.7 198.1-79.9 3.4 4 7.2 8.2 11.6 12.5 6.9 6.9 13.8 12.5 20.1 17.2 4.6 16 12.2 38.5 25.2 63.9 6.2 12.2 13.5 26.5 24.4 40.3 10.6 13.5 33.7 38.2 77.8 54.8-0.6 16.7-5.4 106.3-74 155.1-15.4 10.9-31.2 17.9-45.7 22.3-0.5-7.4-1.2-16.5-2.4-27.1-1.2-10.4-3.4-29.9-4.3-29.9-2.7 0.2 3.1 147.1 10.8 284.1 1.5 27.8 2.9 50.7 3.9 66.2-10.9 13.5-35.3 13.3-51.3 11.1-5-60.7-6.4-110.3-6.7-145.2 0 0-0.8-91.4-7.8-183.2-0.3-3.7-1.8-23.4-2.9-23.3-0.7 0-0.9 7.3-1.6 27.2-0.4 11.2-0.8 20.4-1.1 26.4-70.7-0.9-143.7-6.9-209.5-34.5 0.7-6.5 1.1-15.4-0.6-25.6-1.6-9.2-4.6-19.2-5.8-18.9-1.2 0.2-0.2 11.1 0.1 15 1.7 20.7-0.7 27 2.8 287 0.2 14.3 0.5 36.6 0.9 64.2-13.1 11-36.2 11.9-52 7-3.6-112.4 6.2-247.4 1.6-359.2-2.5-10.4-11.5-17.7-15.1-28.2-9.9-24.9-12.6-52.8-11.7-79.1z"/> <path class="st5" d="m669.1 1170.9c-1.5-60.7 48.3-132.7 115.2-120.2 91.7 26.2 160.4 17.7 198.1-79.9l5.8 6.8c-15.7 50.4-61.9 96.4-117 97-28.5 0.9-56-5.6-83.9-9.8-72.4-7.8-107.4 51.1-117.6 114.5l-0.6-8.4z"/> <ellipse class="st6" transform="matrix(.9119 -.4104 .4104 .9119 -375.07 432.72)" cx="820.5" cy="1090.1" rx="14.9" ry="6.7"/> <ellipse class="st6" transform="matrix(.8437 -.5368 .5368 .8437 -447.67 642.59)" cx="879.7" cy="1090.1" rx="28.9" ry="13"/> <ellipse class="st6" transform="matrix(.4585 -.8887 .8887 .4585 -423.54 1421.9)" cx="955" cy="1058.5" rx="36.1" ry="16.3"/> <path class="st8" d="m1081.7 1314.8c6.5-5.7 13.7-12.9 20.9-21.7 9.3-11.4 16-22.5 20.8-31.8 0 7.7 0.1 19.9 0.3 34.9 0.9 85.4 1.5 141.5 5.4 205.2 1.5 24.8 4.2 60.9 9.1 104.9-1.6 1.3-3.4 2.6-5.3 3.8-13.3 8.1-27.6 7.6-35.7 6.5-3.2-0.9-6.5-1.8-9.7-2.7-1-11.6-2.1-25.4-3-40.8-3-48.9-3.2-86.2-2.8-216.9-0.1-8.8 0-32.7 0-41.4z"/> <path class="st7" d="m1081.7 1314.8c-1.2 59.6-0.9 122.1 1.6 187.1 1.5 38.6 3.6 76.2 6.2 112.8-3.9-1.9-7.8-3.7-11.6-5.6-1.5-39-2.8-78.5-3.7-118.5-1.3-56.9-2-112.8-2.1-167.7l9.6-8.1z"/> <path class="st8" d="m1073.3 1686.2c-16.9-16.4-3.9-52 1.6-72 1.5-0.1 5.8 4 7.3 5.1-9.9 20.5-8.4 45-8.9 66.9z"/> <path class="st9" d="m1082.1 1619.4c18.5 7.8 41.2 7 57.2-6.1 9 12 15.1 22.8 19.2 30.7 9.1 17.9 14.7 29.4 9.8 38.2-3.1 5.6-9.2 8-17.3 11.1-10.3 3.9-19.5 4.4-25.2 4.2 3.2-20.6 0.9-44.2-13.4-60.6 8.4 18.6 14.2 41.1 7.7 61.1-13-0.3-37.5-0.8-46.7-11.7 0.4-22-1.1-46.5 8.7-66.9z"/> <path class="st1" d="m1107.4 1437.4c-2.5 0-5.1-1.2-7.3-3.5-3.4-3.4-5.3-8.5-5.2-13.9 0-1.3 1.1-2.4 2.4-2.4h0.1c1.3 0 2.4 1.1 2.4 2.5-0.1 5.8 2.6 9.2 3.8 10.4 1.3 1.3 2.7 2.1 3.9 2.1h0.1c1.2 0 2.8-1 4.1-2.5 1.1-1.3 3.7-5.1 3-11-0.2-1.3 0.8-2.5 2.1-2.7s2.5 0.8 2.7 2.1c0.7 5.6-0.8 11-4.1 14.8-2.2 2.6-5 4.1-7.6 4.1h-0.4z"/> <path class="st5" d="m963.7 1294.6c4.1 4.6 4.9 14.5 5.8 20.6l3.8 32.8 1.8 85.9 1.1 127.8 1.6 55.6c0.3 6.8 2.1 16.1 1 22.7l-0.4 1.2c-4.7-1.1-9.1-1.8-12.8-5l-1.9-341.6z"/> <path class="st7" d="m956.3 1714c-3-2.3-5.8-5.3-7.6-8.6-6-10.9 7.4-52.7 11.4-65.2 3.2 2 6.7 3.5 10.1 5.1-0.9 1.9-2.3 5.2-3.8 9.4-2.9 8-4.7 16.1-7.9 40.9-0.6 4.5-1.4 10.8-2.2 18.4z"/> <path class="st6" d="m970.2 1645.4c21.1 6.8 39.1 5.3 59-4.6 11.4 11.8 17.7 23.2 21.1 30.8 5.4 11.8 13.7 30 5.9 40.7-3.2 4.4-7.8 5.9-16.6 8.9-10.8 3.6-20.3 4.2-26.5 4.1 3.3-24.4-1.5-51.7-16.6-71.5 8.2 21.6 16.1 47.7 11.2 70.9-16.6 0.2-37-1-51.3-10.6 0.5-23.3 4.7-47.2 13.8-68.7z"/> <path class="st1" d="m996.2 1457.8c-2.5 0-5.1-1.2-7.3-3.5-3.4-3.4-5.3-8.5-5.2-13.9 0-1.3 1.1-2.4 2.5-2.4 1.3 0 2.4 1.1 2.4 2.5-0.1 5.8 2.6 9.2 3.8 10.4 1.3 1.3 2.7 2.1 3.9 2.1h0.1c1.2 0 2.8-1 4.1-2.4 1.1-1.3 3.7-5.1 3-11-0.2-1.3 0.8-2.5 2.1-2.7s2.5 0.8 2.7 2.1c0.7 5.6-0.8 11-4.1 14.8-2.2 2.6-5 4.1-7.6 4.1-0.3-0.1-0.3-0.1-0.4-0.1z"/> <path class="st8" d="m806.7 1609c-1.4-0.3-3.3-1-5.4-2.3-1.5-1-2.6-2-3.4-2.9-1.4-90.4-2.7-180.9-4.1-271.3 2.7 0.6 5.3 1.2 8 1.8l4.9 274.7z"/> <path class="st8" d="m793.8 1674.6c-0.9-0.9-2.3-2.5-3.7-4.7-9.6-15-3.8-34.6-1.5-42.4 1.1-3.6 2.9-8.7 6-14.6 2.2 0.7 4.4 1.4 6.5 2.1-6.6 18.8-7.7 39.7-7.3 59.6z"/> <path class="st9" d="m801.1 1614.9c20.6 5.1 44.8 4.4 61.8-9.9 11.7 10.3 18.7 20.7 22.7 27.9 6.5 11.5 13.1 23.2 8.5 32.8-2.9 5.9-8.9 8.7-16.1 12-9.7 4.5-18.5 5.4-23.9 5.6-1.5-19.1-3.5-42.6-18-56.5 6.7 19.6 13.9 36.2 12.2 57.4-18.2 0.5-39.4 2.3-54.6-9.6-0.3-19.9 0.8-40.8 7.4-59.7z"/> <path class="st6" d="m801.7 1334.2 45.5 8.8 3 104 2.9 80.4 3.2 46.7c0.5 6.3 3.1 18.3 1 24.1-0.4 1-1 2-1.8 2.7-4.4 4.3-11.7 6.1-17.5 7.6l-1.5 0.4c-9.3 2.3-20.4 1.8-29.8 0l-5-274.7z"/> <path class="st1" d="m827.8 1449.7c-2.5 0-5.1-1.2-7.3-3.5-3.4-3.4-5.3-8.5-5.2-13.9 0-1.3 1.1-2.3 2.5-2.4 1.3 0 2.4 1.1 2.4 2.5-0.1 5.8 2.6 9.2 3.8 10.4 1.3 1.3 2.7 2.1 3.9 2.1h0.1c1.2 0 2.8-1 4.1-2.4 1.1-1.3 3.7-5.1 3-11-0.2-1.3 0.8-2.5 2.1-2.7s2.5 0.8 2.7 2.1c0.7 5.6-0.8 11-4.1 14.8-2.2 2.6-5 4.1-7.6 4.1-0.3-0.1-0.4-0.1-0.4-0.1z"/> <path class="st5" d="m690.7 1267.4c0.7 0.3 1.8 0.8 2.9 1.6 7.3 5.6 6.2 18.2 6 21.3-0.9 14.1-2.9 153.8-5.7 346.8-3-1.4-6-2.8-9-4.1-1-58.8-1.2-119.3-0.2-181.5 1.1-63.1 3.1-124.5 6-184.1z"/> <path class="st7" d="m673.2 1704.4c-0.8-1.1-1.9-2.7-2.9-4.9-2.5-5.3-3.9-12.6 0.5-30.8 1.8-7.6 4.8-17.6 9.8-29 2 0.3 4.1 2.1 5.9 3.3-3.9 13.4-7.5 27.9-10.4 43.6-1.2 6-2.1 12-2.9 17.8z"/> <path class="st6" d="m686.4 1642.9c20.7 7.4 44.8 6.2 63.6-5.8 35.4 43.6 45.3 88.1-26.7 87.1-0.3-20.7-6.7-41.7-17.9-59.1 4.4 18.8 15.6 38.2 12.7 57.9-17.1-1.6-33.1-5.2-45-18.6 2.2-20.9 6.4-41.7 13.3-61.5z"/> <path class="st1" d="m720.3 1462.9c-2.5 0-5.1-1.2-7.3-3.5-3.4-3.4-5.3-8.5-5.2-13.9 0-1.3 1.1-2.4 2.5-2.4 1.3 0 2.4 1.1 2.4 2.5-0.1 5.8 2.6 9.2 3.8 10.4 1.3 1.3 2.7 2.1 3.9 2.1h0.1c1.2 0 2.8-1 4.1-2.5 1.1-1.3 3.7-5.1 3-11-0.2-1.3 0.8-2.5 2.1-2.7s2.5 0.8 2.7 2.1c0.7 5.6-0.8 11-4.1 14.8-2.2 2.6-5 4.1-7.6 4.1h-0.4z"/> <path class="st5" d="m931.5 532.8c2.1-2.7 5.1-6.1 8.7-6.5 4.8-0.5 8.6 1.9 11.3 3.8 12 8.8 16.4 26.5 17.8 32.4-2.3-5.2-4.6-9.4-6.4-12.4-7.3-11.9-12.9-15.6-15.8-17.2-1.3-0.7-2.3-1.1-3.3-1.3-5.2-1.3-9.9 0.2-12.3 1.2z"/> <path class="st5" d="m1060.8 540.7c2.7-11.8 7.5-20 11.3-22.2 2.6-1.5 5.2-2 5.2-2 2.3-0.4 4.3-0.2 5.5 0.1 4.8 1.2 7.5 6.5 8.8 9.1 6 12.1 3.1 31 2.4 34.7-1.6-20.9-11.3-33.9-19.3-33.6-7.5 0.1-12.9 11.6-13.9 13.9z"/> <path class="st6" d="m1064.2 532.3c0.3-0.5 7.6-12.3 15.5-11 1.5 0.2 4.2 1.1 7.9 6.6 7.5 11.2 7.2 24.6 6.4 32.4-5.3-2.3-11.3-4.6-18-6.7-5.8-1.8-11.3-3.1-16.3-4.2 0-2.2 0.2-5.3 1.1-8.8 0.4-1.4 1.3-4.9 3.4-8.3z"/> <path class="st2" d="m1197.6 800.1 4.6-8.6c21.8 27 43.7 52.9 70.3 75.4l-14.1-3.3c-6.8-5.5-13.7-11.5-20.7-18.1-16.3-15.6-29.5-31.1-40.1-45.4z"/> <path class="st2" d="m1224.1 862.9c13.3 1 91.4 8.2 120.6 64.1 3.3 6.3 6.2 13.7 8.2 22.4-3-5.4-7.1-12.1-12.4-19.2 0 0-9.2-12.3-20.5-22.9-14.4-13.4-48.2-32.9-95.9-44.4z"/> <path class="st6" d="m931.5 532.8c2.4-1 7.1-2.6 12.2-1.1 1 0.3 2.1 0.7 3.3 1.3 3.2 1.7 8.7 5.5 15.8 17.2 1.9 3.1 4.4 7.5 6.7 13.1-5.1 2.7-10.6 5.8-16.4 9.7-5.2 3.5-9.9 7-14 10.4-3.4-5.1-6.3-10.5-8-16.4-3.2-10.8-5.3-23.9 0.4-34.2z"/> <path class="st5" d="m765.1 694.2-0.6-0.3c-2.7-0.9-9.7-3.5-14.2-10.5 0 0-3.6-5.6-3.9-12.6-0.7-17.4 29.7-36.1 48.8-44.7 11.7-5.3 37-16.4 71.1-12.7 28.2 3.1 48.4 14.8 58.2 21.4-20.7-8.1-38.5-10.9-50.7-11.9 0 0-65.9-6.9-110.5 33-3.3 2.9-7.4 6.2-7.6 10.9-0.7 10.1 4.3 19.1 9.4 27.4z"/> <path class="st5" d="m1205.3 599.6c13.1-1.6 24.5-1 33.4 0.1-4 7.2-12.1 19.5-26.5 30.1-12.5 9.2-24.7 13.2-32.4 15.2-2.4-2.1-5-4.2-7.9-6.4-2.2-1.7-4.4-3.2-6.5-4.5-0.9-3.1-2.1-6.6-3.9-10.3-1.5-3.2-3-5.9-4.5-8.3 10.2-5.8 26.8-13.3 48.3-15.9z"/> <path class="st2" d="m920.9 623.3c-0.9-0.5-1.8-1-2.9-1.5-1.4-0.6-2.7-1.1-3.8-1.5 4-4.5 7.9-9 11.9-13.5 28.8-30.4 63.6-51 106.4-52 35-0.8 61.4 13.2 72.5 19.9 17 10.3 28.4 22.3 35.4 30.7-7.6-6.9-19.2-16.2-35-24.2-12.6-6.4-50.5-24.8-96.5-14.8-37.7 8.2-62.3 31.5-75.2 43.6-5.6 5.2-9.9 9.9-12.8 13.3z"/> <path class="st7" d="m1276 566.7c1.2 0.2 3 0.6 4.4 2 3.8 3.9 1.1 12.3-0.9 18.4-3 8.9-6.9 15-7.2 15.5-8.6 13-15.8 24-29.6 35.4-18.4 15-37 21.3-47.8 24.1-0.9-1.6-2-3.3-3.3-5.1-3.1-4.2-6.5-7.4-9.4-9.8 11.7-3 38.2-11.6 54.7-36.2 3.2-4.8 5.7-9.6 7.5-14.2-2.3-0.5-4.6-0.9-6.9-1.3-32.1-4.9-61.2 5.3-82.8 16.9-1.5-2.5-3.3-5.2-5.5-8-2.7-3.4-5.4-6.1-7.8-8.4 3.7-1.6 8.9-3.7 15.1-6.2-0.1 0 74.4-29.9 119.5-23.1z"/> <path class="st2" d="m1127 634.1c28.3-5.9 54 22.6 57.7 26.7 39.2 44.5 27.9 127.4-11.1 152.9-3.8 2.5-11.9 7.6-22.8 7.8-33.8 0.5-67.1-46.9-70.9-91.2-3.2-37.6 13.3-89.2 47.1-96.2z"/> <path class="st1" d="m1117.7 688.7c9.9 0.2 18.1 13.3 18.9 24.6 1 13.1-7.5 29-18.5 29.3-10.2 0.3-19.3-12.8-20.2-24.5-1.1-13.7 8.8-29.6 19.8-29.4z"/> <path class="st2" d="m998.9 652.8c38.9-2.6 73.2 46.6 77.5 89.7 4.5 45.1-22 101.4-61.6 105.2-39.5 3.8-76.8-46.2-80.5-91.7-3.6-45.3 24.9-100.6 64.6-103.2z"/> <path class="st1" d="m1026.7 704.4c10.6-0.3 20.1 13.6 20.6 26 0.6 13-8.4 28.4-19.6 28.5-10.5 0.1-19.1-13.1-20.2-24.5-1.2-13.6 7.9-29.8 19.2-30z"/> <path class="st7" d="m920.4 623.3c8.7-12.4 28.7-36.9 63.2-50.8 60.3-24.4 115 3.5 122.3 7.4 13.2 7 23 14.9 29.5 20.9 9.8 8.3 15.7 18.6 22 29.5-49.6-15.5-80.7 26.3-83.6 71.7-66.1-131.6-189.5-6.6-131 104.5 46.5 85 133.1 44.6 139.2-41.7 16.6 51.1 77.9 91.1 115.5 35.3 7.3 9.9 16 20.5 26.2 31.4 12 12.7 23.8 23.4 34.6 32.1-3.8-1-7.9-1.8-12.2-2.4-12.8-1.9-24.2-1.5-33.5-0.3 15.2 2.4 36.8 7.5 60.5 19 26.1 12.7 63.3 30.7 79.7 69.6 16.5 39.1 6.5 85.9-16.8 117-52 69.6-158.4 45.2-166.6 43.2-43.5-10.7-72.8-35.2-87.5-49.4 8.2 10.7 42.3 52.6 103.7 64.3 70.2 13.4 122.7-22.8 131.8-29.3 1.4 6.2 2.1 14.2-0.7 22.4-14.7 43-116.1 63.1-188.8 29-11.6-5.4-48.5-24.5-72-63.6-10.3-17.2-12.5-29-30.9-79.8-9.9-27.2-18.4-49.1-24-63 4.9 17.9 9.8 35.7 14.7 53.6-73.6-60.5-121.7-207.1-108.5-300.7 1-2.2 7.9-6.4 10-8.5 4.6-4.7 7.5-11.7 10.3-17.5-39.2 44.7-111 57.4-162.6 27.3-2.6-3.2-13.6-17.5-9-31.5 1.9-5.8 5.8-9.5 8.4-11.7 24.8-20.9 66.2-26.8 66.2-26.8 15.5-2.2 43.7-7.1 75.4 3.8 11.4 4 22.9 7.9 34.3 11.9-4.9-7.1-11.7-13.7-19.8-16.9z"/> <path class="st5" d="m911.6 699.7c-0.2 5.7-0.3 13.8-0.2 23.4 0.3 26.8 2.3 51 4.1 64.7 6.3 48.5 25.9 88.1 46.6 130 10 20.2 19.2 36.4 25.7 47.4-5.1-6.8-11.1-14.9-17.3-24.4-0.7-1.1-7.3-11.1-13.8-22.4-5.5-9.6-18.3-31.9-28.9-60.3-20.2-53.9-21.6-101-22.1-123-0.2-11.2 0-20.4 0.3-26.8 1.8-2.9 3.7-5.8 5.6-8.6z"/> <path class="st1" d="m1114.1 981.7c13.1-3.3 28.2 24.1 28.8 25.2 12.3 22.6 9 46.2 7.5 46.4s-2.1-24.8-18.8-47.3c-2.8-3.8-10.2-13.5-15.7-11.9-2.1 0.6-3.3 2.8-4.5 5.4-6.6 14.9-5 28.3-6.4 28.5-1.3 0.2-6.1-11-3.9-24.2 0.4-2.1 3.4-19.7 13-22.1z"/> <path class="st1" d="m1327.7 945.9c1.9-0.2 4.9-0.6 7.8 0.9 15.5 7.9 6.1 53.8 5.4 53.8-0.3 0 1-10.4-2.6-25.6-1.8-7.4-3.8-15.6-8.5-16.6-3.3-0.7-7 2.5-10.2 6.3-18 21.6-18.3 59.2-20.5 59.1-1.7 0-7.4-24.3 2.8-49.5 2.8-6.5 11-26.7 25.8-28.4z"/> <path class="st5" d="m1002.3 942.4c13.2 32.4 33.9 80.5 57.6 125.2 4.7 8.8 11.2 20.7 22.2 34.6 18.6 23.5 39 38.6 53.5 47.7-16.9-7.2-43.1-21-65.6-47.5-4.9-5.8-16.1-19.8-33.9-60.8-10.1-23.5-22.9-56.9-33.8-99.2z"/> <path class="st1" d="m883.9 642.8c16 3.3 28.5 8.8 36.8 13-0.9 1.2-3 3.7-5.9 6.6-40.4 40.1-128.6 32.4-135.5 9.5-0.2-0.5-0.9-3 0.1-6.7 6-23.1 62.3-31.2 104.5-22.4z"/> <path class="st5" d="m786.9 666c7.2-20.3 57.4-25.3 94.6-18.7 14.1 2.5 25.5 6.5 33.5 9.9-9.3 7.4-23.3 16.5-41.9 22.1-37 11-83.8 5.2-86.8-8.4-0.5-1.9 0-3.4 0.6-4.9z"/> <path class="st1" d="m689.6 1286.4"/> </svg>