<?xml version='1.0' encoding='utf-8'?>
<svg xmlns="http://www.w3.org/2000/svg" enable-background="new 0 0 2000 2000" version="1.1" viewBox="0 0 2e3 2e3"> <style type="text/css">.st0{fill:#F9E7CA;} .st1{fill:#FAFBFB;} .st2{fill:#1A1B1A;} .st3{fill:url(#a);} .st4{fill:url(#SVGID_00000023257592365010484670000010489894064534771336_);} .st5{fill:#4D4E48;} .st6{fill:#FB292C;} .st7{fill:#9EA3A3;} .st8{fill:#1F1E1E;}</style> <rect class="st0" width="2e3" height="2e3"/> <path class="st1" d="m759.4 1397.3 11.8 32.3c-1.7 0-3.1 0.2-4.7-0.6-2.9-1.5-5.6-14.6-6.5-17.9-1.3-5.2-1.4-8.5-0.6-13.8z"/> <path class="st1" d="m1254.4 960.4c6.9-3.4 16.8-1.1 24.1 1.3l4.7 1.7c6.7 2.5 16.3 4.7 19.6 11.3l-48.4-14.3z"/> <path class="st1" d="m1402.2 1172.9c5.1 5.2 10.1 9.6 17.8 9.8 2.6 0 6.6-0.9 9-0.4 1.7 0.3 8.2 7.1 9.8 8.6l11 11.9c-7.9-1.3-12.4-7-18.3-11.9-0.6-0.5-3.1-2.9-3.7-3.1-4.1-0.9-8.7 0.4-13.1-0.8l-1-0.3c-2.1-0.6-3.6-1.1-5.3-2.6-4.5-4.1-5.9-5.1-6.2-11.2z"/> <path class="st1" d="m805.1 1503.4 5.4 0.3c10.1 16.9 25.2 32 38 47-1.5 0.2-4 0.6-5.5 0-2.1-0.9-4.6-4.1-6.2-5.7-7.1-7.5-12.7-15.9-18.9-24-4.4-6-9.1-11-12.8-17.6z"/> <path class="st1" d="m661 1234.2-2.7-3.3c1.7-8.2 11.8-17.1 16.9-23.5 5.6-7 10.5-14.5 16.6-21.1 5.9-6.4 12.3-13 19-18.4 1.4-1.1 4.3-3.9 6-4.4 1.1-0.3 3.3-0.1 4.5-0.1-12 13.6-26 25.4-37.7 39.2-2.2 2.6-2.9 5.3-4.7 8-5.5 7.9-12.3 15.5-17.9 23.6z"/> <path class="st1" d="m1456.7 1208.1c3.3-2 6.5-3 10.2-4l3.4-3.6c1.7 0.9 2.6 1.8 3.9 3.2 9.9 10.6 22.4 21.6 37.6 22.1 2.8 0.1 5.8-0.9 8.5-1.7-0.9 2.7-1.6 4.6-3.6 6.8-1.7 0-3.2-0.1-4.9 0.3-2.1 0.5-4.4-0.5-6.4-1.3l-2.4-1c-7.3-2.1-12.9-5.4-18.9-10-3.1-2.4-6.4-5.8-10-7.3-5.1-2.4-11.7-1.3-17.4-3.5z"/> <path class="st2" d="m759 1019.1c-22 6.6-46.8 4.3-64.9-10.7-3.1 10.1-7.5 24.3-12.8 41.2-27.6 88.1-36.7 109.6-49.9 110.8-3.8 0.3-9.7-0.9-17.6-9.5-1.3 3.9-6.3 17.2-20.5 25.6-9.6 5.7-18.9 6.5-23.4 6.5-2.3 4.1-8.5 14.3-21.2 21.1-11.3 6.1-21.9 6.3-26.7 6.1-12.4 15.5-27.4 21.7-36.1 17.1-0.3-0.2-5.6-3.1-6.2-8.1-1-8.6 12.4-19.2 34.2-25.7 1.3-2.8 7-14.2 20.4-20 11-4.7 20.9-2.9 24.4-2.1 1.5-4.4 4.7-11.8 11.8-18.4 14-13 31.9-12 35.4-11.7-2.7-2.9-6.4-7.5-8.2-13.8-5.5-19.3 10.1-39.4 24-57.4 9.5-12.3 8.4-8 26.8-29.7 8.6-10.2 14.8-18.1 25.8-27.3 6.4-5.3 12-9.2 16-11.6 7.2-15.2 16.5-23.6 22-27.8 17.2-13 37-15.1 53.8-16.9 8.2-0.9 15.1-0.9 19.6-0.9-12.7 19.8-17.9 42-26.7 63.2z"/> <linearGradient id="a" x1="632.23" x2="741.76" y1="1363.8" y2="1387.5" gradientUnits="userSpaceOnUse"> <stop stop-color="#000002" offset="0"/> <stop stop-color="#292823" offset="1"/> </linearGradient> <path class="st3" d="m734.6 1155.4c-10.1 4.2-27.4 13.1-42.9 30.8-22.1 25.2-27.1 52.9-28.4 64-7.9 15.4-16.6 37.5-18.9 64.8-6.4 75.8 41 130.7 52.2 143.2-4.5 1.5-17.1 6.3-26.1 19.3-6.5 9.3-8.2 18.5-8.7 23.3-2.4 0.4-13.6 2.6-20.8 13-4.3 6.2-5.2 12.5-5.4 15.6-4.8 0.9-13.5 3.4-20.8 10.6-15.2 14.9-16.8 42.5-7.6 48.3 6 3.9 16-2.2 17.9-3.4 19.2-11.7 17.2-40.3 17.1-41.9 3.9 0.4 10.2 0.4 16.4-2.8 11.3-5.7 18-19.2 17.3-34.4 3.8-0.4 12.9-1.9 20.8-9 14.4-12.9 12.1-32.6 11.8-34.5 12.5-1.1 16.9-5.1 18.7-8.4 10.8-19.6-47.6-54.9-48.4-111.3-0.1-7.4 0.9-10.7 0.5-23.7-0.7-25.1-5.3-45.4-9.2-58.9 6.9 2.2 18 4.3 31.7 4.2 10.4-0.1 20.7-2 31.2-6.9-0.3-23.4 1.9-79.4 1.6-101.9z"/> <path class="st2" d="m876.5 888.2c-2.8-1.1-16.5-6.6-27-21.3-9.2-12.9-11-25.8-11.4-31.6-27.1-18.7-64.2-28.9-95.1-13.8-7.9-9.5-12-18.6-14.1-26.3-8.5-31 11.4-49.2 8.8-95.6-0.9-15-3.6-24.8-11.2-31.6-8.2-7.4-18.8-8.3-24.6-8.2 1.7-10.4-3-20.2-11.1-24-7.4-3.5-14.8-0.6-16.4 0 0-4.1-0.7-10.6-4.3-17.4-1.6-3-6.8-12.9-18.4-16.7-5.8-1.9-10.9-1.5-13.9-1-1.4-3.5-3.6-8.6-7-14.4-6.3-10.7-10.8-18.5-19.5-22.4-6.9-3.1-19.2-5.1-25.4 1.8-5.9 6.5-2.9 17.2-2.4 18.9 3.3 11.5 13.8 17.4 20.6 21.2 7.4 4.1 14.3 5.9 18.9 6.7 0.4 4 2 12.5 8.4 20.6 2.4 3 7.6 9.6 17.1 12.2 7.2 2 13.5 0.8 16.4 0 0.9 3.5 3.1 10.4 9.1 16.9 4.7 5.1 9.8 7.8 12.9 9.1-1.9 24-0.4 43.6 1.3 56.9 3.4 27.4 7.6 60.5 31.2 90.2 10.3 13 21.2 21.4 28.3 26.2 22.8 25.1 46.1 38.4 60.8 45.4 21.4 10.1 52.8 24.9 81.7 12.1 7.4-3.3 12.8-7.5 16.2-10.7-5.4 0.8-16.9 1.8-29.9-3.2z"/> <path class="st2" d="m1210.1 956.1c4.5-0.1 11.4 0 19.6 0.9 16.8 1.8 36.6 3.8 53.8 16.9 5.5 4.2 14.8 12.6 22 27.8 3.9 2.5 9.6 6.3 16 11.6 11 9.2 17.1 17.1 25.8 27.3 18.4 21.6 17.3 17.4 26.8 29.7 13.9 18 29.5 38.1 24 57.4-1.8 6.4-5.5 11-8.2 13.8 3.5-0.3 21.4-1.3 35.4 11.7 7.1 6.5 10.3 14 11.8 18.4 3.5-0.8 13.4-2.6 24.4 2.1 13.5 5.7 19.1 17.1 20.4 20 21.8 6.5 35.2 17.1 34.2 25.7-0.6 5-5.9 7.9-6.2 8.1-8.7 4.6-23.8-1.7-36.1-17.1-4.8 0.2-15.3 0-26.7-6.1-12.7-6.8-19-17-21.2-21.1-4.5-0.1-13.8-0.8-23.4-6.5-14.1-8.4-19.1-21.8-20.5-25.6-7.9 8.6-13.8 9.8-17.6 9.5-13.2-1.1-22.3-22.7-49.9-110.8-5.3-16.9-9.7-31.1-12.8-41.2-18 15-42.8 17.3-64.9 10.7-8.8-21.4-14-43.6-26.7-63.2z"/> <linearGradient id="b" x1="844.76" x2="954.29" y1="1363.8" y2="1387.5" gradientTransform="matrix(-1 0 0 1 2208.3 0)" gradientUnits="userSpaceOnUse"> <stop stop-color="#000002" offset="0"/> <stop stop-color="#292823" offset="1"/> </linearGradient> <path d="m1261.2 1155.4c10.1 4.2 27.4 13.1 42.9 30.8 22.1 25.2 27.1 52.9 28.4 64 7.9 15.4 16.6 37.5 18.9 64.8 6.4 75.8-41 130.7-52.2 143.2 4.5 1.5 17.1 6.3 26.1 19.3 6.5 9.3 8.2 18.5 8.7 23.3 2.4 0.4 13.6 2.6 20.8 13 4.3 6.2 5.2 12.5 5.4 15.6 4.8 0.9 13.5 3.4 20.8 10.6 15.2 14.9 16.8 42.5 7.6 48.3-6 3.9-16-2.2-17.9-3.4-19.2-11.7-17.2-40.3-17.1-41.9-3.9 0.4-10.2 0.4-16.4-2.8-11.3-5.7-18-19.2-17.3-34.4-3.8-0.4-12.9-1.9-20.8-9-14.4-12.9-12.1-32.6-11.8-34.5-12.5-1.1-16.9-5.1-18.7-8.4-10.8-19.6 47.6-54.9 48.4-111.3 0.1-7.4-0.9-10.7-0.5-23.7 0.7-25.1 5.3-45.4 9.2-58.9-6.9 2.2-18 4.3-31.7 4.2-10.4-0.1-20.7-2-31.2-6.9 0.3-23.4-1.9-79.4-1.6-101.9z" fill="url(#b)"/> <path class="st2" d="m1119.3 888.2c2.8-1.1 16.5-6.6 27-21.3 9.2-12.9 11-25.8 11.4-31.6 27.1-18.7 64.2-28.9 95.1-13.8 7.9-9.5 12-18.6 14.1-26.3 8.5-31-11.4-49.2-8.8-95.6 0.9-15 3.6-24.8 11.2-31.6 8.2-7.4 18.8-8.3 24.6-8.2-1.7-10.4 3-20.2 11.1-24 7.4-3.5 14.8-0.6 16.4 0 0-4.1 0.7-10.6 4.3-17.4 1.6-3 6.8-12.9 18.4-16.7 5.8-1.9 10.9-1.5 13.9-1 1.4-3.5 3.6-8.6 7-14.4 6.3-10.7 10.8-18.5 19.5-22.4 6.9-3.1 19.2-5.1 25.4 1.8 5.9 6.5 2.9 17.2 2.4 18.9-3.3 11.5-13.8 17.4-20.6 21.2-7.4 4.1-14.3 5.9-18.9 6.7-0.4 4-2 12.5-8.4 20.6-2.4 3-7.6 9.6-17.1 12.2-7.2 2-13.5 0.8-16.4 0-0.9 3.5-3.1 10.4-9.1 16.9-4.7 5.1-9.8 7.8-12.9 9.1 1.9 24 0.4 43.6-1.3 56.9-3.4 27.4-7.6 60.5-31.2 90.2-10.3 13-21.2 21.4-28.3 26.2-22.8 25.1-46.1 38.4-60.8 45.4-21.4 10.1-52.8 24.9-81.7 12.1-7.4-3.3-12.8-7.5-16.2-10.7 5.4 0.8 16.9 1.8 29.9-3.2z"/> <path class="st5" d="m1146.3 995.2 1.9-0.2c8.7-0.8 14.7 0.3 21.3 6.4 11.9 10.7 12.5 29.1 13.3 44.1 2.1 45.3-0.5 91.6-1 137l-2.7 109.6c-0.9 21.4-0.8 44.3-5.1 65.3-2.1 10.3-6.4 21.4-13.7 29.2-9.3 10-20.9 12.7-34 13.1-4-0.8-7.9-1.6-11.6-3.2-10.7-4.7-19.6-16.1-23.4-27-2.7-7.7-2.4-16.2-2-24.3l3.7-35.3 16.3-141.8 8.4-78.7c1.6-18 2-36.3 4.6-54.2 1.3-8.9 2.9-18 7-26.1 4.1-7.9 8.8-11.1 17-13.9z"/> <path class="st6" d="m998.6 1562.5v-858.5c-72.8-2.2-166.4 50.1-160.2 132-0.1 2.4-0.8 29.2 21.5 46.1 20.4 15.5 43.5 10.1 46.5 9.4-4.5 3.4-12.3 8.3-22.7 10.8-21.1 5.1-34-4.3-47.9-3.5-23.1 1.4-40.8 30.6-53.1 57.3-63.5 138-49.7 301.2-49.7 301.2 3.4 40.3 12 102.1 38.2 172.3 12 32.1 20.6 54.8 39 81.4 44 63.6 125.2 122.4 164.3 100.1 8.2-4.8 20-16.2 24.1-48.6z"/> <path class="st6" d="m998.6 1562.5v-858.5c72.8-2.2 166.4 50.1 160.2 132 0.1 2.4 0.8 29.2-21.5 46.1-20.4 15.5-43.5 10.1-46.5 9.4 4.5 3.4 12.3 8.3 22.7 10.8 21.1 5.1 34-4.3 47.9-3.5 23.1 1.4 40.8 30.6 53.1 57.3 63.5 138 49.7 301.2 49.7 301.2-3.4 40.3-12 102.1-38.2 172.3-12 32.1-20.6 54.8-39 81.4-44 63.6-125.2 122.4-164.3 100.1-8.1-4.8-19.9-16.2-24.1-48.6z"/> <path class="st5" d="m833.7 999.9c6.1-0.3 11.7-0.8 17 2.8 6.6 4.4 12.1 12.3 13.6 20.2 7.2 39.9 10.1 80.6 14.9 120.8l15.9 146.1 2.9 35.9c1.1 12.4 2.5 26.2 0.6 38.6l-0.3 1.5c-0.8 5.3-2.3 10.2-5 14.9-5.5 9.5-13.3 15.9-23.8 18.9-11.7 2.3-22.9 2.7-33.4-3.8-12.2-7.5-22.3-21.8-25.2-35.7-4.8-23.1-4.4-48.5-5.3-72.1l-0.7-166.9c0.6-28.3 0.3-57.5 4.6-85.6 1.4-9 3.5-18.6 8.7-26.2 4.6-6.3 8.1-7.8 15.5-9.4z"/> <path class="st5" d="m1188.2 1009.4c5.2 7.6 7.3 17.3 8.7 26.2 4.3 28.1 4 57.3 4.6 85.6l-0.7 166.9c-0.9 23.6-0.5 49-5.3 72.1-2.9 13.9-13 28.3-25.2 35.7-10.5 6.5-21.7 6-33.4 3.8-10.5-3-18.3-9.4-23.8-18.9-2.7-4.7-4.1-9.6-5-14.9l-0.3-1.5c-1.9-12.3-0.5-26.2 0.6-38.6l2.9-35.9 15.9-146.1c4.9-40.2 7.8-80.9 14.9-120.8 1.4-7.9 7-15.8 13.6-20.2 5.3-3.5 10.9-3.1 17-2.8 7.7 1.5 11.1 3 15.5 9.4z"/> <path class="st2" d="m1243.4 385c-2.9-1.9-7.2-0.2-8.5 0.4-14.7 6.1-9.3 30.9-21 50.1-8.4 13.8-19.5 14.7-54.5 29.2-36 15-62.7 26-81.6 42.6-15.1 13.2-32.9 36.6-40.9 80.9-5.7-1.5-12.5-2.9-20.1-3.7-7-0.7-13.3-0.9-18.8-0.7-5.5-0.2-11.8-0.1-18.8 0.7-7.6 0.8-14.4 2.2-20.1 3.7-8-44.3-25.7-67.6-40.9-80.9-18.9-16.6-45.5-27.6-81.6-42.6-35-14.5-46.1-15.4-54.5-29.2-11.6-19.2-6.3-44-21-50.1-1.3-0.5-5.6-2.3-8.5-0.4-8.4 5.6-1.2 40.1 16.5 62.6 11.8 15.1 21.4 16 71 39.2 59.4 27.7 70 37.6 76.7 45.6 17.4 20.6 22.6 44.6 24.4 60.9-9.9 2.8-26 9-40.6 23-18.4 17.6-39.4 52.2-27.5 85.5 5.4 15.2 16 25.2 24.1 31.2 29.7-19.5 65.5-29.5 100.8-28.9 35.3-0.7 71 9.3 100.8 28.9 8.1-6 18.7-16 24.1-31.2 11.9-33.2-9.1-67.9-27.5-85.5-14.7-14-30.8-20.2-40.6-23 1.8-16.3 7-40.4 24.4-60.9 6.7-7.9 17.4-17.9 76.7-45.6 49.6-23.1 59.2-24.1 71-39.2 17.6-22.6 24.9-57 16.5-62.6z"/> <path class="st7" d="m881.2 641.7c2.1-5.4 6.2-13.7 13.8-21.9 9-9.6 18.6-14.5 24.3-16.9 3.1 0.5 10 2.1 16.2 7.8 8.9 8.2 9.6 19.1 9.8 22.3 0.2 3.1 0.7 13.7-6.4 22.9-8.2 10.7-24.3 16.5-38.5 10.5-15.5-6.7-19-23.3-19.2-24.7z"/> <path class="st7" d="m1095.9 666.3c-14.1 6-30.2 0.2-38.5-10.5-7.1-9.2-6.6-19.8-6.4-22.9 0.2-3.2 0.9-14 9.8-22.3 6.2-5.7 13.1-7.3 16.2-7.8 5.7 2.4 15.3 7.2 24.3 16.9 7.6 8.2 11.7 16.5 13.8 21.9-0.3 1.5-3.8 18.1-19.2 24.7z"/> <path class="st8" d="m998.6 892.6c-30.2 0.2-60.5 0.3-90.7 0.5 17.9 7.9 30.6 17.4 38.6 24.3 11.7 10 30.7 26.3 37.4 52 3.2 12.1 2.2 20.8 1.3 33.8-1.9 28.4 0.9 57 0.3 85.5-2.4 117.9 4.1 161.7 0.2 292.7-0.9 29-2.7 77.7 6.2 142.2 2.4 17.5 5 31.8 6.8 40.7 1.7-9 4.4-23.2 6.8-40.7 8.9-64.5 7.1-113.2 6.2-142.2-3.9-131 2.6-174.8 0.2-292.7-0.6-28.5 2.2-57 0.3-85.5-0.9-13-1.9-21.7 1.3-33.8 6.7-25.7 25.7-42 37.4-52 8-6.9 20.8-16.4 38.6-24.3-30.4-0.1-60.6-0.3-90.9-0.5z"/> </svg>