<?xml version='1.0' encoding='utf-8'?>
<svg xmlns="http://www.w3.org/2000/svg" width="17.137cm" height="21.171cm" version="1.1" viewBox="0 0 171.37 211.71"> <g transform="translate(-19.781 -35.692)"> <path transform="scale(.26458)" d="m330.47 183.38c-0.24525 7e-3 -0.48892 0.0286-0.73242 0.0664-14.763 4.0228 2.338 29.671 4.7012 39.818-12.732-4.2166-41.435-26.46-52.277-13.377-6.392 11.027 27.577 22.657 28.555 28.322-0.0849 0.29525-3.1785-0.55172-3.1836-0.21289-0.10082 0.18509-0.24365 0.36364-0.4375 0.53515-25.768 5.1348-66.08-1.2268-90.109 11.074-6.8554 4.4963-6.2453 11.537 1.625 13.402-40.155 30.23-68.248 76.95-64.115 128.75 1.4809 22.272-15.972 45.204-26.674 62.189-2.8442 9.2198 33.566-12.051 33.566-12.051-8.6041 18.582-25.845 26.608-39.932 38.488 1.1464 4.8149 79.702 41.99 120.01 46.457 109.59 15.85 224.53-26.806 297.04-111.04 2.25-9.7946 14.553-17.886 22.043-22.717 3.6432-2.3501 5.7715-4.6094 5.7715-4.6094s-35.484 0.20238-51.986-10.529c-15.737-2.6869-12.438-13.66-8.2812-25.357 2.6905-8.8467 6.7778-23.856-5.6328-26.723 2.0873-10.838 4.0452-35.625-13.73-30.648-4.6707 3.6437-6.8372 6.6924-11.316 0.27343-5.8502-4.1047-13.151-8.413-1.8379-9.8184 28.799-11.811 44.356-53.464 79-47.008 10.51 3.2639 34.589 4.5828 27.336-13.377-4.4752-22.945-31.399-38.619-52.139-24.5-14.194 11.133-31.395 15.528-48.854 18.691-0.44716 35.004-45.743 40.855-70.549 28.072-5.2678-1.2846-10.22-3.164-14.907-5.5163-0.84966-0.42642-2.7008 1.9727-3.5333 1.5159-1.0405-0.57085-1.0577-4.0059-2.0725-4.6216-21.168-12.843-36.878-35.134-52.472-53.989-1.4239-0.91962-3.1602-1.6046-4.877-1.5586zm-142.29 12.391c-9.1191 0.49247-16.559 7.2308-21.199 14.633 11.005 10.184 17.137 24.369 23.16 37.584 4.4524 2.7093 6.2044-3.9705 7.3223-6.8848 2.9962-7.9553 6.7288-15.896 8.9883-23.961-1.7739-9.5056-6.6714-21.737-18.271-21.371zm203.26 101.69c15.328 1.3183 36.284 14.103 36.643 29.602-3.2382 18.647 1.1605 42.442-19.207 53.305-35.652 22.247-68.727-36.693-45.096-63.832 0.42239-14.303 14.397-19.276 27.66-19.074zm-167.53 20.309c0.68358-0.0354 1.3702-3e-3 2.0547 0.11719 15.234 1.2421 11.669 17.847 18.846 27.549 4.8779 20.132 1.8004 48.749-17.303 60.029-24.146-0.21392-24.839-32.182-27.549-49.932-6.4679-11.845 7.0538-29.054 18.033-36.082 1.845-0.85227 3.8672-1.5753 5.918-1.6816zm305.74 197.59c-6.7981 3.0267-9.8332 11.133-13.994 16.943-11.94 21.45-16.933 45.93-20.943 69.889-0.52452 14.65 3.9556 28.961 1.1875 43.463-0.0684 4.0906-2.3989 9.5116-0.53711 12.766 5.1776 3.957 13.38 2.6422 19.982 4.291 18.849 3.4963 38.084 12.461 47.699 29.924 8.2786 13.733 9.2977 30.599 5.4668 45.811-5.0149 13.932-13.231 26.474-20.34 39.402 4.0691 5.0237 10.596 0.0858 15.328-0.94141 19.881-7.5758 34.038-26.614 36.799-47.559 4.8088-28.206-7.2998-55.806-5.2617-83.98 0.28762-13.02 5.0466-26.011 10.301-37.463 8.566 31.533 5.0743 29.764 11.469 61.914 4.7597 21.792 30.387 74.113 25.139 96.09-6.335 22.955-24.454 41.371-46.445 49.615-23.57 9.9093-49.717 11.084-74.637 5.9785-3.8677 0.68439-6.344 7.3563-1.6309 8.6855 31.782 12.11 69.354 10.189 98.91-7.0078 17.477-10.316 29.265-28.023 34.947-47.232 5.9579-16.37 6.2616-34.167 2.7129-51.098-8.7428-48.436-38.992-90.031-46.02-138.79-24.079-5.4503-46.24-18.864-60.947-38.885-7.5196-9.3753-12.407-20.619-17.461-31.246-0.49013-0.36926-1.1114-0.57235-1.7246-0.56641zm-71.111 42.225c-3.5551 1.4298-3.6513 7.3236-4.7891 10.965-12.671 66.264-60.276 124.72-122.07 151.47-10.467 3.1106-19.442-5.9166-27.486-11.145-10.01-5.7532-18.047-14.065-27.09-21.107-5.4998-4.9712-15.322-6.9237-20.59-0.61133-18.472-12.464-32.092-33.979-30.75-56.875-0.27987-3.0909-0.89825-8.3548-5.0586-5.373-8.6033 4.7232-18.364-2.9804-19.326-11.861-2.5702-10.274 4.5249-18.794 7.3086-28.066-11.09-0.88078-17.992 9.7338-24.514 17.014-5.6801 7.6596-11.603 15.702-14.545 24.82-0.42859 4.634 5.5921 4.4274 8.0469 2.0137 4.5428-2.6739 7.9535-9.5374 10.365-12.328-1.5911 7.2317-5.4996 13.504-9.5176 19.5-0.39618 6.5125-1.5573 13.005-3.8223 19.217-2.6436 4.6918-2.1548 15.112 5.4961 12.664 4.8944-2.9552 8.8414-7.2027 12.705-11.367-1.8337 6.4188-7.3535 12.53-3.6094 19.285 5.1426 19.825 13.687 39.097 27.902 54.133 14.318 16.485 29.392 33.022 48.027 44.68 5.7195 3.9823 11.866 2.8188 17.758 6.2773 14.345 6.228 29.693 9.6744 45.18 11.055 4.6474 0.74287 9.3472 1.2548 14.061 1.0566 0.0814-1.3663 1.5797 8.4971 2.0801 11.299 4.2923 26.476 5.9775 54.504-3.8672 80.078 3.1439 4.1845 8.068-0.4558 10.891-1.6914 5.4052-4.5997 12.539-5.0202 18.926-6.8262 13.513-10.861 26.724-22.97 34.314-38.887 12.35-23.688 13.262-51.064 12.652-77.199 0.36964-29.936-3.7897-61.184 6.9707-89.617 1.017-2.651 2.1646-5.2541 3.4902-7.7656 7.6469 22.185 3.0727 45.868 3.2734 68.691 2.2075 8.7301 7.0465 16.687 11.352 24.564 12.622 21.206 33.3 39.517 58.645 42.322 8.6643 0.90539 18.111 1.7326 26.324-1.2109 6.5354-6.8191 10.199-15.92 15.67-23.582 7.9875-13.719 17.468-27.269 21.131-42.918 4.0833-21.282-5.6949-44.821-24.961-55.416-14.037-8.785-30.773-10.959-46.459-14.943-3.3501-2.0512-9.1074-2.1366-10.764 2.0684-10.973 2.4249-19.579 10.174-28.166 16.906 10.333-25.222 26.917-49.278 27.4-77.508 1.2509-5.4859-0.17123-11.001-3.5762-15.385-5.4725-9.71-10.17-20.686-18.32-28.334-0.23018-0.0113-0.45736-0.0968-0.68946-0.0605zm-190.38 240.48c-11.059-0.0869-22.164 12.687-16.117 23.295 7.3204 18.147 16.446 35.583 25.268 52.979 1.9232 3.3892 6.1667 2.5783 8.377 0.0742 2.5132 2.467 1.8141-1.9833 4.7109-1.7129 2.0164-0.11452 2.9433 0.86348 3.0586-2.3926 14.338-6.997 30.934-9.421 46.717-7.2148 3.6473-1.6284 2.188-6.4618 3.6191-9.5371 0.21732-7.7345-7.0092-13.073-8.9258-20.26-4.2509-10.266-15.075-15.431-23.984-21.053-12.638-6.3738-25.953-12.768-40.201-14.15-0.84023-0.0488-1.6809 5e-3 -2.5215-0.0254z" fill="#f6b85c" style="paint-order:markers fill stroke"/> <path transform="scale(.26458)" d="m620.43 469.04c-5.0865 1.4087-9.9376 3.6243-14.469 6.3208-6.3349 3.811-11.941 8.8019-16.534 14.59-2.2152 2.4784-4.6415 4.7711-6.6637 7.4193-3.7457 4.7661-6.6532 10.176-8.7238 15.867-0.73545 2.1355-1.3807 4.3169-1.8088 6.532 0.0133 0.42993 0.57816 0.36023 0.70574 0.0248 10.317-11.832 20.436-23.839 30.74-35.68 2.1058-2.4441 4.5308-4.5844 6.8934-6.7728 2.9713-2.709 6.1702-5.1487 9.5354-7.3513 0.26525-0.19283 0.92471-0.5589 0.49212-0.91552-0.0516-0.0266-0.10972-0.0361-0.16689-0.0331z" fill="#d07f29" style="paint-order:markers fill stroke"/> <path transform="scale(.26458)" d="m526.07 421.48c-3.2011 2.6639-5.9843 5.8074-9.0645 8.6138-39.362 37.456-87.984 65.241-140.43 79.545-70.363 19.225-146.95 14.631-214.6-12.647-1.9236-0.77224-34.447-16.617-36.378-17.371-0.76063 0.18135-0.75966 1.5273-0.92047 2.0965-0.23086 1.2933 32.706 15.954 33.483 16.461 6.3957 2.4357 12.383 5.8132 18.76 8.3015 16.029 6.5044 32.696 11.237 49.254 16.17 10.156 2.944 20.312 5.9299 30.5 8.7382 13.832 3.0186 29.165 2.056 43.947 1.5854 19.931 0.0902 39.881-1.2637 59.589-4.2649 7.5512-1.2118 15.112-2.4855 22.536-4.3341 8.2315-3.32 16.173-7.3136 24.167-11.159 20.472-10.017 40.44-21.173 59.169-34.188 22.084-15.337 41.21-34.522 58.62-54.91 0.54381-0.81762 8.1575-8.896 8.347-9.8706-0.12002-0.0402-6.8218 7.1326-6.9821 7.2333z" fill="#e9a04a" stroke="#e9a04a" stroke-dashoffset="4.7811" stroke-width=".47619" style="paint-order:markers fill stroke"/> <path transform="scale(.26458)" d="m427.77 658.8c-1.8264 1.5436-2.3027 4.2761-3.4001 6.3499-7.3172 17.041-9.5479 35.776-9.4829 54.184-0.33317 18.632 1.1373 37.238 0.88261 55.872 0.0346 21.631-2.9452 43.978-13.637 63.096-7.7587 14.184-19.128 26.375-32.566 35.333-1.123 0.61799 0.10034 1.2992 0.90611 1.121 12.085 0.2985 23.394 5.4016 33.618 11.499 1.1485-0.4857 0.96883-2.5559 1.5806-3.593 9.5054-31.147 12.492-63.753 16.068-95.973 2.039-13.825 5.2106-27.52 6.5022-41.476 1.2389-14.652 3.0499-29.238 5.0851-43.8 0.29231-1.8582 0.42291-3.7154 0.0342-5.5155 0.984-12.456-0.33109-25.336-5.21-36.927-0.085-0.12022-0.23189-0.19678-0.38086-0.1702z" fill="#e9a04a" stroke="#e9a04a" stroke-dashoffset="4.7811" stroke-width=".95238" style="paint-order:markers fill stroke"/> <path d="m103.99 145.68c21.444-4.5348 18.773 18.242 14.882 19.471l-4.6529-6.3899s-8.701-6.9054-14.868-12.64c1.5462-0.14709 3.0923-0.29416 4.6385-0.44124z" fill="#e9a04a" style="paint-order:markers fill stroke"/> <path transform="scale(.26458)" d="m480.04 596.65c-1.1351 1.028-0.4267 3.0785-0.66877 4.4754 0.13259 17.672-6.8096 34.356-14.474 49.973-4.4801 9.5346-9.3879 18.917-13.732 28.485 0.7635 0.85835 1.7174-1.0929 2.3807-1.4021 6.367-6.6152 13.866-12.815 23.095-14.701 4.2615-1.3788 8.6385-2.5606 12.815-4.1204 1.3535-1.7939 0.55438-4.4244 0.93507-6.5149 0.32259-10.407 0.35892-20.917-1.9428-31.131-1.8031-8.4633-4.07-16.953-7.8665-24.751-0.12718-0.16686-0.31502-0.34097-0.54199-0.3118z" fill="#e9a04a" stroke="#e9a04a" stroke-dashoffset="4.7811" stroke-width=".95238" style="paint-order:markers fill stroke"/> <path d="m87.407 191.17c14.287-6.071 25.814-18.337 30.986-32.973 1.3192-3.7332 2.2421-7.6063 2.7482-11.533" fill="none" stroke="#e9a04a" stroke-width=".26458px"/> <path transform="matrix(-.025994 1.3709 1.152 -.14461 -4.4962 -20.454)" d="m151.24 104.25s-0.37367 0.30916-1.1328 0.72699c-1.9438 1.0646-6.0289 2.3892-11.214 0.6605-0.86523-0.28844-1.6781-0.63924-2.4309-1.0282-5.3352-2.7096-7.4189-6.6449-7.4189-6.6449s3.6674 2.2613 8.5402 4.1488h1e-5c0.71035 0.2685 1.4551 0.53404 2.2187 0.78647 4.7087 1.5566 7.6504 1.7402 10.129 1.5101 0.82957-0.0752 1.3089-0.15981 1.3089-0.15981z" fill="#e9a04a" style="paint-order:markers fill stroke"/> <path transform="scale(.26458)" d="m449.21 546.57c-0.9586 0.9337-0.94394 2.6183-1.4726 3.8373-12.422 41.216-32.815 79.886-58.788 114.17-10.806 14.246-22.705 27.663-35.807 39.833-4.3547 4.2528-9.0791 8.0969-13.561 12.206-0.63617 0.27715-0.73003 1.6796 0.19483 1.2711 25.753-12.504 48.727-30.543 67.543-52.08 25.746-29.499 43.15-66.242 49.272-104.94 0.0898-1.556 0.83924-3.252 0.45993-4.7215-2.4665-3.2446-4.9441-6.5007-7.6666-9.532l-0.16474-0.0474z" fill="#e9a04a" style="paint-order:markers fill stroke"/> <path d="m114.46 134.36c-15.735 6.9297-34.67 7.5892-51.5 5.998-4.0386 0.33907-4.9985 4.8002-8.2676 7.0801-0.8366 1.6373-6.3507 5.1708-3.4668 6.957 2.8702 0.44195 9.0926-5.0505 5.6048 0.14734-2.6157 2.5103-4.7899 9.9253 0.61788 10.359 3.4911-0.0397 1.2362 5.7797 3.1465 8.4062 1.3679 3.5207 5.1319 8.1775 7.4756 9.1613 3.7421-3.6952 7.0379 3.1336 10.19 4.368 3.3689 2.1661 8.2491 7.4147 11.735 2.7387 3.6057-2.7622 8.7405-6.8281 12.949-12.312 10.265-13.377 18.988-31.554 15.41-33.395l-0.85294-0.99123s1.8257 0.0929 3.4971 0.6998c1.817-0.58179 4.9739 2.4541 5.8867 0.76562-2.2264-4.1739-6.3975-7.2432-9.8457-10.49-0.87063-0.70671-1.7146 0.34137-2.5801 0.50781z" fill="#fceac9" style="paint-order:markers fill stroke"/> <path d="m33.676 127c22.352 12.369 50.21 14.295 74.052 5.1198 12.884-4.9584 24.567-13.006 33.792-23.277" fill="none" stroke="#e9a04a" stroke-width=".26458px"/> <path d="m177.65 122.56c-6.7449 0.0593-13.022 3.4788-17.783 8.0799-2.7394 2.2168-5.6612 5.1674-8.5242 7.2261-0.0157-3.13 2.2198-7.3075 3.3678-10.147-0.33397-1.4104-2.6119 0.13056-3.3993 0.46199-4.2038 1.8535-8.1662 4.3826-11.304 7.7675 2.5386 8.065 8.542 15.177 16.561 18.171 1.4868 0.63665 3.0464 1.119 4.6566 1.3116 0.0994-5.3418 0.15859-10.96 2.8045-15.765 3.6591-7.7141 11.255-13.224 19.55-14.58 0.59191-0.19932 2.208-0.33081 1.9426-0.72209-2.1721-1.7434-5.2331-1.6805-7.872-1.8044z" fill="#d07f29" style="paint-order:markers fill stroke"/> <path transform="scale(.26458)" d="m434.24 326.2c-0.0726-0.0151-0.15155-4e-3 -0.22266 0.041-0.28344 0.39752 0.0955 0.92144 0.13672 1.3574 0.86053 3.2392 1.4003 6.5495 1.7012 9.8848l-0.46497 8.9176-1.4054 11.666-3.8877 10.808-9.6498 12.893-16.006 10.858c11.165-2.4719 21.525-9.3114 28.094-18.369 7.771-10.716 15.009-24.092 10.329-38.344l-4.2746-3.2299c-1.2938-2.1812-2.6216-4.3488-4.1582-6.3652-0.0514-0.0612-0.11879-0.1021-0.19141-0.11719z" fill="#fff" style="paint-order:markers fill stroke"/> <path transform="scale(.26458)" d="m357.85 308.59c-0.0868-5e-3 -0.17378-1.4e-4 -0.24805 8e-3 -1.0142 0.14936-1.8171 0.90227-2.7109 1.3535-5.8208 3.4946-11.563 7.1296-17.133 11.012-0.24573 0.10946-0.40589 0.45193-0.26563 0.6504-4.4727 14.448-3.3066 30.564 3.2109 44.213 5.6152 11.759 15.464 21.833 27.832 25.938 4.7129 1.564 9.7159 2.2486 14.676 2.0098l-16.548-11.419-11.146-14.021-6.3182-16.157-2.642-16.443c0.17108-2.2444 0.48434-4.4776 0.99414-6.6738 1.1253-4.0427 2.7853-7.9624 4.7852-11.652 1.6306-2.9907 4.5274-8.1656 6.7729-10.743 0.16712-0.32835-0.99885 1.9412-1.2592 1.9262z" fill="#fff" stroke="#fff" stroke-width="1px"/> <path d="m47.248 58.845c-0.59764-1.3985-1.5688-2.6352-2.7856-3.5475-0.22122-0.16585-0.45034-0.32117-0.68633-0.46524" fill="none" stroke="#fceac9" stroke-width=".26458px"/> <path d="m50.648 66.48c0.72144-1.6372 1.4122-3.288 2.0717-4.9512 0.62037-1.5645 1.2132-3.1401 1.7619-4.7311 0.24552-0.71183 0.4822-1.4267 0.70997-2.1444" fill="none" stroke="#e9a04a" stroke-width=".26458px"/> <path transform="scale(.26458)" d="m169.34 210.7c-1.2785 1.0366-1.7147 2.8853-2.5406 4.2854-4.3148 9.323-7.1113 19.25-10.202 29.022-6.544 21.931-12.334 44.204-15.08 66.966-1.6602 14.579-1.6702 29.574 2.009 43.86 3.3037 11.769 9.2535 22.836 17.362 31.991 0.44032 0.74559 1.2044 0.0848 0.89325-0.59583-1.2876-11.033-0.27468-22.192 1.6188-33.091-3.9606-7.3991-8.6111-15.006-8.9296-23.631-0.27406-3.5255-0.58942-7.5714-0.55785-10.812 2.5124 9.6961 5.1797 19.479 9.8909 28.373 0.56785 0.89211 1.1578-0.28955 1.17-0.89671 3.1576-13.092 8.7122-25.594 16.728-36.462 2.3213-3.2659 4.9404-6.3132 7.4668-9.4092 1.9161-9.1246 2.7203-18.458 2.408-27.776-0.0205-17.758-4.4817-33.959-12.357-49.779-1.0902-2.4441-3.6682-5.5852-5.2457-7.7098-1.4515-1.4846-2.7211-3.356-4.575-4.3374z" fill="#fceac9" stroke="#fceac9" stroke-dashoffset="4.7811" stroke-width=".67344" style="paint-order:markers fill stroke"/> <path transform="scale(.26458)" d="m204.6 220.1c-0.71564 0.15365-0.61787 1.1393-0.94391 1.6514-3.4098 9.3594-7.2474 18.551-11.121 27.724-0.30806 0.57108-0.45452 1.1968-0.18167 1.8142 2.2623 8.1319 2.9358 16.611 2.671 25.027-0.13049 6.4494-0.96474 12.855-2.2035 19.19 0.28496 0.66776 0.88096-0.2011 1.1593-0.443 8.487-8.9072 17.384-17.522 27.545-24.515 5.142-3.62 10.604-6.7257 16.191-9.6171 0.55223-0.1679 8.0888-3.7073 8.0888-3.7073s-14.946-1.7027-19.021-2.4456c-3.9023-0.54933-13.103 2.2091-14.51 2.216-0.61068 0.33169-0.72269 0.64153-1.2679 1.0671 2.5634-4.2893 6.209-7.8217 10.267-10.686 0.25951-0.67491-0.91376-0.79465-1.3189-1.1838-5.2919-3.0175-9.6759-7.7198-12.006-13.383-1.6815-3.9974-2.2174-8.3328-3.0284-12.555-0.0638-0.11065-0.19583-0.16501-0.31937-0.15291z" fill="#e9a04a" stroke="#e9a04a" stroke-dashoffset="4.7811" stroke-width=".33672" style="paint-order:markers fill stroke"/> <path d="m71.275 141.51s-4.5115-0.38262-12.303-1.7301c-4.3657-0.75233-11.248-2.0294-17.422-5.0124-3.3819-1.8835-6.776-4.4735-9.8606-7.8572 1.6447-1.1196 3.2697-2.4218 4.6408-4.0043 2.3146-1.6648 4.5491-3.5966 6.2314-5.8226-1.9625 1.9006-4.0956 3.7402-6.4084 5.3377-3.4401 1.153-7.1504 2.0446-11.081 2.4671 4.2255-1.7004 8.1241-4.8709 10.916-9.0214 1.0886-1.6184 1.9986-3.3733 2.6831-5.2241 1.083-2.1824 1.7568-4.5432 1.9848-6.9288-2.3045-2.2458-3.9976-5.0353-4.9316-8.056-0.95421-3.0834-1.2141-6.2666-1.1096-9.313 0.14524-4.3889 0.97473-8.644 1.9371-12.591 1.2366-5.0954 2.727-9.895 4.2962-14.324 0.57861-1.6637 1.2175-3.3206 2.2205-4.8947 1.0585-1.6873 2.5974-3.0815 4.5137-3.8305 1.3514-0.53579 2.9098-0.58183 4.3805-0.01125 1.2089 0.53782 2.1111 1.4125 2.6863 2.3784 0.60507 1.0037 0.95063 2.0371 1.1504 2.973 0.48193 2.0828 0.54008 3.7426 1.0718 4.7966 0.13692 0.30079 0.30202 0.58012 0.48483 0.83361 0.39434 0.54682 0.82463 0.97294 1.1884 1.287h1e-6c1.4062 1.2215 2.2144 1.6056 2.4408 2.108 0.23177 0.51418-0.09836 0.91936-0.09836 0.91936s-1.5427 0.17897-3.6447-1.4187c-0.83818-0.6371-1.7376-1.6264-2.3026-2.995-0.59624-1.4522-0.69279-3.274-1.1156-5.1368v-3e-6c-0.18244-0.79253-0.44932-1.6236-0.90459-2.3372-0.42302-0.66066-1.0263-1.2635-1.7654-1.5543-0.85979-0.35877-1.9083-0.28167-2.8825 0.08421-1.3844 0.52339-2.5529 1.6526-3.4489 3.06-0.83334 1.3187-1.3675 2.813-1.9335 4.4735-1.4488 4.2902-2.85 9.0497-4.0003 14.154l-2e-6 6e-6c-0.85533 3.8082-1.6122 7.9469-1.6787 12.101-0.04223 2.8111 0.21064 5.7158 1.1006 8.4207 0.95264 2.9021 2.5738 5.6723 4.7473 7.9743-0.09515 3.0162-0.68002 6.0537-1.7604 8.9394-0.84328 1.802-1.9387 3.5043-3.2528 5.0619-3.4271 4.0619-8.014 6.8335-12.873 8.0448 3.4903-1.3389 6.7355-3.1392 9.7064-5.1509 2.8641-0.8702 5.603-1.9875 8.1464-3.1486-1.1538 3.3085-2.8431 6.2039-4.5912 8.6489-1.5389 0.99374-3.2583 1.6049-4.9413 1.9823 2.9551 2.2417 6.1722 3.8229 9.4019 4.941 1.5209 0.79699 3.0708 1.4804 4.6063 2.0842 3.9341 1.5471 8.1973 2.7969 11.814 3.856 6.8894 2.0056 11.961 3.4365 11.961 3.4365z" fill="#d07f29" style="paint-order:markers fill stroke"/> <path transform="scale(.26458)" d="m605.49 604.26c-2.0954 2.5637-2.9662 6.0172-4.3892 8.9986-5.2408 12.27-8.4376 25.528-8.0488 38.928-0.0996 14.599 3.4277 28.879 5.3365 43.279 2.746 18.275 2.5007 38.093-6.5481 54.723-8.4278 15.598-24.682 26.272-42.122 28.862-9.295 14.486-19.037 28.773-28.719 43.027 0.05 1.388 2.3172 1.0398 3.2224 1.4955 9.3408 2.0129 18.904 2.8702 28.454 2.4207 17.555-0.0693 35.091-4.3335 50.772-12.207 17.678-8.8755 32.821-24.073 38.832-43.214 3.5554-10.649 4.848-21.935 4.418-33.13-0.079-14.718-4.5891-28.357-8.8118-42.037-4.0504-13.122-8.6064-23.427-15.746-38.07-6.5752-14.006-12.691-37.083-15.984-52.318-0.12854-0.2798-0.22583-0.85832-0.66546-0.75893z" fill="#e9a04a" stroke="#e9a04a" stroke-dashoffset="4.7811" stroke-width=".95238" style="paint-order:markers fill stroke"/> <path transform="scale(.26458)" d="m433.24 735.45c-0.85018 0.55994-0.24084 2.0254-0.51544 2.8978-0.24397 10.564-0.72503 21.11-2.0897 31.59-1.2081 9.4249-2.2778 18.878-2.5708 28.385-0.44438 8.8144-1.091 17.648-1.8078 26.421 0.18727 1.2332 1.6949 0.40221 2.3291 0.0518 9.8867-5.4386 21.172-8.0192 32.42-7.9735 12.129-0.15331 24.994 2.4505 34.408 10.507 2.7413 2.1709 4.8136 5.0108 7.1446 7.583 0.9351-0.0154 1.0065-1.5697 1.5374-2.1934 4.6386-10.474 10.691-20.24 17.233-29.617 1.3001-2.0766 2.9298-4.0244 4.0124-6.1919-1.4942-0.1872-3.2717 0.28813-4.8839 0.27058-14.349 1.2383-29.183-0.75177-42.04-7.4854-14.492-7.3463-25.955-19.634-34.273-33.414-3.994-6.5188-7.196-13.47-10.326-20.416-0.1246-0.20125-0.30763-0.44906-0.57807-0.41481z" fill="#e9a04a" stroke="#e9a04a" stroke-dashoffset="4.7811" stroke-width=".67344" style="paint-order:markers fill stroke"/> <path transform="translate(-.52917)" d="m114.6 192.44c0.70201 2.1463 1.6019 4.2278 2.6846 6.2096 1.6809 3.0767 3.8301 5.9386 6.5761 8.1183 2.0329 1.6137 4.3834 2.8381 6.892 3.5044 2.7465 0.72947 5.6374 0.78391 8.4639 0.49043 0.58996-0.0613 1.1784-0.13742 1.7645-0.22841" fill="none" stroke="#e9a04a" stroke-width=".26458px"/> <path d="m172.93 202.73s1.4295-4.9507-0.38398-13.044c-1.525-6.9083-3.7492-10.858-7.5942-20.311-2.3406-5.6808-4.9164-13.131-4.1199-20.878 0.66175-5.966 3.4253-11.945 8.0038-16.715 4.1582-3.9174 9.7704-6.695 16.1-7.5019-4.5081-1.6473-9.9932-1.6127-14.992 0.37401-0.4138 0.16445-0.82253 0.34171-1.2254 0.53167-1.3173 0.48907-2.5578 1.1054-3.6609 1.8728-1.1107 0.75945-2.1445 1.7556-3.1961 2.7962-3.7455 2.985-7.2838 5.8067-10.836 8.6519-0.16669-3.9182 0.87157-7.5795 2.7181-10.452 3.147-2.9754 7.5652-4.4527 11.953-4.2438-4.0883 0.8075-7.968 2.1557-11.508 3.8647-6.1592 2.1197-11.053 5.3649-14.403 9.3255-3.7506 4.3833-5.6075 9.6366-6.5512 13.542-1.0757 4.5652-1.545 6.2458-1.8238 8.9085-0.21065 2.0119-0.11425 3.0723-0.11425 3.0723-0.76209-1.0907-1.4117-2.31-1.9843-3.5987 0 0 0.44958-3.3951 1.7052-8.8856 0.89922-4.0115 2.7817-9.6696 6.882-14.613 3.7114-4.4388 8.9972-7.9899 15.424-10.228 3.8798-1.0026 8.0572-1.5069 12.388-1.3888-3.7094 0.61656-7.3898 2.7972-9.8666 6.0648-2.2835 2.1323-3.8345 4.9134-4.4126 7.7594 0.69858-0.81325 7.7112-8.9847 8.4098-9.7979 1.0994-1.1054 2.2505-2.1961 3.5841-3.1278 1.355-0.93814 2.8155-1.6618 4.2992-2.2082 0.45611-0.14215 0.91538-0.26855 1.3767-0.37962 5.2974-1.2753 11.389-0.65525 16.752 2.2685-5.6026 1.5434-10.9 4.8157-14.945 9.4114-3.9836 4.1798-6.6295 9.5411-7.2259 15.042-0.79071 6.7088 1.5062 13.581 3.8326 19.538 3.3187 8.3253 5.9443 13.579 7.3879 20.839 0.82508 4.3142 0.63763 8.3382 0.2795 11.308-0.34913 2.8951-0.90031 4.6687-1.1949 5.3112-0.33941 0.74031-0.56257 0.62135-0.70687 0.16339-0.29086-0.92305-0.35325-3.272-0.35325-3.272z" fill="#d07f29" style="paint-order:markers fill stroke"/> <path d="m50.766 160.21s-0.12967 1.2456-0.51416 3.3165c-0.19934 0.78113-0.50352 1.7504-1.0171 2.7367-0.34644 0.70967-0.91114 1.5501-1.9095 2.1852-0.98068 0.77421-2.7081 0.91813-4.1213-0.61332-0.70355-1.3422-0.69265-2.7636-0.2367-3.9249 0.11342-0.28886 0.25105-0.5544 0.40446-0.79284 0.69562-1.297 1.7444-2.5876 2.2789-3.3671 1.3041-1.9152 3.0871-3.3237 4.0185-4.0542 1.3357-1.002 2.1239-1.5148 2.1239-1.5148s1.9728-0.01 1.3811 0.81012c-0.42794 0.59298-1.1139 1.3676-1.9717 2.2644-0.96167 1.073-2.3791 2.5054-3.2051 3.9132-0.72916 1.2122-1.5672 2.2428-2.0866 3.2652-0.06597 0.18079-0.13394 0.35924-0.19711 0.53029-0.25748 0.69724-0.44395 1.2197-0.18574 1.4224-0.26648 0.0156 0.05351-0.10599 0.6931-0.0778 0.46116-0.12072 0.94099-0.6277 1.3995-1.1238 0.58918-0.66759 1.1038-1.4492 1.5068-2.0918 0.95859-1.7956 1.6388-2.8834 1.6388-2.8834z" fill="#d07f29" style="paint-order:markers fill stroke"/> <path d="m66.617 216.95c-0.18938-0.93696-0.06832-1.934 0.33979-2.7984 0.40811-0.86441 1.101-1.5914 1.9448-2.0406 1.0368-0.55189 2.2606-0.6753 3.4276-0.54256s2.2918 0.50709 3.3966 0.90588c3.8203 1.379 7.5724 3.1091 10.697 5.7043 0.94845 0.78782 1.8339 1.6514 2.6452 2.58" fill="none" stroke="#e9a04a" stroke-width=".26458px"/> <path d="m65.849 201.28c1.6786 1.611 3.632 2.935 5.7503 3.8973 1.0185 0.46272 2.0748 0.84237 3.1549 1.1339l0.182 0.0135" fill="none" stroke="#e9a04a" stroke-width=".26458px"/> <path transform="scale(.26458)" d="m220.52 744.59c-0.59983 0.27281 0.0679 0.9864 0.14247 1.4221 9.512 21.973 18.99 43.961 28.695 65.85 0.47803 0.90397 0.74707 1.9699 1.3736 2.7709 0.66823 0.19464 0.70325-0.80535 0.77316-1.2368 0.69089-3.6286 2.6278-7.0363 5.3445-9.5099 3.8652-3.5253 9.2775-4.9438 14.398-4.6498 6.7892 0.29337 13.195 2.9125 19.505 5.2407 13.295 5.077 26.226 11.563 37.114 20.846 0.59838 0.4145 1.0682 1.1095 1.7754 1.3262 0.56097-0.2834-0.0373-1.0242-0.0651-1.4763-2.6702-8.533-4.7296-17.239-7.1212-25.852 3.2057 5.8467 5.8642 11.995 8.0065 18.3 1.9106 5.3191 3.5593 10.752 5.8863 15.913 0.51974 0.90509 0.76513 1.9521 1.2723 2.8841 1.4914 3.1358 2.8724 6.3419 4.5952 9.3566 0.65614 0.2928 0.59341-0.71947 0.6639-1.1184 0.48255-7.031 0.18429-14.086 0.13424-21.126-0.12788-5.4021-0.0543-10.822-0.73124-16.194-0.48666-4.3926-0.91159-8.7941-1.4862-13.176-0.44869-0.47937-1.3068-0.10929-1.9281-0.22363-7.274-0.2052-14.523-1.1021-21.756-1.9293-7.2822-0.87958-14.636-2.0484-21.405-4.9904-4.7142-2.0108-9.2356-4.4418-13.683-6.9694-3.2209-1.1988-6.5319-2.162-9.6813-3.5548-7.8704-3.2958-15.176-7.9021-21.547-13.589-1.6771-1.2576-3.7256-1.861-5.5412-2.8834-8.0121-4.0397-16.013-8.3043-22.911-14.11-0.60918-0.40549-1.1093-1.1178-1.8224-1.3197z" fill="#e9a04a" stroke="#e9a04a" stroke-dashoffset="4.7811" stroke-width=".33672" style="paint-order:markers fill stroke"/> <path d="m67.006 202.13s-0.0053-2e-3 -0.01565-6e-3c-0.02826-0.0116-0.09459-0.0391-0.19606-0.0824-0.15613-0.0666-0.39363-0.16984-0.70521-0.31164-0.54382-0.24749-1.3331-0.62132-2.2729-1.1145-1.2722-0.66445-3.296-1.7421-5.0661-3.2381h-1e-6c-1.6279-1.3688-3.374-3.0538-4.9405-5.0714-1.2912-1.6631-2.3199-3.371-3.1044-5.0774v-1e-5c-1.0783-2.3753-1.4764-4.914-1.7132-6.5086-0.31825-2.4951-0.41154-4.0267-0.41154-4.0267s1.2104-0.41684 1.4013 1e-3c0.29813 0.65322 0.66129 1.8602 1.0869 3.4565 0.4535 1.5284 1.0796 3.9664 2.0379 5.7992 0.78753 1.5375 1.7682 3.0684 2.9615 4.5981 1.439 1.8446 2.9782 3.6362 4.3125 5.1635 1.2365 1.4287 3.1298 3.1155 4.0754 4.0028 0.80627 0.75609 1.3576 1.275 1.8297 1.7241 0.24542 0.23348 0.43552 0.41593 0.55574 0.53193 0.07942 0.0766 0.13061 0.12643 0.15261 0.14789 8e-3 8e-3 0.01209 0.0118 0.01209 0.0118z" fill="#d07f29" style="paint-order:markers fill stroke"/> <path transform="scale(.26458)" d="m374.6 878.17c-0.45189 0.0743-0.46459 0.69706-0.7456 0.99095-1.7489 2.834-3.3299 5.854-3.9056 9.1688-0.6496 3.6581-0.76527 7.3835-1.0832 11.079-0.0961 1.5885-0.23834 3.1908-0.29697 4.7711 0.20709 0.403 0.77756 0.0479 1.1466 0.11334 5.5919-0.40349 11.229-0.4943 16.775-1.4006 4.2439-0.72611 8.459-2.1977 11.888-4.8582 1.7013-1.6345 2.643-3.8608 3.6828-5.9366 0.43405-1.0408 1.0544-2.0256 1.3367-3.1193-0.0401-0.54914-0.77458-0.518-1.1269-0.7834-6.6143-2.9575-13.158-6.1721-20.098-8.3228-2.4803-0.73437-5.0135-1.3375-7.5732-1.7025z" fill="#fceac9" style="paint-order:markers fill stroke"/> <path transform="scale(.26458)" d="m365.19 877.47c-2.3276 0.0495-4.6733 0.14477-6.9681 0.54496-0.28923 0.0578-0.22273 0.46646-0.55787 0.40074-5.5567 0.64154-10.69 3.4197-14.739 7.2067-0.3636 0.33694-0.71998 0.68156-1.0801 1.0222-0.28501-0.48938-0.84405-0.4339-0.94911 0.15189-0.91853 1.8005-1.9732 3.5267-2.8886 5.3252-0.19187 0.56028 0.54343 0.81441 0.82511 1.174 2.8801 2.4679 5.6455 5.1003 8.8026 7.2196 4.5752 3.0053 10.116 4.4576 15.575 4.2019 1.6181-0.0418 3.2413-0.1259 4.8438-0.35392 0.41622-0.31375-0.0573-0.85067-0.10488-1.2456-1.2436-3.482-1.8667-7.2351-1.7227-10.953 0.0578-3.7492 1.0738-7.4722 2.9892-10.689 0.69738-1.2183 1.6374-2.2818 2.4865-3.3787 0.0622-0.5396-0.73529-0.34517-1.093-0.43585-1.8042-0.11525-3.6108-0.21697-5.4194-0.1906z" fill="#fceac9" style="paint-order:markers fill stroke"/> <path transform="scale(.26458)" d="m326.34 863.83c-1.1332 0.0423-2.2915-0.0579-3.4098 0.12103-0.38274 0.35658 0.18932 0.81519 0.35031 1.1492 3.4269 5.0984 5.1035 11.285 4.8885 17.416-0.0214 1.8348-0.28449 3.6401-0.4932 5.4541 0.10125 0.55045 0.71899 0.1787 0.97481-0.0387 0.56839-0.36912 1.0915-0.91385 1.5829-1.3065 0.59943 0.0285 0.8314-0.72321 1.1649-1.1009 3.9701-6.1097 6.3959-13.076 8.1016-20.12-0.0564-0.52701-0.78807-0.36696-1.1684-0.52806-3.7961-0.71805-7.6581-1.1299-11.525-1.0462-0.15556 2.5e-4 -0.31111 5e-4 -0.46666 7.5e-4z" fill="#fceac9" style="paint-order:markers fill stroke"/> <path transform="scale(.26458)" d="m313.01 865.15c-4.4215 0.72326-8.8425 1.4501-13.263 2.1788-0.42108 0.12174 0.0503 0.76433-0.53437 0.62312-6.7544 0.88845-13.285 3.4151-18.878 7.3038-0.53682 0.2822-0.0489 0.85328 0.12258 1.212 1.4184 2.4945 2.8062 5.0203 4.461 7.3678 0.75588 0.82582 1.8701 1.1976 2.7903 1.8042 5.1114 2.8521 10.343 5.7044 16.09 7.0363 2.9131 0.72274 5.9113 1.144 8.9176 1.0221 2.6945 7e-3 5.3499-0.66665 7.7956-1.7751 1.963-0.87742 3.9887-1.6581 5.8301-2.7771 0.42204-0.31499 5e-3 -0.88546 0.0278-1.3024-0.70866-4.0933-1.2806-8.2133-2.1172-12.283-1.0268-4.1862-3.927-7.5114-6.4314-10.891-0.32423-0.52576-1.0129-0.031-1.4969-0.0613-1.1049 0.18061-2.2097 0.36123-3.3146 0.54185z" fill="#fceac9" style="paint-order:markers fill stroke"/> <path transform="translate(.82682 .023624)" d="m78.51 229.55c-2.0484 0.23015-4.0292 1.0351-5.6575 2.299-0.25991 0.20175-0.51098 0.41488-0.75226 0.63857" fill="none" stroke="#fceac9" stroke-width=".26458px"/> <path transform="translate(.82682 .023624)" d="m93.945 232.32c-0.61188 0.0609-1.2149 0.20984-1.7849 0.44068-0.68335 0.27677-1.317 0.67031-1.8855 1.1398-0.26038 0.21501-0.50752 0.44604-0.73956 0.69136" fill="none" stroke="#fceac9" stroke-width=".26458px"/> <path transform="scale(.26458)" d="m244.59 827.63c-1.9023 0.98468-3.1647 2.961-4.7122 4.421-5.8208 6.1065-10.279 13.795-11.676 22.18-0.71155 4.4716-0.20475 9.9053 3.7762 12.755 5.6679 3.9925 12.952 3.605 19.528 4.3874 5.1975 0.44531 10.408 1.403 15.503 2.3158 0.81091-0.48626-0.43014-1.4934-0.52845-2.1225-6.45-12.322-12.557-24.821-18.46-37.415-0.39465-1.1477-1.541-0.0884-1.8072 0.57364-2.6382 4.1226-4.2896 8.8873-4.5087 13.79-0.23788 0.3619-0.74775-1.0973-0.99831-1.5374-2.0072-4.4162-0.72303-10.023 3.0256-13.152 0.84432-0.88743 2.1773-1.2808 2.9613-2.1394-0.24127-1.4203-0.88098-2.9361-1.8472-4.0041-0.0794-0.0379-0.16791-0.0575-0.25599-0.0533z" fill="#fceac9" style="paint-order:markers fill stroke"/> <path d="m88.979 234.95s0.0044 0.0503-0.0151 0.12687c-0.02734 0.15026-0.10119 0.38522-0.32872 0.66783-0.63509 0.81253-1.5022 1.4112-3.4031 2.238-1.704 0.74363-4.0062 0.94648-6.5609 0.15601-1.6037-0.486-3.0632-1.2214-4.6471-2.0846-0.32889-0.22645-0.50907-0.40274-0.55523-0.49131-0.16074-0.1891-0.29288-0.36812-0.40501-0.52924-0.35603-0.50632-0.66784-1.0157-0.96955-1.5238-0.93279-1.567-1.7893-3.1746-2.68-4.906-1.0944-2.1266-2.1831-4.3498-3.2658-6.6752-1.2468-2.6779-2.4032-5.3145-3.4582-7.8029h-1e-6c-5.0422-12.125-8.0625-21.307-8.0625-21.307 0.55152-0.15294 1.103-0.30591 1.6545-0.45889 0 0 4.656 10.832 8.9469 20.623 1.2599 2.8215 2.4114 5.3688 3.5164 7.7423 0.83469 1.7928 1.9504 4.1337 3.198 6.6481 0.78451 1.5805 1.6206 3.2475 2.5146 4.8458h1e-6c0.27516 0.49038 0.53968 0.95553 0.82143 1.3772 0.09143 0.13483 0.16544 0.24406 0.23129 0.3201h2e-6c0.09322 0.0704 0.03916 0.0482-0.14261-0.10198h-4e-6c1.4726 0.85562 2.7685 1.5999 4.118 2.0544 2.0449 0.66482 3.7672 0.70164 5.0389 0.17012 1.7539-0.74782 2.562-1.1851 2.7955-1.5044 0.04342-0.10238 0.02737-0.028 0.02737-0.028 0.34748 0.22696 0.72203 0.39526 1.1263 0.44684 0.15858 0.0139 0.33491 0.0278 0.50486-3e-3z" fill="#d07f29" style="paint-order:markers fill stroke"/> <path transform="scale(.26458)" d="m458.22 820.11c-2.1201 0.10223-4.3176-0.12506-6.3909 0.32785-2.9683 2.7666-5.4203 6.0469-7.971 9.1938-2.7754 3.3161-4.8444 7.2115-5.8466 11.428-1.1367 4.6421-1.8178 9.4308-1.785 14.215 0.12673 0.82284-0.0325 0.40207-0.20962-0.15033-1.5402-4.6698-1.7842-9.6531-1.1279-14.505 1.1871-7.0998 5.8476-12.992 10.762-18.002 0.29397-0.49585 1.1293-0.9147 0.98249-1.559-1.0342-0.26395-2.1973 0.2921-3.2671 0.38552-5.7349 1.0885-11.399 2.6948-16.765 5.0013-0.94493 0.45392-0.50986 1.8082-0.79951 2.6362-1.6293 15.71-3.9158 31.375-7.4919 46.772-0.0939 1.0279 1.2156 0.75692 1.8478 0.83879 2.4777 0.30148 4.9197 1.029 7.4443 1.0775 14.015 1.1235 28.411 1.0245 41.977-3.0902 6.3807-1.9372 12.872-3.6242 19.014-6.2521 3.9681-1.78 7.288-4.8505 9.6948-8.4389 1.478-3.373 1.4688-7.1642 1.7995-10.773 0.22168-4.5998 0.99233-9.186 2.7388-13.461-0.88784-1.3718-2.307-2.4662-3.5188-3.6129-6.2768-5.5949-14.189-9.1843-22.45-10.61-6.1446-1.0787-12.404-1.4702-18.638-1.4223z" fill="#fceac9" style="paint-order:markers fill stroke"/> <path d="m114.82 183.22s6.9e-4 2e-3 2e-3 5e-3c0.0131 0.0303 0.0983 0.21047 0.11629 0.5674 0.0248 0.48058-0.0142 0.67417-0.0497 1.4214-0.0672 1.4215-0.0744 1.526-0.14158 2.9475-0.0845 1.8308-0.22377 4.8633-0.22058 7.7472 1.2e-4 2.3603-0.18643 4.7766-0.50329 7.5856-0.18242 1.6237-0.50114 3.6309-0.59212 5.3264-0.0719 1.2884-0.11978 2.628-0.20193 4.0178-0.13785 2.3374-0.3277 4.7926-0.5962 7.3135-0.29188 2.7438-0.67996 5.6285-1.2482 8.5456-0.48874 2.5275-1.1203 5.1937-2.151 7.7882-0.42345 1.2212-1.1706 2.6456-2.6172 3.6908-0.22545 0.14419-0.45564 0.27819-0.68988 0.40224-1.2091 0.64029-2.509 1.0065-3.7935 1.1519-1.8595 0.21397-3.6157 0.21028-5.2476 0.33893-2.048 0.16961-4.112-0.27773-5.8614-1.3224-1.3223-0.82474-2.3378-1.8564-3.2417-2.6974-0.43348-0.21905-0.86883-0.90985-0.95703-2.0373 0.18766-0.91468 0.54172-1.4363 0.75171-1.661 1.1124-1.7054 1.8042-3.666 2.2334-5.6038h1e-6c0.558-2.5655 0.91878-4.9378 0.95477-7.2634 0.02559-1.3879-0.12454-2.8162-0.08282-4.2409 0.0722-1.994-0.25015-4.269-0.44012-6.035-0.28627-2.6415-0.71395-6.091-0.91003-7.7162-0.48301-3.3144-0.73413-5.1682-0.73413-5.1682s0.45389 1.8137 1.2355 5.0782c0.39053 1.83 1.0157 4.7733 1.5468 7.6391 0.32358 1.7311 0.81003 4.001 0.8828 6.202 0.04172 1.2858 0.27771 2.6716 0.3424 4.2163 0.10011 2.4915-0.14264 5.0353-0.60438 7.7139v1e-5c-0.36681 2.1561-1.0681 4.406-2.3023 6.4914-0.23011 0.48687-0.45205 0.66778-0.34679 0.59508-0.15441-0.35553-0.0059-0.44267 0.14146-0.13564 1.0218 0.8707 1.9391 1.7821 2.9004 2.3108 1.2184 0.71409 2.7409 0.99063 4.2494 0.85098 1.7829-0.16829 3.5151-0.18165 5.15-0.38688 0.98891-0.12737 1.9549-0.39118 2.7916-0.84019 0.1622-0.087 0.31916-0.18084 0.47022-0.28167 0.64687-0.31766 1.0447-1.301 1.5406-2.3568 0.95557-2.3255 1.5817-4.8278 2.1182-7.2738 0.61122-2.8045 1.0737-5.6149 1.4587-8.3017 0.3532-2.4664 0.64372-4.8837 0.89053-7.1864 0.14523-1.3528 0.26196-2.6914 0.40661-4.0017 0.20511-1.8504 0.64108-3.8296 0.91978-5.3987 0.48813-2.7664 0.83525-5.0857 1.0086-7.3917 0.22175-2.9646 0.60867-5.8823 0.8661-7.7498 0.15036-1.0911 0.31929-2.2414 0.41948-2.923 0.11092-0.76111 0.16677-0.91257 0.1924-1.4016 0.0181-0.35192-0.0437-0.53134-0.0548-0.5672-1e-3 -3e-3 -2e-3 -5e-3 -2e-3 -5e-3z" fill="#d07f29" style="paint-order:markers fill stroke"/> <path d="m130.84 174.28s0.0293 1.6e-4 0.0871 7.7e-4c0.0777 8.1e-4 0.2093 2e-3 0.38953 6e-3 0.28322 6e-3 0.73236 0.0174 1.2732 0.0429 0.64175 0.0299 1.8794 0.0748 2.9826 0.30174 1.9395 0.39501 5.8197 1.1115 8.8499 3.1012 2.07 1.3666 4.2481 3.406 5.6032 6.2218 1.2745 2.6801 1.8673 5.915 1.4451 9.2771-0.48625 3.4314-2.2384 6.135-3.7789 8.9913-1.4372 2.7254-3.0772 5.3166-4.8409 7.9727-0.35122 0.52896-0.70336 1.0552-1.0505 1.5732-0.89671 1.3393-1.7905 2.6473-2.6758 3.9207-0.27522 0.39592-0.54957 0.78845-0.82404 1.1784-0.0756 0.10747-0.15135 0.21482-0.22726 0.32213v1e-5c0.0588-0.0683-0.12741 0.14788-0.0686 0.0796 0.0249-3e-3 0.0324-0.0165 0.023-0.0422-4e-3 8e-3 -1.1127 2.08-1.1169 2.0879-0.64078 1.235-1.2258 2.3414-1.6227 3.4759-0.29572 0.73068-0.28647 1.7786-0.39905 2.8966-0.0516 1.1627-0.33828 2.488-1.2001 3.6864-0.88953 1.1312-2.0163 2.0521-3.3246 2.6321-1.8067 0.763-3.8342 1.2142-5.3035 1.628-5.1722 1.4498-10.594 0.77021-12.883 0.47415-1.8153 0.0236-2.848-0.61864-3.4241-1.4295-0.27897-0.53182-0.15149-0.83222-0.15149-0.83222 0.65343-0.28642 1.4015-0.0587 1.5619 0.66858 0 0 0.39617-0.3142 0.19145-0.7764-0.0982 0.20874 0.53216-0.0101 2.0109 0.38791 2.7214 0.2291 7.6753 0.59686 11.985-0.79539 1.6647-0.52843 3.499-0.97031 4.974-1.6508 0.86917-0.37625 1.6354-1.0725 2.2846-1.913 0.41643-0.43516 0.48252-1.2966 0.59874-2.2806v-1e-5c0.0547-1.028 0.0684-2.2509 0.48552-3.5836 0.48394-1.416 1.135-2.7044 1.7404-3.885-5e-3 0.01 1.2154-2.2636 1.2102-2.2539 5e-3 -0.0452 0.0266-0.0792 0.0648-0.10166 6e-3 -0.0112 0.0438-0.078 0.0501-0.0892 9e-3 -0.013 0.21196-0.30626 0.221-0.31929 0.27223-0.39407 0.5415-0.78614 0.80657-1.1736 0.9337-1.3647 1.8082-2.6613 2.6335-3.9003-21.182 31.836 22.226-33.405 1.0433-1.5687 1.6847-2.5391 3.327-5.0894 4.7464-7.7304 1.5458-2.9414 3.2904-5.3797 3.6039-8.0356 0.39331-2.7796 3e-3 -5.5569-1.0363-7.9006-0.98475-2.2762-2.7801-4.1146-4.6144-5.4696-2.3201-1.7432-5.7667-2.6258-7.9998-3.2787-0.85061-0.25055-1.908-0.38499-2.7178-0.50469-0.43619-0.0629-0.85356-0.11974-1.2311-0.17046 5e-3 6.2e-4 -0.12661-0.017-0.12199-0.0164-0.0903-0.0121-0.17504-0.0244-0.25422-0.037-0.0358-6e-3 -0.0704-0.0114-0.1035-0.0171l1e-5 -1e-5c0.0214-0.20468 0.0967-0.93962 0.11807-1.1443 1.0259-0.72253 1.2249-0.56208 0.88249-0.24773-0.31768 0.29163-0.73118 0.28281-0.96099 0.23672 0.016 4e-3 0.0317-2e-3 0.0423-8e-3 0.0143-5e-3 0.0221-8e-3 0.0221-8e-3z" fill="#d07f29" style="paint-order:markers fill stroke"/> <path transform="rotate(-26.797 147.32 106.24)" d="m151.24 104.25s-0.37367 0.30916-1.1328 0.72699c-1.9438 1.0646-6.0289 2.3892-11.214 0.6605-0.86523-0.28844-1.6781-0.63924-2.4309-1.0282-5.3352-2.7096-7.4189-6.6449-7.4189-6.6449s3.6674 2.2613 8.5402 4.1488h1e-5c0.71035 0.2685 1.4551 0.53404 2.2187 0.78647 4.7087 1.5566 7.6504 1.7402 10.129 1.5101 0.82957-0.0752 1.3089-0.15981 1.3089-0.15981z" fill="#d07f29" style="paint-order:markers fill stroke"/> <path transform="translate(-.047247 .070871)" d="m142.8 60.434c0.57457-0.02613 1.1501-0.03079 1.725-0.01398 1.4551 0.04256 2.9021 0.22242 4.3506 0.36737 0.79826 0.07988 1.5997 0.14951 2.3849 0.31405 0.78519 0.16454 1.5588 0.42784 2.2299 0.8675 0.13436 0.08803 0.26426 0.18289 0.38901 0.28407" fill="none" stroke="#fceac9" stroke-width=".26458px"/> <path d="m133.17 101.07c-1.0807-0.56291-2.266-0.92407-3.477-1.0594-0.0714-8e-3 -0.14283-0.0152-0.21436-0.0216" fill="none" stroke="#fceac9" stroke-width=".26458px"/> <path d="m105.3 66.814c4.1752 2.44 9.2522 3.294 13.996 2.3541 2.2425-0.44429 4.4477-1.3 6.1829-2.7884 1.9591-1.6804 3.2273-4.1433 3.4573-6.7141l0.15085-0.46875" fill="none" stroke="#e9a04a" stroke-width=".26458px"/> <path transform="scale(.26458)" d="m486.51 226.71c-14.963 2.0382-30.331 1.9354-44.958 6.1488-14.454 3.802-28.216 9.9451-41.165 17.351-0.83101 0.41283-2.2691 1.8142-1.1083 2.6171 8.9585 5.1822 19.129 8.1508 29.385 9.3055 6.4118 0.27378 12.888 0.36284 19.26-0.48639 11.284-1.8396 22.818-6.2252 30.313-15.235 4.5762-5.4922 7.7079-12.288 8.5747-19.405 0.0849-0.0892-0.19069-0.40799-0.30186-0.29594z" fill="#e9a04a" stroke="#e9a04a" stroke-dashoffset="4.7811" stroke-width=".67344" style="paint-order:markers fill stroke"/> <path transform="scale(.26458)" d="m539.76 228.69c-5.929 0.17859-11.471 3.0915-16.195 6.4837-10.446 8.3862-19.131 18.702-29.097 27.621-9.132 8.3137-19.07 17.152-31.726 19.109-4.6863 0.68121-9.5029 0.68752-14.148-0.25251-1.9481-1.0404-1.4006-0.47779 0.44573 1.5939 9.5458 7.6604 19.993 14.279 28.721 22.91 1.8507 1.5585 2.5368 4.11 4.3349 5.6325 0.96218-0.0946 0.52942-1.6535 1.121-2.2084 1.4162-3.2494 4.5636-7.1293 8.275-7.6158 1.6008 1.5706 1.591 4.6095 2.2824 6.6881 1.8064 8.052 1.7338 16.625-1.1735 24.4-0.32967 0.4813-0.84323 2.3163 0.35735 1.7149 1.9707-1.1822 6.0116-1.8002 7.2768 0.59012 1.0061 4.5391 0.0991 9.4588-0.22979 14.058-1.1169 8.2275-3.8784 16.196-7.3116 23.748-0.58132 1.5169-1.9737 2.7489-2.2619 4.3525 2.5201 0.9266 5.4327 0.9828 7.959 2.0759 3.5896 1.8574 7.8292 0.81494 11.699 1.1175 2.997-5.3905 7.8887-9.6179 11.419-14.732 16.324-21.894 25.528-47.917 35.318-73.132 4.0847-10.975 8.9443-21.642 13.257-32.527 3.6582-8.9141 4.1802-18.914 1.9887-28.252-0.9115-1.316-3.0625-0.88245-4.4434-1.3581-9.2313-1.2352-18.551-1.9848-27.867-2.018z" fill="#fceac9" stroke="#fceac9" stroke-dashoffset="4.7811" stroke-width=".95238" style="paint-order:markers fill stroke"/> <path transform="translate(5.6194 -2.56)" d="m144.35 105.27s-1.4088 0.63243-3.7034 1.0183c-1.5609 0.26224-3.4779 0.39285-5.5652 0.1516-0.49776-0.0575-0.98334-0.13377-1.4542-0.22469-4.4379-0.85635-7.3245-2.9408-7.3245-2.9408s3.5107-0.18418 7.713 0.18096c0.45548 0.0395 0.9214 0.086 1.3943 0.14062 1.9215 0.22208 3.8161 0.56533 5.2576 0.85167 2.1914 0.43546 3.6823 0.82237 3.6823 0.82237z" fill="#d07f29" style="paint-order:markers fill stroke"/> <path d="m143.71 108.16s-2.5926 5.1078-8.2796 11.486c-2.3975 2.6898-5.3544 5.585-8.8892 8.241-0.57788 0.4337-1.1695 0.85976-1.7749 1.2777-3.9205 2.7065-7.9224 4.73-11.538 6.248-8.4685 3.558-14.666 4.4037-14.666 4.4037s5.823-2.2188 13.702-6.4306c3.3752-1.8053 7.1235-3.9848 10.876-6.5761 0.56378-0.38935 1.1326-0.79615 1.7042-1.2206 3.0904-2.2923 5.9958-4.9026 8.7724-7.7301 4.4476-4.5311 7.1625-8.1438 9.2781-10.647 1.7638-2.0871 0.81499 0.94828 0.81499 0.94828z" fill="#d07f29" style="paint-order:markers fill stroke"/> <path d="m137.9 101.1s-1.2593 0.35924-2.1291 0.28599c-0.9072-0.0764-1.3013-0.54149 0.13761-2.0942 1.9773-2.1337 4.3794-5.5015 6.4887-9.9187 2.2057-4.6186 3.7905-9.0911 5.9745-14.737 1.0999-2.862 2.6707-5.5082 3.1429-8.2856 0.24806-1.3868 0.21293-2.8235-0.0357-4.2122-0.29703-1.6013-0.75218-3.1155-1.5742-4.3616-0.2157-0.31867-0.43287-0.6326-0.65631-0.93499-0.77821-1.0532-1.6393-1.973-2.72-2.3615-1.1469-0.49325-2.5873-0.24797-3.9961 0.09757-1.1828 0.2983-2.2852 1.0615-3.4157 1.8361v1e-6c-1.152 0.81525-2.3583 1.6738-3.821 2.1928-6.0098 2.0416-11.994 1.5797-16.711 2.6209-5.6237 1.2376-9.8288 3.4473-12.307 4.8265-2.4202 1.3472-1.2939-0.65999-1.2939-0.65999s4.2093-3.9659 13.118-6.3282v-1e-6c4.8309-1.2726 10.908-0.97281 16.317-3.0297 0.96455-0.32407 1.9067-1.0711 3.113-1.9077 1.1034-0.82715 2.4906-1.7469 4.2778-2.2829 1.5747-0.51218 3.6064-0.75076 5.7674-0.02014 1.766 0.78617 3.0601 2.0059 4.0062 3.294 0.26918 0.36649 0.50801 0.73551 0.72002 1.0973 1.111 1.762 1.6839 3.6528 1.968 5.4168 0.30379 1.7237 0.31092 3.4877-5e-3 5.1994-0.68828 3.3902-2.452 6.4449-3.4018 8.7441-2.553 6.2961-3.9454 10.047-6.2245 14.765 0 1e-6 0 1e-6 -1e-5 2e-6 -3.4644 7.1724-6.7408 10.757-6.7408 10.757z" fill="#d07f29" style="paint-order:markers fill stroke"/> <path d="m85.365 40.984s0.199 0.62271 0.6088 1.6829c0.68961 1.7843 1.935 4.5978 4.1487 7.6543 1.0232 1.419 2.175 2.776 3.5226 4.2782 0.39433 0.43959 0.79156 0.87263 1.1808 1.2924 1.789 1.9222 3.4453 3.5857 4.8961 4.9904 2.5541 2.6273 5.462 3.7845 5.462 3.7845s0.24119 0.75147 0.20864 1.3985c-0.0336 0.66906-0.31205 1.1424-1.0188 0.84257-0.54722-0.23215-4.3848-1.8729-6.5456-3.8152-1.7788-1.6707-3.4257-3.4059-5.0808-5.2173-0.42638-0.46544-0.83137-0.91251-1.2352-1.3628-1.4127-1.5753-2.5842-3.1914-3.5058-4.8573-2.0018-3.6293-2.4972-6.9643-2.6169-8.8612-0.07314-1.1595-0.02458-1.81-0.02458-1.81z" fill="#d07f29" style="paint-order:markers fill stroke"/> <path d="m60.605 54.314s4.9146-1.4695 12.124-1.1631c1.6122 0.06728 3.3805 0.23207 5.1853 0.62078 0.44557 0.09645 0.89231 0.20677 1.3392 0.33148 3.2166 0.89756 5.9408 2.3961 8.0958 4.0552 4.8511 3.7357 6.3691 7.5754 6.3691 7.5754s-2.7205-3.0117-7.591-5.7344c-2.1937-1.2266-4.7496-2.3313-7.6434-3.1389-0.40287-0.11243-0.80414-0.2168-1.2036-0.31329-1.6051-0.38968-3.2662-0.66622-4.792-0.90068-6.8036-1.0399-11.884-1.3324-11.884-1.3324z" fill="#d07f29" style="paint-order:markers fill stroke"/> <path transform="rotate(-10.654 72.128 58.521)" d="m62.986 52.456s2.1105-0.27452 5.2745 0.4944c1.9637 0.4775 4.2297 1.3633 6.4172 2.8903 1.0616 0.74106 2.1542 1.6113 3.232 2.623 1.5578 1.5109 2.6173 3.368 3.3126 4.5719 0.72097 1.2484 1.1849 1.9937 1.1849 1.9937-0.6165-0.14013-1.2462-0.32368-1.8787-0.52086 0 0-0.46697-0.35481-1.2382-1.1145-0.4936-0.48623-2.08-2.1934-3.1964-2.9835-0.88249-0.66507-1.9206-1.4305-3.0548-2.2223-1.9983-1.395-3.7855-2.5033-5.4718-3.4391-2.6377-1.4638-4.5811-2.2931-4.5811-2.2931z" fill="#d07f29" style="paint-order:markers fill stroke"/> <path transform="translate(.56696 .85045)" d="m84.747 40.326s0.52306 2.3566 1.1048 5.5466c0.22371 1.2202 0.45247 2.5562 0.71045 3.9337 0.03787 0.20219 0.07571 0.40157 0.11405 0.59953h1e-6c0.8842 4.6028 2.2325 8.6061 2.2325 8.6061s-0.94534 0.49822-1.4573 0.02095c-1.2596-1.1742-2.7621-4.1888-3.5686-8.0251-0.04682-0.22412-0.09121-0.44932-0.13345-0.67575-0.28908-1.5496-0.31348-3.0359-0.22354-4.3364 0.23539-3.4454 1.2212-5.6697 1.2212-5.6697z" fill="#d07f29" style="paint-order:markers fill stroke"/> <path transform="translate(0,1.5875)" d="m101.45 48.839s0.41585 2.7646 0.59315 5.8733c0.0203 0.35575 0.037 0.72095 0.0482 1.0922 0.0763 2.5302 1.0899 4.8157 1.0079 6.0173-0.037 0.54263-1.2318 0.97488-1.2318 0.97488s-2.507-2.5829-2.6373-6.9058c-0.01259-0.41736-3.73e-4 -0.82676 0.03247-1.2247 1e-6 0 1e-6 -1e-6 1e-6 -1e-6 0.30141-3.6481 2.1875-5.827 2.1875-5.827z" fill="#d07f29" style="paint-order:markers fill stroke"/> <path transform="translate(.80888 2.5931)" d="m106.23 56.604s-5e-3 0.18779-0.0211 0.49537c-0.0282 0.54264-0.1038 2.5984-0.34265 3.7511-0.19698 0.95065-0.59025 1.993-0.8569 2.7109-0.28391 0.76435-0.50313 1.3308-0.50313 1.3308s-0.47877-0.37823-0.92044-1.19c-0.44288-0.81398-0.81098-2.0522-0.52432-3.4335 0.42636-2.0545 1.9575-3.1146 2.7006-3.4741 0.28808-0.13895 0.46802-0.1906 0.46802-0.1906z" fill="#d07f29" style="paint-order:markers fill stroke"/> <path transform="matrix(.96122 0 0 1 2.5197 -.28348)" d="m55.231 68.836s0.24606-0.54112 0.94868-1.3569c0.9506-1.0997 2.6555-2.4849 5.4289-3.3364 1.9181-0.59543 3.9169-0.86451 6.2131-1.043 1.041-0.08358 2.1162-0.15149 3.2172-0.19842 9.4333-0.40209 17.09 0.90475 17.09 0.90475s-7.5981 1.5559-16.968 1.9553c-1.0963 0.04673-2.1696 0.07542-3.2096 0.08982-2.3751 0.03887-4.0368 0.0033-5.9117 0.23894-2.6114 0.33624-4.2839 1.0217-5.5119 1.7912-0.86633 0.54054-1.2965 0.95476-1.2965 0.95476z" fill="#d07f29" style="paint-order:markers fill stroke"/> <path transform="translate(.91784 .29732)" d="m55.01 67.793s0.01594-3e-3 0.04654-0.0088c0.04975-0.0093 0.14029-0.02625 0.26368-0.04868 0.19372-0.03521 0.49776-0.0895 0.84902-0.1464 0.46285-0.07498 1.2422-0.21716 1.899-0.20667h1e-6c2.1043 0.01754 4.7687 0.55991 6.5693 0.63782 0.06422 0.0028 0.1294 0.0052 0.19545 0.0073 2.2555 0.0709 5.608 0.26834 8.4463 0.44424 2.9054 0.2262 5.2485 0.33702 5.2485 0.33702s-2.2781-0.43687-5.1177-0.97789c-3.1828-0.556-5.7975-0.98351-8.5174-1.047-4.58e-4 -1.1e-5 -0.06673-0.0016-0.06719-0.0016-1.9022-0.0462-4.5249-0.24123-6.8162 0.09105l-1e-6 1e-6c-0.72002 0.10655-1.458 0.37149-1.8993 0.52273-0.33783 0.11499-0.6228 0.21868-0.80749 0.28697-0.11683 0.0432-0.20188 0.07536-0.24887 0.0932-0.02882 0.01095-0.04381 0.01669-0.04381 0.01669z" fill="#d07f29" style="paint-order:markers fill stroke"/> <path d="m71.951 231.41c-0.0138 0.44246-0.02856 0.88487-0.04428 1.3272 0 0-2.6837-0.22011-5.8455-0.0714-1.0529 0.0579-2.2812 0.14186-3.6097-0.0507-1.4647-0.18752-2.8208-0.88955-3.7901-2.0114-0.37239-0.47672-0.62893-0.9687-0.79916-1.4346-0.20311-0.55591-0.31948-1.1741-0.31519-1.8264 4e-3 -1.0421 0.23953-2.0427 0.64261-2.9952 0.78369-1.882 2.0006-3.4133 3.3207-4.5811 1.9879-1.7617 3.8275-2.416 3.8275-2.416 0.10351 0.30549 0.21097 0.60919 0.32232 0.91102 0 0-1.4521 0.93288-2.8493 2.6764-0.95969 1.2042-1.7665 2.624-2.1991 4.1741-0.21028 0.78407-0.32086 1.4559-0.27228 2.05 0.03207 0.35932 0.09548 0.67968 0.18188 0.95189 0.07213 0.22725 0.1721 0.45857 0.31861 0.6563 0.30954 0.53622 1.0452 0.96245 2.0201 1.2685 0.91792 0.2672 2.0208 0.3115 3.1338 0.40723 3.2989 0.27047 5.957 0.96413 5.957 0.96413z" fill="#d07f29" style="paint-order:markers fill stroke"/> <path d="m174.14 196.44s1.2262-1.4682 1.3145 1.5276c0.0371 1.2606-0.0449 2.9253-0.33334 4.855-0.54583 3.8616-2.0415 8.9783-5.7111 13.124-2.274 2.4818-5.0475 4.2544-7.9012 5.5211-1.1101 0.49273-2.2259 0.89135-3.319 1.211-7.0811 2.1161-13.352 1.2857-17.328 0.17305-4.047-1.1325-6.0419-2.4696-6.0419-2.4696 0.30629-0.64334 0.60928-1.2881 0.90897-1.9342 0 0 2.6775 1.3685 6.8915 2.1764 4.4451 0.85218 9.6098 0.84317 14.708-0.67735 1.0614-0.32074 2.0695-0.69034 3.0159-1.1087 2.7814-1.2295 5.1474-2.7761 6.9854-4.7323 3.4062-3.5601 4.9538-8.5088 5.7184-11.623 0.9098-3.7154 1.0915-6.0425 1.0915-6.0425z" fill="#d07f29" style="paint-order:markers fill stroke"/> <path d="m118.11 93.102s-0.68653-3.5345-3.7833-7.5081c-1.4078-1.8035-3.3303-3.6477-5.7467-4.9815-0.82871-0.44935-1.7209-0.84621-2.6442-1.148-1.5932-0.52069-3.1557-0.71917-4.6232-0.5265-2.4456 0.24716-5.0089 1.7355-6.8211 2.7891-3.5133 2.0712-5.6489 3.6329-5.6489 3.6329s1.5414-2.1518 4.7126-4.9248c1.6246-1.4395 4.099-3.4146 7.3256-4.1093 1.9196-0.36739 3.9558-0.22856 5.9371 0.40346 1.1493 0.36661 2.2168 0.8792 3.1759 1.4829 2.799 1.7385 4.7289 4.1064 5.9466 6.3295 2.6998 4.9213 2.1698 8.5602 2.1698 8.5602z" fill="#8b5322" style="paint-order:markers fill stroke"/> <path d="m133.35 221.59s-0.0221-0.0448-0.0632-0.12982c-0.30754-0.36581-1.7981-2.1774-4.3888-3.2448-1.6107-0.67795-3.4304-0.99944-5.6295-1.13-0.0734-4e-3 -0.14698-8e-3 -0.22073-0.0117-2.4042-0.11942-4.4736 0.0376-6.3189 0.42979-3.1549 0.66852-5.0494 1.813-5.0494 1.813s1.6525-1.4942 4.8747-2.4846c1.8634-0.57156 4.0578-0.8754 6.5434-0.74895 0.0765 4e-3 0.15289 8e-3 0.22901 0.0128 2.273 0.13205 4.2331 0.61056 5.8792 1.4664 2.6823 1.4166 3.8901 3.5193 4.1038 3.886 0.0272 0.0939 0.0405 0.14192 0.0405 0.14192z" fill="#d07f29" style="paint-order:markers fill stroke"/> <path transform="translate(.093544 -.14032)" d="m115.59 226.67s-0.0462-0.0232-0.13516-0.0725c-0.0162-0.013-0.0353-0.0293-0.0579-0.0497-0.17243-0.46058-0.59283-1.7367-0.47458-3.4769 0.0452-0.61296 0.16642-1.2874 0.43385-1.9476 0.0707-0.17443 0.14694-0.34555 0.22983-0.51335 0.40667-0.8088 0.95595-1.5157 1.4318-2.0731 0.78425-0.92662 1.4845-1.596 1.8934-1.8187 0.18915-0.10297 0.58033 0.45939 0.58033 0.45939s-0.7639 0.80451-1.7697 2.0459c-0.42212 0.52573-0.92937 1.1728-1.2557 1.8445-0.069 0.13714-0.13297 0.27934-0.19265 0.42683-0.22273 0.5505-0.37223 1.1429-0.48506 1.6931-0.30975 1.398-0.3211 2.5451-0.30936 3.184 9.3e-4 0.0509 2e-3 0.098 3e-3 0.14005 5e-3 0.0151 0.0103 0.0309 0.0157 0.0461 0.0593 0.0713 0.0919 0.11194 0.0919 0.11194z" fill="#d07f29" style="paint-order:markers fill stroke"/> <path d="m107.66 234.91s8e-3 0.0401 0.0113 0.0981c-0.0285 0.21039-0.268 0.55298-0.3648 0.42099-0.0157-4e-3 -0.032-9e-3 -0.049-0.0147-0.83065-0.28399-2.4417-1.131-4.3101-1.8834-0.81888-0.33601-1.6411-0.64005-2.4704-0.84266-0.44796-0.10944-0.88183-0.20071-1.3112-0.27077-3.3841-0.55779-6.0208 0.28558-6.0208 0.28558s2.3442-1.6648 6.1516-1.233h1e-6c0.46769 0.0541 0.93915 0.13996 1.4151 0.25556 0.93644 0.22744 1.8107 0.55122 2.5753 0.87173h1e-5c2.7436 1.173 4.3732 2.3126 4.3732 2.3126z" fill="#d07f29" style="paint-order:markers fill stroke"/> <path d="m97.555 239.6s-0.10188-0.19447-0.23474-0.54875c-0.20384-0.54357-0.46728-1.4463-0.49637-2.5739-8e-3 -0.27636-9.83e-4 -0.56557 0.02752-0.86239 0.07412-0.7718 0.27986-1.4554 0.55942-2.0267 0.56331-1.1431 1.2712-1.6102 1.2712-1.6102s0.50982 0.22149 0.4539 0.36095c-0.1154 0.28779-0.52684 0.8056-0.84606 1.5607-0.22548 0.52767-0.38556 1.1334-0.4496 1.8096-0.02529 0.26699-0.04898 0.53951-0.07088 0.79367-0.0975 1.1665-0.13891 1.8134-0.1789 2.5068-0.02139 0.3708-0.03547 0.5903-0.03547 0.5903z" fill="#d07f29" style="paint-order:markers fill stroke"/> <path transform="translate(.52917)" d="m89.794 228.14s0.15911 0.88531-0.16465 0.86139c-0.23318-0.0172-0.55258-0.0865-0.96336-0.16028-0.92326-0.16926-1.929-0.27058-3.3784-0.21607-0.71313 0.0279-1.4449 0.091-2.1675 0.20791-3.6197 0.58558-6.6337 1.1003-6.6337 1.1003s0.15483-0.0812 0.44146-0.2164c0.94054-0.4437 3.1524-1.3968 6.0338-1.863 0.77196-0.12489 1.5154-0.20244 2.214-0.24538h1e-6c1.5735-0.10059 2.7028 0.01 3.6041 0.21941 0.65857 0.1545 1.0142 0.31204 1.0142 0.31204z" fill="#d07f29" style="paint-order:markers fill stroke"/> <path transform="translate(-.20045 -.46772)" d="m86.707 236.52s-0.11003-0.50347-0.24467-1.2956c-0.11545-0.6794-0.24433-1.5705-0.41734-2.5358-0.01704-0.0953-0.03457-0.19133-0.05258-0.28822-0.32083-1.7258-1.7271-2.8406-1.8866-3.3839-0.04558-0.15531 0.87942-0.67998 0.87942-0.67998s1.5155 1.3728 1.9822 3.8826c0.01956 0.10519 0.03668 0.2099 0.05148 0.31397 0.14696 1.0463 0.06338 2.0066-0.03857 2.6866-0.12036 0.80796-0.27334 1.3003-0.27334 1.3003z" fill="#d07f29" style="paint-order:markers fill stroke"/> <path d="m90.77 225.41s-0.91588-1.2014-1.9652-3.2005c-0.52117-0.99284-1.0691-2.1772-1.5337-3.5017-0.02456-0.0701-0.04886-0.14043-0.07292-0.2111-0.44572-1.3097-0.81742-2.7866-1.0881-3.8183-0.56781-2.1646-0.97735-3.6312-0.97735-3.6312s0.80765 1.294 1.6662 3.4013c0.4798 1.1777 0.84303 2.2751 1.338 3.7287 0.02344 0.0688 0.04713 0.13754 0.0711 0.20616 0.43001 1.2321 0.93365 2.3942 1.4326 3.4548 0.7121 1.5134 1.3739 2.7225 1.6104 3.3319 0.12704 0.32744-0.48114 0.24005-0.48114 0.24005z" fill="#d07f29" style="paint-order:markers fill stroke"/> <path d="m64.007 224.73s-0.25047-0.24381-0.44831-0.77721c-0.19774-0.53312-0.31055-1.35 0.0369-2.204 0.09372-0.23034 0.21328-0.44147 0.35042-0.63024 0.90641-1.2397 2.0456-1.1939 2.0456-1.1939s-0.74953 0.70223-1.2492 1.6927c-0.08118 0.15974-0.15695 0.32754-0.22854 0.50428-0.26296 0.64915-0.40264 1.249-0.4638 1.7652-0.05879 0.49618-0.043 0.84313-0.043 0.84313z" fill="#d07f29" style="paint-order:markers fill stroke"/> <path d="m143.48 60.387s-1.083-0.0379-2.7221 0.6223v1e-6c-1.9484 0.77932-3.3739 2.0594-5.7258 4.4521-1.2739 1.3073-2.7941 2.8698-4.3528 4.2984-0.52962 0.48539-1.0589 0.9515-1.5925 1.3989-1.843 1.5564-3.6245 2.7166-5.6039 3.2583-5.0358 1.3559-7.6801-1.4006-7.6801-1.4006s2.9223 2.25 7.4714 0.7098c1.8095-0.6033 3.3844-1.7642 5.1808-3.309 0.51664-0.44748 1.0318-0.90916 1.5544-1.3883 1.578-1.4466 3.05-2.8835 4.4284-4.1739 2.4259-2.2906 4.1866-3.5474 6.2165-4.1456 1.758-0.51368 2.8257-0.3225 2.8257-0.3225z" fill="#d07f29" style="paint-order:markers fill stroke"/> <path d="m127.95 85.966s0.0265-1.8699-1.52-3.7516c-0.66922-0.826-1.4804-1.4249-2.541-2.2453-0.13602-0.10521-0.27039-0.20997-0.40383-0.31592v-1e-6c-3.2218-2.5342-5.1957-5.1121-5.1957-5.1121s2.605 1.9107 5.799 4.3308c0.13399 0.10056 0.27069 0.20364 0.40773 0.30869 1.0541 0.80808 1.9276 1.5914 2.5679 2.5757 1.5101 2.3514 0.88589 4.2097 0.88589 4.2097z" fill="#d07f29" style="paint-order:markers fill stroke"/> <path transform="matrix(.8753 -.022986 .018932 1.0627 14.365 -2.9336)" d="m130.39 80.802s-1.0321 0.93572-1.6782 2.1879c-0.13204 0.25588-0.24425 0.50412-0.3372 0.74951-0.37261 0.97744-0.42858 1.8883-0.42858 1.8883s-0.63145-0.74797-0.43388-2.1018c0.0485-0.32604 0.15077-0.66359 0.31813-0.98962 0.42894-0.83555 1.1222-1.3072 1.6625-1.5278 0.5393-0.2201 0.89725-0.20658 0.89725-0.20658z" fill="#d07f29" style="paint-order:markers fill stroke"/> <path d="m127.68 92.118s0.81772-1.2806 1.5086-3.2568c0.27722-0.79239 0.51776-1.6683 0.70127-2.6379 0.6414-3.3891 0.1301-6.2994 0.1301-6.2994s1.5696 2.6578 0.84439 6.4839c-0.19775 1.0432-0.54024 1.9739-0.94362 2.7676-1.0204 2.0061-2.2407 2.9425-2.2407 2.9425z" fill="#d07f29" style="paint-order:markers fill stroke"/> <path transform="rotate(5.642 130.65 89.755)" d="m132.19 88.541s-0.43314-0.09498-0.86015 0.18274c-0.14637 0.09118-0.27148 0.21852-0.41283 0.38418-0.11796 0.1403-0.23389 0.3112-0.37714 0.50116-0.1033 0.13866-0.2127 0.2794-0.32806 0.42006-0.97911 1.1938-2.0813 2.0221-2.0813 2.0221s0.26601-1.3727 1.3144-2.651c0.12021-0.14656 0.24447-0.2841 0.37032-0.4126 0.17502-0.18074 0.3633-0.35016 0.57896-0.49337 0.25055-0.16876 0.52134-0.26699 0.77671-0.2978 0.76116-0.08444 1.019 0.34455 1.019 0.34455z" fill="#d07f29" style="paint-order:markers fill stroke"/> <path transform="translate(.083522 1.186)" d="m128.81 99.49s0.38054-0.54868 0.74112-1.517c0.35475-0.94627 0.41649-1.4969 0.77123-2.8648 0.13067-0.50925 0.27791-1.0103 0.43882-1.5433 0.11856-0.39271 0.22584-0.74188 0.33317-1.1109v-1e-6c0.79766-2.737 1.102-4.9704 1.102-4.9704s0.49545 2.2345-0.17708 5.2088c-0.0869 0.38328-0.19068 0.7677-0.30863 1.1589-0.15913 0.52785-0.3392 1.0513-0.50264 1.523-0.40958 1.1924-0.73586 2.0294-1.2441 2.8092v1e-6c-0.60456 0.9235-1.1539 1.3065-1.1539 1.3065z" fill="#d07f29" style="paint-order:markers fill stroke"/> <path d="m105.52 72.681s-0.15025-0.07346-0.42125-0.19976c-0.41281-0.19246-1.1105-0.48465-1.9894-0.87836-0.70785-0.31136-1.6738-0.79178-2.5227-0.89351-0.11824-0.01747-0.23833-0.02905-0.36034-0.03504-0.8118-0.03988-1.6488 0.17318-2.3436 0.42304-1.7507 0.64322-2.783 1.5795-2.783 1.5795s0.61388-1.2914 2.4526-2.2991c0.72337-0.40197 1.6701-0.73515 2.7196-0.68904 0.15505 0.0068 0.30914 0.02185 0.46179 0.04521 1.1326 0.19808 2.0649 0.8212 2.7109 1.2726 0.85446 0.58868 1.348 0.98474 1.7402 1.3467 0.22205 0.20497 0.33521 0.32781 0.33521 0.32781z" fill="#8b5322" style="paint-order:markers fill stroke"/> <path d="m64.842 68.169s-2.0228 0.88523-4.9002 2.9886h-1e-6c-2.3452 1.7133-4.6637 3.8567-7.4788 6.9536l-1e-6 1e-6c-1.2509 1.3795-2.565 2.903-3.7389 4.5321-0.67167 0.93215-1.2769 1.8697-1.8098 2.8279-1.6196 2.9003-2.5657 5.9814-3.1689 8.5632-1.2634 5.3811-0.84574 9.1934-0.84574 9.1934s-0.79586-3.7462 0.20196-9.3261c0.47614-2.6541 1.3239-5.84 2.9653-8.8945 0.54167-1.004 1.1618-1.9817 1.8532-2.9427 1.2118-1.6845 2.5682-3.2137 3.8725-4.5776l1e-6 -1e-6c2.8997-3.0395 5.4382-5.141 7.8942-6.7031h1e-6c3.052-1.94 5.1552-2.6147 5.1552-2.6147z" fill="#d07f29" style="paint-order:markers fill stroke"/> <path transform="translate(.14174 .75595)" d="m50.835 77.848c-0.3271 0.30773-0.65853 0.60575-0.99384 0.89393 0 0 0.47256-2.0294 0.64056-4.5628 0.12212-1.8415 0.07846-3.6406-0.10288-5.3531-0.04883-0.46117-0.10499-0.88978-0.16374-1.2809-0.31118-2.0713-0.88924-4.3982-1.8368-6.8094-0.86747-2.2074-1.8213-3.8608-1.8213-3.8608s1.1362 1.5355 2.2295 3.6797c1.1727 2.2998 2.0122 4.7146 2.4005 6.7936 0.07421 0.39733 0.14112 0.83939 0.19612 1.3162 0.2061 1.7877 0.20665 3.6867 0.03416 5.5213-0.196 2.0846-0.58235 3.6622-0.58235 3.6622z" fill="#d07f29" style="paint-order:markers fill stroke"/> <path d="m43.895 92.979c-0.10415 0.17813-0.20737 0.35709-0.3094 0.53714-0.04572 0.08069-0.09112 0.16171-0.136 0.24326v1e-6c-0.01864 0.02386-0.03269 0.04499-0.04097 0.06233 0 0-0.01098-6e-3 -0.0017-0.03179-0.01274-0.02117-0.03353-0.05582-0.06173-0.10335-0.05171-0.08712-0.12416-0.21013-0.21606-0.36925-0.18004-0.31175-0.41677-0.73023-0.67649-1.2166h-1e-6c-0.57189-1.0647-1.0417-1.9807-1.3258-2.9837-0.0035-0.01268-7e-3 -0.02527-0.01043-0.03778-0.27482-1.0056-0.33841-1.9837-0.40205-3.2073-0.03155-1.109-0.05536-2.0026-0.05536-2.0026s0.24275 0.8667 0.5067 1.9406c0.28409 1.0378 0.61704 2.202 0.88006 2.9239 0.0034 0.0095 0.0082 0.02249 0.01164 0.03195 0.25701 0.73435 0.76362 1.8867 1.1898 2.8217 0.25791 0.56427 0.47074 1.0156 0.57959 1.2466 0.04385 0.09305 0.06821 0.14484 0.06821 0.14484z" fill="#d07f29" style="paint-order:markers fill stroke"/> <path transform="rotate(-10.021 73.1 101.86)" d="m78.704 109.18s-0.01488 0.0253-0.05355 0.0766c-0.18746 0.0999-0.85748 0.42038-1.8261 0.4182-0.23015-7e-3 -0.47299-0.0378-0.7194-0.10109-0.55198-0.14174-1.0034-0.41569-1.3317-0.71981-0.56386-0.52624-0.67906-1.0223-0.67906-1.0223s0.4392 0.23394 1.0428 0.43858c0.38195 0.13136 0.7321 0.21877 1.2137 0.34084 0.20912 0.053 0.40048 0.10226 0.59809 0.15408h1e-6c0.85309 0.2667 1.2762 0.35225 1.6786 0.4282 0.04651-7e-3 0.0767-0.0133 0.0767-0.0133z" fill="#c83737" fill-opacity=".97255" style="paint-order:markers fill stroke"/> <path transform="rotate(9.6798 85.101 112.74)" d="m83.666 106.23s0.02715-0.0286 0.0969-0.0315c-0.11556 0.0778-0.31679 0.24462-0.51593 0.64344-0.28006 0.32729-0.78606 0.9497-1.3593 1.3977-0.06279 0.049-0.1275 0.097-0.19411 0.14371-0.46988 0.3293-0.96045 0.54267-1.4145 0.66849-0.97464 0.2694-1.6463 0.12381-1.6463 0.12381s0.59497-0.32227 1.3409-0.81279c0.38251-0.25115 0.70624-0.48076 1.1509-0.79201 0.0023-2e-3 0.17424-0.12173 0.17653-0.12333 0.63756-0.4442 1.1037-0.75889 1.6513-1.0045 0.42398-0.0577 0.66701-0.16653 0.80353-0.2413-0.05012 0.0357-0.08982 0.0283-0.08982 0.0283z" fill="#c83737" fill-opacity=".97255" style="paint-order:markers fill stroke"/> <path transform="rotate(-3.2359 68.363 95.054)" d="m83.505 106.91s-0.55252 0.30614-1.5122 0.57374c-0.85789 0.23872-1.8007 0.37673-2.9951 0.46535-4e-5 1e-5 -0.01839 1e-3 -0.01843 1e-3 -2.4688 0.18268-4.5616 0.0945-4.5616 0.0945s1.9176-0.88832 4.4874-1.0835c5e-6 0 0.01886-1e-3 0.01887-1e-3 1.0032-0.0752 2.3534-0.0372 2.9921-0.0351 0.95867 4e-3 1.589-0.015 1.589-0.015z" fill="#c83737" fill-opacity=".97255" style="paint-order:markers fill stroke"/> <path transform="translate(0 -.52917)" d="m79.521 112.11s0.0082-6e-3 0.03251-0.0112c-0.05292 0.15995-0.87584 2.7987-3.4849 3.9063-0.28158 0.10367-0.5767 0.18653-0.88244 0.24517-1.003 0.19237-1.9649 0.0966-2.7778-0.16028h-1e-6c-2.1805-0.69028-2.8667-2.1223-2.8667-2.1223s1.1242 1.017 3.0588 1.3408c0.73209 0.12303 1.5522 0.12994 2.3991-0.0322 0.25936-0.0496 0.51098-0.11328 0.75344-0.1897h1e-6c2.6291-0.68088 3.5805-2.5512 3.79-2.988-0.01103 0.0102-0.022 0.0115-0.022 0.0115z" fill="#8b5322" style="paint-order:markers fill stroke"/> <path transform="translate(0 -.52917)" d="m92.134 111.14s-0.0026 0.28259-0.20666 0.74563c-0.17683 0.39925-0.50843 0.88809-1.0919 1.3412-0.42475 0.33108-0.91469 0.60452-1.4916 0.86433-0.89317 0.40957-1.9772 0.78215-3.1678 0.92397-1.0788 0.12851-2.0914 0.0489-3.0039-0.20433h-1e-6c-2.7329-0.77529-3.6108-2.581-3.6108-2.581s1.3511 1.3623 3.7956 1.7718h1e-6c0.83275 0.14518 1.7193 0.15234 2.6989 0.0294 1.0675-0.13394 2.1145-0.40662 3.0024-0.68252h1e-6c0.58197-0.18554 1.0448-0.35146 1.4765-0.58071 0.58718-0.31308 0.9643-0.65391 1.2191-0.98442 0.28992-0.37465 0.3802-0.64335 0.3802-0.64335z" fill="#8b5322" style="paint-order:markers fill stroke"/> <path d="m115.69 112.23s-0.10152-0.049-0.29408-0.1452c-0.55661-0.39853-2.1487-1.5228-4.4322-2.4261-1.4828-0.58494-3.1306-1.0279-5.0668-1.3703-0.0484-9e-3 -0.0968-0.017-0.14512-0.0254-5.7383-0.98885-10.513-0.34724-10.513-0.34724s4.6105-1.6585 10.68-0.63014c0.05 8e-3 0.10014 0.0171 0.15031 0.0259 1.9942 0.35032 3.7236 0.92966 5.1983 1.6695 2.2686 1.137 3.6872 2.5575 4.1651 3.0539 0.16767 0.12615 0.25746 0.1951 0.25746 0.1951z" fill="#8b5322" style="paint-order:markers fill stroke"/> <path d="m124.83 119.71s-1.6833-0.80214-4.3573-2.1095c-1.5452-0.75521-3.9389-1.9444-6.159-2.8536-1.0676-0.43787-2.1742-0.84773-3.3498-1.2534-1.0165-0.35082-2.0315-0.68023-2.9991-0.98761-6.5565-2.0814-11.605-3.3358-11.605-3.3358s5.1892 0.51129 11.879 2.4298c0.98695 0.28284 2.0135 0.59842 3.0492 0.95609 1.1913 0.41142 2.3192 0.8525 3.3939 1.3331v1e-5c2.3145 1.0365 4.502 2.3206 6.0433 3.2477 2.5551 1.5365 4.1051 2.5732 4.1051 2.5732z" fill="#8b5322" style="paint-order:markers fill stroke"/> <path d="m113.76 122.32s-0.0647-0.0418-0.18862-0.12446c-0.35675-0.35407-1.5067-1.5003-3.146-2.7277-1.1248-0.84113-2.5371-1.725-4.0258-2.7766-0.10692-0.0755-0.21389-0.15172-0.32101-0.22877-1.4103-1.0144-2.6702-2.023-3.7928-2.8501-2.3644-1.7428-4.0989-2.7778-4.0989-2.7778s1.929 0.61729 4.513 2.1529c1.2966 0.7709 2.4927 1.6157 3.9579 2.6699 0.14316 0.10301 0.17313 0.12461 0.3163 0.22762 1.5559 1.1183 2.7497 1.9832 3.8956 3.0525 1.5293 1.4277 2.4472 2.7882 2.7353 3.2246 0.10109 0.10241 0.15494 0.15804 0.15494 0.15804z" fill="#8b5322" style="paint-order:markers fill stroke"/> <path d="m48.207 117.97s0.26534-0.27279 0.78186-0.71761c0.92923-0.80004 2.3007-1.8185 4.4897-3.0009 1.2353-0.66823 2.6645-1.3573 4.2262-1.9239 0.03719-0.0135 0.07436-0.0269 0.11152-0.0402 1.8746-0.67009 3.662-1.0618 5.2614-1.2724 3.3451-0.44038 5.5846-0.10161 5.5846-0.10161s-2.2538 0.11916-5.4555 0.83341c-1.5452 0.34467-3.2335 0.81846-5.0558 1.474-0.03602 0.013-0.07206 0.026-0.10814 0.039-1.5078 0.54651-2.9453 1.1593-4.2041 1.7218-2.3119 1.0348-3.6273 1.7409-4.7402 2.4212-0.57689 0.35256-0.89161 0.56713-0.89161 0.56713z" fill="#8b5322" style="paint-order:markers fill stroke"/> <path d="m41.527 125.64s0.76352-1.3246 2.5518-3.0707h1e-6c1.8556-1.8096 4.2622-3.4628 7.7316-5.1732h1e-6c0.43043-0.21273 0.8687-0.42285 1.315-0.63038 2.142-0.99602 4.2447-1.8272 6.0928-2.5061 4.5186-1.6601 7.7175-2.4926 7.7175-2.4926s-3.0354 1.3033-7.4236 3.2238c-1.7689 0.77424-3.8778 1.7019-5.9687 2.6741-0.4418 0.20544-0.87598 0.40965-1.3045 0.61396h-1e-6c-3.5088 1.6769-5.8166 3.0005-7.8514 4.6384-1.9044 1.531-2.8606 2.7227-2.8606 2.7227z" fill="#8b5322" style="paint-order:markers fill stroke"/> <path d="m50.935 127.58s0.76251-2.1568 2.9512-4.773c1.1521-1.3754 2.368-2.4843 3.9309-3.9407-0.0062 6e-3 0.18161-0.16948 0.17545-0.16374 1.3568-1.2706 2.422-2.3002 3.7354-3.2361 2.9912-2.1275 5.4631-2.4963 5.4631-2.4963s-2.3223 0.85868-4.9894 3.1084c-1.1023 0.92795-2.2334 2.1243-3.5303 3.3465-0.05896 0.0557-0.1182 0.11124-0.17773 0.16678-1.4845 1.3849-2.9268 2.5787-4.0604 3.7148-2.3228 2.325-3.4982 4.2735-3.4982 4.2735z" fill="#8b5322" style="paint-order:markers fill stroke"/> <path d="m63.007 77.115s-0.03346 0.01184-0.10045 0.03325c-0.03037 0.0021-0.06792 0.0045-0.11293 0.0072-0.48549 0.02984-1.7851-0.05193-3.3242 0.06972-0.58706 0.04505-1.2064 0.1558-1.8408 0.34625-0.55344 0.16614-1.0644 0.37678-1.5282 0.6188-1.86 0.96933-2.8156 2.3419-2.8156 2.3419s0.32897-1.7247 2.3576-3.1022h1e-6c0.49249-0.3341 1.064-0.61728 1.701-0.80854 0.73054-0.21935 1.4535-0.28986 2.1194-0.25441 1.3744 0.07827 3.181 0.66436 3.3395 0.71131 0.03925 0.01219 0.07473 0.02302 0.10367 0.03178 0.06521 0.0029 0.10097 0.0049 0.10097 0.0049z" fill="#8b5322" style="paint-order:markers fill stroke"/> <path d="m128.21 175.57s-1.0223 0.0711-2.3646 0.65944c-0.96611 0.41936-1.8201 0.99982-2.9487 1.845-0.13308 0.0997-0.26702 0.20058-0.3975 0.29892-2.451 1.8627-4.3924 3.451-4.3924 3.451s1.2682-2.1965 3.7854-4.226c0.13173-0.10705 0.26743-0.21372 0.40703-0.31897 1.1507-0.86759 2.2661-1.4091 3.3475-1.6602 1.5721-0.35981 2.5634-0.0492 2.5634-0.0492z" fill="#d07f29" style="paint-order:markers fill stroke"/> <path d="m72.133 204.89s1.4028 0.56768 3.551 1.4445c1.2656 0.51509 3.0676 1.2643 4.7852 1.6891h1e-6c0.16765 0.0421 0.33718 0.082 0.50884 0.11996 1.2996 0.28742 2.7136 0.45694 3.873 0.60181h1e-6c3.2445 0.40197 5.5144 0.69685 5.5144 0.69685s0.29108 0.63745-0.14986 0.66823c-0.9494 0.0663-2.9874-0.10821-5.4426-0.38693h-1e-6c-1.2566-0.14143-2.6455-0.31225-4.0084-0.61241-0.1821-0.0401-0.36239-0.0834-0.54088-0.1302-1.8774-0.49617-3.5808-1.3865-4.8142-2.0764-1.307-0.73029-2.2956-1.3626-2.8232-1.7101-0.29523-0.1945-0.45341-0.30436-0.45341-0.30436z" fill="#d07f29" style="paint-order:markers fill stroke"/> <path d="m51.977 171.82s-0.02319 2.1202-1.6108 4.8435c-0.31022 0.55725-0.77674 1.2129-1.5463 1.7772-0.36587 0.25983-0.81191 0.46864-1.3328 0.58466-0.50677 0.1132-1.0693 0.0991-1.6447-0.079-0.50526-0.17796-0.94546-0.45625-1.2968-0.81285-0.20406-0.20712-0.37473-0.43721-0.5102-0.68337-0.37085-0.67425-0.51719-1.3668-0.50057-1.9997 0.05896-1.3469 0.54642-2.3642 0.93182-3.0796 0.45209-0.82214 1.1179-2.6883 1.3256-3.1911 0.34486-0.83489 0.6132-1.2838 0.6132-1.2838s1.0417 1e-3 1.0848 0.4272c0.04692 0.463 0.03925 2.7807-0.62469 4.8556-0.25261 0.83705-0.58192 1.6228-0.52302 2.1758 0.01766 0.26362 0.05872 0.50413 0.15724 0.64668 0.03331 0.0474 0.06913 0.0936 0.10459 0.13311 0.06124 0.0682 0.11657 0.11876 0.15744 0.12808 0.04155 0.0329 0.14146 0.0462 0.25583 0.0516 0.12279 4e-3 0.28056-0.0394 0.45072-0.10449 0.36898-0.12788 0.78071-0.50165 1.2005-0.87637 2.0132-1.8832 3.3081-3.5132 3.3081-3.5132z" fill="#d07f29" style="paint-order:markers fill stroke"/> <path d="m88.799 60.53s-0.09239-0.03473-0.21642-0.1223c-0.20603-0.14558-0.49715-0.45081-0.53126-0.89586-0.05778-0.75396 0.58317-1.1202 0.58317-1.1202s0.37057 0.58286 0.40586 1.0445c0.02283 0.29867-0.08892 0.65107-0.16003 0.86596-0.04494 0.13587-0.08133 0.22785-0.08133 0.22785z" fill="#d07f29" style="paint-order:markers fill stroke"/> <path d="m130.57 149.48s-0.86272-0.36342-2.1361-0.9286c-1.0632-0.4718-3.0949-1.3686-4.6452-2.1349-3.4136-1.6873-6.5501-3.5356-6.5501-3.5356s3.6601-1.087 7.8188 0.96912c1.9983 0.98799 3.4059 2.4011 4.2872 3.5741 0.88738 1.1817 1.2254 2.0559 1.2254 2.0559z" fill="#d07f29" style="paint-order:markers fill stroke"/> <path transform="rotate(6.0888 124.15 162.38)" d="m128.87 148.61s-0.7725-0.87845-2.0336-2.2111c-1.5729-1.6622-3.3652-3.4059-5.9182-5.6418-4.4532-3.8999-8.8234-6.8672-8.8234-6.8672s-0.33242-1.104 0.48797-0.98779c2.3267 0.32952 6.4625 2.4077 10.222 5.701 2.6927 2.3588 4.2638 5.06 5.1204 7.0906 0.74341 1.7636 0.9448 2.9162 0.9448 2.9162z" fill="#d07f29" style="paint-order:markers fill stroke"/> <path d="m130.79 175.54c-0.41287-0.21885-0.82838-0.42933-1.2463-0.63216 0 0 0.25583-2.0544 0.23493-5.0379-0.0301-4.0586-0.97238-8.0136-2.527-11.68-1.035-2.4414-2.1965-4.6483-3.3819-6.5987-3.166-5.1946-6.2782-8.3728-6.2782-8.3728s4.0754 1.9232 8.191 7.0207c1.5289 1.8896 2.9871 4.1771 4.1095 6.8335 2.0355 4.8175 2.3527 9.3475 2.0072 12.795-0.36487 3.5768-1.1092 5.6729-1.1092 5.6729z" fill="#d07f29" style="paint-order:markers fill stroke"/> <path d="m71.637 184.58s-1.7447-0.67701-4.2653-2.449c-1.8434-1.2928-4.3047-3.3752-6.0207-6.3978 1e-6 0-1e-6 -1e-5 -1e-6 -1e-5 -1.4634-2.6024-2.2862-5.774-2.2713-9.1955 0.30613-2.6953 1.2595-5.389 2.8598-7.8679v1e-5c-0.39049 1.2784-0.65963 2.6202-0.81215 4.0074-0.25107 0.53836-0.54739 1.176-1.0249 1.8466-0.47962 0.70781-1.2466 1.3157-2.2734 1.6341-0.6702 0.17025-1.3436 0.15332-1.9632-0.0293-0.62458-0.18503-1.1722-0.50027-1.6173-0.90726-0.89568-0.85062-1.3936-1.9026-1.556-2.9235-0.25965-1.5734 0.01084-3.051 0.50448-4.2609 0.41065-1.0302 0.9292-1.929 1.4147-2.6893 0.13652-0.21377 0.2751-0.42377 0.41575-0.633 2.3001-2.6042 5.1265-5.4754 8.3347-8.4787-1.3219 2.5241-3.0922 4.7274-5.2342 6.4406h-3e-6c-1.2642 0.7251-2.5189 1.7999-4.0412 2.6533h-3e-6c-0.65429 0.38745-1.4583 0.74512-2.4074 0.85545-0.93416 0.0811-1.8333-0.28664-2.4516-1.001h-4e-6c-0.39914-0.50897-0.58997-1.1034-0.5848-1.6884 0.01538-0.63181 0.17732-1.1821 0.39104-1.6392 0.54099-1.1817 1.3209-2.1404 2.0649-2.9493 1.2128-1.1229 2.363-2.1852 3.4309-3.1699 4.3315-4.1141 7.2853-6.8907 7.2853-6.8907 0.3534 0.5173 0.70666 1.0347 1.0598 1.5523 0 0-2.794 2.7161-6.9278 6.742 0.12271-0.11575-3.4651 3.2699-3.3423 3.1541-0.65328 0.75337-1.2946 1.5228-1.6394 2.3488-0.12766 0.31993-0.23325 0.59706-0.2244 0.80991-0.0023 0.14041 0.02794 0.29341 0.09408 0.36467v1e-5c0.07721 0.16317 0.361 0.27536 0.60227 0.25597 0.44504-8e-3 0.96026-0.2755 1.5558-0.58565h2e-6c1.2719-0.70277 2.5026-1.7746 3.9885-2.6567h3e-6c2.4793-1.1216 4.6285-2.6951 6.3512-4.5595-2.5395 3.4643-4.7234 6.7116-6.5411 9.6048-0.07243 0.10593-0.14369 0.21048-0.21424 0.31477-0.53171 0.78606-1.0961 1.6614-1.4843 2.5973-0.39954 0.97011-0.66005 2.089-0.48575 3.1794 0.11242 0.69487 0.39405 1.3982 0.9078 1.88 0.24876 0.23657 0.54877 0.42593 0.87575 0.52914 0.32145 0.10166 0.67408 0.12549 1.002 0.0477 0.51585-0.11154 0.97683-0.48918 1.3443-0.94513 0.36241-0.4555 0.62765-1.0002 0.92535-1.5568 0.70644-1.1654 1.4921-2.2986 2.3523-3.3842h2e-6c-1.0951 2.5598-1.7078 5.3082-1.8156 8.0355-0.15004 3.2432 0.47781 6.2897 1.763 8.8405h2e-6c1.4985 2.9719 3.8078 5.1383 5.5649 6.5115 2.4046 1.8809 4.1096 2.6528 4.1096 2.6528z" fill="#d07f29" style="paint-order:markers fill stroke"/> <path d="m82.527 106.73c-2.2408 0.38222-4.5267 0.53228-6.7826 0.84109-0.26881-0.0159-0.41244 0.28464-0.07164 0.2825 1.0349 0.14597 2.0715 0.31765 3.1119 0.41858 1.0773-0.0323 2.1754-0.2608 3.0046-0.82465 0.29253-0.22729 0.79321-0.37846 0.94966-0.67445-0.03714-0.0696-0.13904-0.0475-0.21186-0.043z" fill="#de8787" fill-opacity=".97255" style="paint-order:markers fill stroke"/> <path d="m114.67 85.824s1.2212 2.9671 0.64527 7.657v2e-6c-0.21075 1.6774-0.7706 3.5556-1.8577 5.3804-0.77653 1.3054-1.8573 2.5729-3.2618 3.5564h-1e-5c-1.312 0.93044-2.9359 1.7815-4.753 1.9462-0.99258 0.0887-2.0917 0.22678-3.2115 0.10598-0.39138-0.0473-0.77243-0.13304-1.1431-0.24837-0.68491-0.21311-1.3236-0.52396-1.9106-0.86405-2.9179-1.7432-4.9043-4.4607-6.0999-7.0882-1.5874-3.4651-1.7765-6.7522-1.1565-9.3295l1e-6 -1e-6c1.2208-3.9852 3.2773-5.6724 3.2773-5.6724s-1.9027 1.859-2.8674 5.7729l-1e-6 1e-6c-0.46999 2.52-0.1227 5.613 1.4852 8.8785 1.225 2.4718 3.1522 5.0071 5.8559 6.5857 0.55372 0.3084 1.128 0.58963 1.7145 0.77523 0.31767 0.10053 0.63666 0.17231 0.95744 0.20658 0.95775 0.11715 1.9989-0.0131 3.0217-0.0856 1.5579-0.10542 3.0586-0.87096 4.3377-1.7057 1.3106-0.86615 2.3567-2.017 3.1348-3.2178 1.0949-1.6925 1.7149-3.4613 2.001-5.0682v-1e-6c0.81714-4.5047-0.16917-7.585-0.16917-7.585z" fill="#222b00" style="paint-order:markers fill stroke"/> <ellipse cx="104.04" cy="90.696" rx="8.9769" ry="10.182" fill="#8a0" style="paint-order:markers fill stroke"/> <path transform="scale(.26458)" d="m426.21 352.03c-0.59771 0.41888-0.48377 1.3502-0.76091 1.9746-1.966 7.1103-5.7595 13.793-11.29 18.746-5.1077 4.6061-11.734 7.6729-18.599 8.1932-3.5078 0.17395-7.0817-2e-3 -10.476-1.035-7.2393-1.9809-13.446-6.8558-17.888-12.827-1.296-1.7049-2.2621-3.6138-3.3865-5.4094-0.65184-8e-3 -0.9021 1.0198-1.3676 1.4555-1.4866 2.1407-2.8469 4.4133-3.8692 6.7972 1.324 2.1309 2.9242 4.1669 4.5388 6.1211 5.2622 6.2187 11.826 11.613 19.58 14.354 4.4932 1.6229 9.3379 1.0715 13.993 0.73562 3.2558-0.19253 6.5051-0.76811 9.5187-2.0531 7.1824-2.9574 13.77-7.634 18.409-13.918 4.2766-5.6988 7.382-12.279 9.0319-19.212-0.27663-0.64405-1.2023-0.81071-1.7715-1.2109-1.8362-0.92476-3.6575-1.8912-5.543-2.7099l-0.11369-4e-3z" fill="#aad400" style="paint-order:markers fill stroke"/> <path d="m94.683 98.09c1.3153-3.0977 4.0989-5.5334 7.3438-6.4259 3.435-0.94482 7.1433-0.19618 10.409 1.2277 0.81889 0.35703 1.6196 0.75573 2.398 1.194" fill="none" stroke="#222b00" stroke-width=".26458px"/> <path transform="scale(.26458)" d="m386.63 297.9c-6.527 0.0299-12.836 2.1212-18.672 4.9061-3.0186 1.4203-5.9633 3.0049-8.8403 4.6867-5.0428 6.0771-8.3806 13.447-10.265 21.082-1.8365 9.1225-0.52088 18.653 2.6682 27.325 1.6668 4.4971 3.7289 8.8752 6.3485 12.897 0.56184 0.30728 0.72615-0.62596 1.0057-0.94307 2.9646-5.6869 7.2923-10.575 12.314-14.537 1.1496-0.95039 2.5294-1.6368 3.6254-2.6231-1.5594-5.0918-1.8474-10.567-0.64392-15.792 1.4353-6.2041 5.1682-12.126 10.73-15.349 4.8742-2.8652 2.9182 8.6962 8.119 10.937 6.1195 2.5288-5.0632 1.4406-2.8665 7.5984 1.2208 3.3377 11.289-0.8897 11.156 2.6666 0.0402 1.3971 5.5314 2.7944 5.5085 4.1749 0.75258 0.50498 10.646 2.9358 11.518 3.2977 5.2488 1.8043 10.313 4.0979 15.182 6.7547 0.65524 0.0113 0.40986-0.95309 0.60301-1.3552 1.5863-8.7034 1.8688-17.728 0.15034-26.433-0.18003-0.904-0.26852-1.8592-1.005-2.5081-7.8253-10.418-18.258-19.113-30.529-23.735-5.1307-1.9561-10.598-3.1416-16.107-3.0496z" fill="#222b00" style="paint-order:markers fill stroke"/> <ellipse transform="matrix(.99792 -.064521 .067779 .9977 0 0)" cx="96.984" cy="97.011" rx="5.6688" ry="6.7099" style="paint-order:markers fill stroke"/> <ellipse cx="97.849" cy="86.373" rx="3.3073" ry="4.394" fill="#fff" style="paint-order:markers fill stroke"/> <circle cx="110.58" cy="92.586" r="1.4883" fill="#fff" style="paint-order:markers fill stroke"/> <path d="m50.789 93.358c0.01335-0.0066 0.0286-0.0067 0.04328 0.0025 0.06433 0.09363 0.0066 0.24493 0.01045 0.36068-0.07618 0.88047-0.08969 1.7677-0.05729 2.6526l0.32709 2.3189 0.5789 3.0042 1.0261 2.6874 2.1734 3.0198 3.3228 2.251c-2.1811-0.23369-4.3268-1.6414-5.8137-3.7708-1.7592-2.5192-3.4888-5.7551-2.9843-9.6623l0.7231-1.0046c0.1866-0.61937 0.38002-1.2365 0.61702-1.8217 0.0081-0.01794 0.01976-0.03115 0.03311-0.0378z" fill="#fff" style="paint-order:markers fill stroke"/> <path d="m52.824 99.338c0.12743 0.09227 0.1309 0.35375 0.20179 0.51524 0.57651 1.8855 1.4957 3.5817 2.7044 4.7326 1.1172 1.0717 2.4866 1.6594 3.8324 1.5349 0.68517-0.089 1.3736-0.27712 2.0035-0.69477 1.3498-0.8294 2.4199-2.4172 3.1177-4.2385 0.20458-0.52113 0.33958-1.0857 0.50839-1.6252 0.12623-0.0276 0.20297 0.2462 0.30522 0.34827 0.3471 0.53273 0.67334 1.1068 0.93707 1.7248-0.19833 0.63979-0.45283 1.2642-0.71238 1.8666-0.85002 1.9218-1.975 3.6668-3.4039 4.7262-0.827 0.62336-1.7819 0.66038-2.694 0.74948-0.6368 0.0741-1.2829 0.042-1.9027-0.19488-1.4743-0.53571-2.8805-1.5691-3.9528-3.1222-0.98593-1.4058-1.7689-3.1004-2.2792-4.9494 0.03599-0.18855 0.21096-0.27069 0.31037-0.40336 0.33078-0.32693 0.65754-0.66478 1.0008-0.96435l0.02195-0.0056z" fill="#aad400" style="paint-order:markers fill stroke"/> <path d="m64.786 85.914c0.01634-0.0045 0.03293-0.0064 0.04718-0.0071 0.1961 0.0015 0.36837 0.16901 0.54977 0.25409 1.1962 0.69971 2.3812 1.4391 3.5404 2.2497 0.04947 0.01957 0.089 0.10335 0.06777 0.16054 1.2344 3.6192 1.4455 7.8844 0.57683 11.702-0.74842 3.2887-2.344 6.293-4.5766 7.8267-0.85077 0.58443-1.7801 0.94925-2.7259 1.0705l2.8284-3.6049 1.7354-4.0864 0.7637-4.467 0.05971-4.4057c-0.09259-0.58162-0.21176-1.1551-0.36718-1.7115-0.3215-1.0174-0.741-1.9827-1.2187-2.8752-0.38904-0.72304-1.0764-1.9713-1.5708-2.5632-0.04044-0.07983 0.24122 0.47153 0.29014 0.45792z" fill="#fff" stroke="#fff" stroke-width=".22498px"/> <path transform="matrix(-.7159 .14011 .1013 .99014 124.3 -8.1935)" d="m118.11 93.102s-0.68653-3.5345-3.7833-7.5081c-1.4078-1.8035-3.3303-3.6477-5.7467-4.9815-0.82871-0.44935-1.7209-0.84621-2.6442-1.148-1.5932-0.52069-3.1557-0.71917-4.6232-0.5265-2.4456 0.24716-5.0089 1.7355-6.8211 2.7891-3.5133 2.0712-5.6489 3.6329-5.6489 3.6329s1.5414-2.1518 4.7126-4.9248c1.6246-1.4395 4.099-3.4146 7.3256-4.1093 1.9196-0.36739 3.9558-0.22856 5.9371 0.40346 1.1493 0.36661 2.2168 0.8792 3.1759 1.4829 2.799 1.7385 4.7289 4.1064 5.9466 6.3295 2.6998 4.9213 2.1698 8.5602 2.1698 8.5602z" fill="#8b5322" style="paint-order:markers fill stroke"/> <path transform="matrix(-.7159 .14011 .1013 .99014 124.3 -8.1935)" d="m114.67 85.824s1.2212 2.9671 0.64527 7.657v2e-6c-0.21075 1.6774-0.7706 3.5556-1.8577 5.3804-0.77653 1.3054-1.8573 2.5729-3.2618 3.5564h-1e-5c-1.312 0.93044-2.9359 1.7815-4.753 1.9462-0.99258 0.0887-2.0917 0.22678-3.2115 0.10598-0.39138-0.0473-0.77243-0.13304-1.1431-0.24837-0.68491-0.21311-1.3236-0.52396-1.9106-0.86405-2.9179-1.7432-4.9043-4.4607-6.0999-7.0882-1.5874-3.4651-1.7765-6.7522-1.1565-9.3295l1e-6 -1e-6c1.2208-3.9852 3.2773-5.6724 3.2773-5.6724s-1.9027 1.859-2.8674 5.7729l-1e-6 1e-6c-0.46999 2.52-0.1227 5.613 1.4852 8.8785 1.225 2.4718 3.1522 5.0071 5.8559 6.5857 0.55372 0.3084 1.128 0.58963 1.7145 0.77523 0.31767 0.10053 0.63666 0.17231 0.95744 0.20658 0.95775 0.11715 1.9989-0.0131 3.0217-0.0856 1.5579-0.10542 3.0586-0.87096 4.3377-1.7057 1.3106-0.86615 2.3567-2.017 3.1348-3.2178 1.0949-1.6925 1.7149-3.4613 2.001-5.0682v-1e-6c0.81714-4.5047-0.16917-7.585-0.16917-7.585z" fill="#222b00" style="paint-order:markers fill stroke"/> <ellipse transform="matrix(-.98138 .19207 .10178 .99481 0 0)" cx="-49.113" cy="106.17" rx="6.5485" ry="10.134" fill="#8a0" style="paint-order:markers fill stroke"/> <path d="m59.048 84.182c1.2371-0.23414 2.4881 0.07989 3.6682 0.5931 0.60984 0.26019 1.2101 0.56614 1.8001 0.90007 1.1181 1.4051 1.9478 3.2122 2.5094 5.1423 0.59237 2.3218 0.59862 4.8674 0.227 7.2573-0.19518 1.2399-0.46842 2.4633-0.85683 3.6139-0.09818 0.10135-0.15432-0.13707-0.21577-0.20978-0.71397-1.3799-1.6647-2.5002-2.7222-3.3519-0.24321-0.20636-2.0197-1.3172-2.2537-1.535 0.1589-1.3917-1.2897-0.07708-1.6577-1.4015-0.43815-1.5721 0.42662-2.2367-0.71318-2.8748-1-0.56992-1.0596-2.987-1.9846-2.2071-1.0913 0.88934-1.8071 2.4865-2.0582 4.1811-0.14177 0.91963-0.17909 1.8758-0.05846 2.8025 0.02983 0.3675 0.09866 0.7274 0.14001 1.0882-0.12902 0.16019-0.32528 0.23407-0.48064 0.36118-0.94585 0.66724-1.8437 1.4559-2.6947 2.3323-0.12381 0.0273-0.10318-0.2345-0.15054-0.33267-0.53375-2.2212-0.82914-4.5749-0.73697-6.9193 0.0099-0.2435 1e-3 -0.497 0.12314-0.69431 1.203-3.0192 2.946-5.684 5.1465-7.3497 0.91941-0.70264 1.9232-1.2159 2.9691-1.396z" fill="#222b00" style="paint-order:markers fill stroke"/> <ellipse transform="matrix(-.9945 .10474 .052613 .99861 0 0)" cx="-53.126" cy="101.78" rx="4.1095" ry="6.7014" style="paint-order:markers fill stroke"/> <ellipse transform="matrix(-.98138 .19207 .10178 .99481 0 0)" cx="-45.749" cy="101.69" rx="2.4126" ry="4.3733" fill="#fff" style="paint-order:markers fill stroke"/> <ellipse transform="matrix(-.98138 .19207 .10178 .99481 0 0)" cx="-52.805" cy="109.15" rx="1.0857" ry="1.4813" fill="#fff" style="paint-order:markers fill stroke"/> <path transform="matrix(-.025994 1.3709 1.152 -.14461 -3.4379 -22.571)" d="m151.24 104.25s-0.37367 0.30916-1.1328 0.72699c-1.9438 1.0646-6.0289 2.3892-11.214 0.6605-0.86523-0.28844-1.6781-0.63924-2.4309-1.0282-5.3352-2.7096-7.4189-6.6449-7.4189-6.6449s3.6674 2.2613 8.5402 4.1488h1e-5c0.71035 0.2685 1.4551 0.53404 2.2187 0.78647 4.7087 1.5566 7.6504 1.7402 10.129 1.5101 0.82957-0.0752 1.3089-0.15981 1.3089-0.15981z" fill="#fceac9" style="paint-order:markers fill stroke"/> <path transform="matrix(.23791 .93915 1.091 -.25411 -30.907 48.335)" d="m150.72 103s-0.2261 0.50995-0.84116 1.2366c-0.73625 0.87465-2.0354 1.9955-4.0751 2.6963-2.0239 0.69534-4.5958 0.88847-7.18 0.0441-0.96981-0.31688-1.8596-0.75512-2.6573-1.2683-2.6124-1.638-4.1754-3.8954-5.0139-5.6824-0.83451-1.7784-0.97213-3.038-0.97213-3.038s3.5279 2.1117 8.1563 3.8892c0.67332 0.24536 1.3782 0.49124 2.0943 0.7268 4.4535 1.4651 7.0161 1.6965 9.3 1.512 0.75165-0.051 1.1891-0.11629 1.1891-0.11629z" fill="#fceac9" style="paint-order:markers fill stroke"/> </g> </svg>