<?xml version='1.0' encoding='utf-8'?>
<svg xmlns="http://www.w3.org/2000/svg" width="6e3" height="3900" version="1.0" viewBox="0 0 4500 2925" zoomAndPan="magnify"> <rect x="-450" y="-292.5" width="5400" height="3510" fill="#fff"/> <rect x="-450" y="-292.5" width="5400" height="3510" fill="#ff1616"/> <rect x="-450" y="-292.5" width="5400" height="3510" fill="#fff"/> <rect x="-450" y="-292.5" width="5400" height="3510" fill="#ff1616"/> <path d="m1532.7 1253.8c-20.355-15.699-41.871 16.867-50.594 41.289-24.426 67.457-88.395 121.54-159.92 123.28-71.531 1.7461-142.48-56.406-145.96-127.93-1.1641-31.984 9.3047-63.387 24.422-91.297 46.523-87.23 138.99-151.2 237.85-154.11 98.863-2.9062 198.89 59.316 230.87 152.94 52.918 154.68-38.965 309.37-136.08 416.95-190.75 211.09-208.19 687.94 184.93 652.47 95.371-8.7266 185.51-61.062 240.18-139.57 25.004 88.973 40.707 180.85 46.52 273.89-180.86 29.66-378.58 56.41-537.34-35.473-130.27-75.598-209.35-223.3-220.98-373.34-11.629-147.71 34.312-313.44 122.7-432.65 62.809-84.902 194.82-163.99 173.88-286.11-1.7422-7.5586-4.0703-15.703-10.465-20.355z" fill="#fff" fill-rule="nonzero"/> <path d="m1539.1 1242.7c-23.844-16.863-47.684 6.3945-59.316 26.75-6.3945 11.047-9.8867 22.68-15.117 33.727-5.2344 11.633-12.215 23.262-19.773 33.73-29.078 40.125-77.344 69.199-127.94 68.617-48.27-0.58203-95.953-30.238-117.47-73.27-26.168-52.336-1.1602-111.65 29.66-155.85 59.898-85.484 169.23-137.82 272.74-111.07 48.852 12.793 93.629 41.289 124.45 81.41 34.895 44.777 47.105 103.51 44.777 159.34-2.9062 59.312-23.84 116.88-52.336 168.64-27.914 50.008-62.805 94.207-100.61 137.24-46.523 53.5-79.672 117.46-101.77 184.34-21.516 66.875-32.566 138.98-27.332 209.35 5.2344 65.133 24.426 129.68 65.133 181.44 43.031 54.078 107 83.738 174.46 92.461 101.77 12.793 206.45-15.703 283.79-83.738 20.352-18.027 38.961-38.383 54.664-61.062-7.5625-1.1602-15.703-1.7422-23.262-2.9062 25.004 88.391 40.125 178.53 45.941 270.41 2.9062-4.0703 6.3945-8.1406 9.3047-12.211-126.78 20.934-259.95 41.289-387.3 16.281-61.059-11.629-119.79-34.891-170.97-70.945-46.523-33.145-85.488-77.922-114.56-126.77-62.227-103.51-80.836-225.63-65.133-344.84 8.1406-62.805 25.586-124.45 51.176-182.02 23.262-52.336 52.918-102.93 91.883-145.38 63.969-69.781 161.66-144.22 151.78-250.64-1.1641-14.535-3.4922-30.238-15.121-40.707-12.211-11.047-30.242 6.9805-18.027 18.027 8.7227 7.5625 8.1406 25.008 8.1406 35.473 0 11.633-1.1641 23.262-4.0703 34.895-5.8164 23.258-17.445 44.773-31.402 64.547-29.66 41.871-68.621 76.762-103.52 113.98-81.996 88.973-132.01 208.19-151.78 327.4-19.773 122.12-6.3984 247.14 51.754 357.63 27.332 51.758 63.969 99.441 108.75 137.24 48.266 40.707 105.26 69.785 165.73 86.648 127.36 35.473 262.86 20.352 391.38 0.58203 16.281-2.3281 32.566-5.2344 48.848-7.5586 5.2344-0.58203 9.8867-6.9805 9.3047-12.215-5.8164-93.625-21.516-186.67-46.523-276.8-2.9062-11.051-17.445-11.633-23.262-2.9102-31.984 45.359-75.598 81.414-125.61 104.68-46.523 22.098-97.117 30.82-148.88 30.238-37.219-0.58203-73.273-5.8164-108.16-19.773-27.914-11.047-54.082-28.492-75.602-50.59-42.449-44.195-64.547-105.84-71.527-166.32-8.1406-69.781 1.1641-139.57 21.516-206.44 19.773-65.711 52.34-129.68 96.535-181.43 37.801-43.613 73.855-87.227 102.35-137.82 30.238-52.918 52.336-111.07 58.152-171.55 5.8164-57.57-4.0703-120.38-34.309-170.97-27.914-45.355-70.949-79.668-119.8-100.02-103.51-43.035-220.4-9.3047-297.75 68.035-40.707 40.707-75.602 95.953-80.25 154.69-4.0742 54.082 26.75 104.09 71.527 132 45.941 29.074 101.77 31.402 151.2 9.8867 48.848-21.516 87.23-63.969 106.42-113.4 4.0703-10.465 8.7227-21.516 15.699-30.238 2.9102-3.4883 6.3984-7.5586 10.469-9.3047 2.9062-1.1641 4.0703-0.58203 7.5586 1.7461 13.957 8.7227 26.75-13.375 13.375-22.68z" fill="#431a11" fill-rule="nonzero"/> <path d="m2593.5 835.66c101.19 16.867 194.23 65.133 265.76 155.27 180.86 229.12 254.71 664.68 283.21 953.11 29.078 293.67-39.543 591.99-359.39 677.47-317.52 84.902-776.35 65.129-920.57-283.78-148.88-359.38-57.574-1284 371.02-1454.4 114.56-45.359 242.5-67.457 359.97-47.688z" fill="#fff" fill-rule="nonzero"/> <path d="m2590 847.87c104.09 18.027 195.98 70.363 261.11 153.52 55.242 70.363 95.371 152.94 127.36 236.1 36.637 94.207 63.387 191.32 85.484 289.6 21.516 95.371 37.801 191.9 50.012 289.02 11.633 87.809 22.098 176.78 20.355 265.75-1.7461 84.902-13.375 170.39-43.617 250.05-29.074 75.598-76.18 144.22-140.15 194.23-69.785 54.082-152.95 80.832-238.43 98.277-80.832 16.863-162.83 25.586-245.41 25.586-83.16 0-166.32-8.7227-246.57-30.82-75.598-20.934-148.87-54.078-209.93-103.51-61.641-50.012-109.91-115.14-138.98-189.58-21.52-55.242-35.477-113.39-44.781-171.55-11.047-69.203-16.281-139.57-18.027-209.93-1.7422-77.344 1.7461-155.27 9.8867-232.03 8.1406-79.086 20.938-157.59 38.965-234.93 17.445-75.016 40.125-149.45 69.203-220.39 26.75-65.715 59.898-129.1 101.18-187.25 36.637-51.176 80.254-98.277 132.59-133.75 25.586-17.445 53.5-31.984 81.996-43.613 56.988-22.098 116.3-38.383 176.2-46.523 56.992-6.9766 115.14-7.5586 171.55 1.7461 16.281 2.9062 22.68-22.098 6.9766-24.426-121.54-20.352-247.15 1.1641-361.13 45.359-61.645 23.844-115.73 61.059-162.25 107.58-48.848 49.43-88.973 107-121.54 168.06-36.637 67.457-65.133 138.98-87.812 211.67-24.422 76.762-41.871 155.85-55.246 235.52-13.375 80.832-21.516 162.25-24.422 243.66-2.9102 76.176-1.7461 152.36 5.2344 227.95 5.8125 66.293 16.281 132.59 33.145 197.14 18.609 68.621 47.105 134.91 90.141 191.9 50.012 65.129 115.72 115.72 189.58 151.2 76.18 36.055 158.76 56.406 241.92 66.293 85.488 9.8867 171.55 8.7227 257.04-1.1641 41.871-4.6523 83.16-11.629 123.87-20.352 43.613-9.3047 86.648-20.355 127.94-37.219 81.996-33.727 152.95-87.809 204.12-160.5 48.852-69.199 76.766-151.2 90.723-234.35 15.117-90.137 15.117-182.02 6.3945-272.15-9.3047-93.625-21.516-187.25-37.219-279.71-17.445-101.77-39.543-202.37-69.199-301.81-27.914-94.207-62.809-187.83-109.91-273.89-47.688-87.23-109.91-167.48-198.89-216.33-44.195-24.422-92.465-40.125-142.48-48.848-16.281-2.3242-23.262 22.098-6.9766 24.426z" fill="#431a11" fill-rule="nonzero"/> <path d="m2725.5 1203.2c135.5-11.633 254.13-83.738 301.82-243.08 19.773-65.711 29.078-140.14 65.133-199.46 37.801-63.383 102.93-100.6 155.85-149.45 48.266-44.195 59.316-86.066-17.445-102.35-48.852-10.469-98.863-9.8867-147.13-19.191-66.879-12.793-76.184-34.891-113.98-87.227-64.551-87.809-164.57-147.12-267.51-177.95-71.527-21.516-147.71-29.656-222.14-21.516-34.895 4.0703-71.531 21.516-101.77 8.7227-40.125-16.285-83.16-73.855-115.14-102.93-66.293-58.734-90.719-1.7461-99.441 61.641-10.469 76.762 23.844 153.52-7.5625 227.96-8.7227 20.934-18.609 40.707-29.074 59.895-54.082 101.77-117.47 185.51-95.371 314.61 22.68 132 115.72 239 229.12 304.13" fill="#fff" fill-rule="nonzero"/> <path d="m2725.5 1216c93.047-8.1406 183.18-45.359 243.66-118.05 33.727-40.703 56.988-88.391 71.527-139.56 16.863-58.734 25.586-120.96 53.5-175.62 26.754-52.336 72.113-88.973 117.47-125.03 21.516-16.863 43.613-34.309 61.641-55.242 12.797-14.539 26.172-33.73 25.59-54.082-0.58203-20.934-16.285-35.473-34.895-43.613-29.656-12.793-63.387-15.703-95.371-18.609-32.566-3.4883-65.711-5.2344-98.277-13.375-18.609-4.6523-36.055-11.629-49.434-24.422-14.535-13.957-25.586-31.402-37.797-47.688-16.867-23.258-35.477-44.777-55.828-64.547-42.453-40.125-91.883-71.527-144.8-95.953-58.156-26.168-119.8-43.613-182.61-51.172-33.727-4.0703-68.039-4.6523-101.77-1.7461-16.285 1.1641-32.566 3.4922-48.852 6.9805-14.535 3.4883-29.656 7.5586-44.777 8.1406-26.168 0.58203-46.523-16.281-64.551-33.148-19.77-18.605-37.797-38.961-56.988-58.73-17.445-17.449-38.383-36.637-64.551-39.547-20.938-2.3242-37.801 11.051-47.688 27.914-11.629 20.355-16.863 44.195-19.77 67.457-4.6523 33.148-1.7461 65.711 1.7422 98.859 3.4883 31.984 6.9805 64.547 0.58203 96.531-6.3945 32.566-23.262 62.805-38.961 91.879-26.172 48.848-55.828 95.953-76.184 147.71-21.516 54.082-29.074 111.65-19.77 169.22 16.863 109.33 83.738 205.28 169.23 272.15 20.934 16.281 43.031 31.402 66.293 44.777 13.957 8.1406 26.75-13.957 12.793-22.098-89.555-51.758-168.06-130.84-204.7-229.12-19.191-51.172-27.914-107-18.609-161.08 8.7227-51.758 31.984-98.859 56.992-144.22 13.375-24.426 27.332-48.266 40.125-72.691 15.121-28.492 31.402-58.73 37.801-90.715 12.211-63.387-9.3047-126.19-2.9102-190.16 2.3281-21.52 6.3984-45.359 16.867-64.551 8.1406-15.121 18.609-20.934 34.891-14.539 22.098 9.3047 38.961 30.238 55.246 47.105 18.609 19.188 36.637 39.543 57.57 55.824 21.52 16.863 44.199 27.914 72.691 25.008 15.121-1.7461 29.078-5.2344 43.617-8.1445 15.121-3.4883 30.82-5.2305 46.523-6.3945 66.293-4.6523 132.59 4.0703 195.39 23.262 53.5 16.281 104.68 39.543 151.2 70.945 45.941 30.82 84.902 68.617 116.89 113.39 11.633 16.281 22.68 33.148 37.801 47.105 14.539 13.375 31.984 22.676 51.176 27.91 60.48 18.027 126.19 10.469 186.67 29.078 8.7227 2.9062 19.191 6.3945 25.59 13.375 4.6523 4.6523 5.8125 8.7227 5.8125 13.957 0 5.8125-3.4883 13.375-7.5586 19.77-5.8164 9.3047-12.793 16.863-20.355 24.426-39.543 38.961-87.809 68.617-126.19 108.74-19.773 20.934-36.637 44.195-49.43 70.363-12.793 26.75-22.098 55.246-29.66 83.742-14.539 54.66-24.422 110.49-50.012 161.08-20.352 40.707-48.848 76.762-84.902 104.68-34.312 26.75-74.438 44.777-116.89 55.824-20.934 5.2344-41.871 8.7227-63.387 10.469-15.699 2.3242-16.281 27.914 0.58203 26.168z" fill="#431a11" fill-rule="nonzero"/> <path d="m3015.1 958.36c19.188-64.551 29.074-137.82 63.969-196.55 37.219-62.223 101.19-99.441 153.52-147.12 47.105-43.613 58.734-84.902-16.863-101.18-47.688-9.8867-97.117-9.8867-144.8-19.191-66.293-12.793-74.434-34.309-112.23-85.484-60.48-82.574-152.95-138.98-249.48-170.96-2.3281 35.473-0.58203 71.527 6.9766 107.58 18.027 85.48 65.715 163.41 77.344 250.05 16.285 119.8-37.801 240.17-28.496 361.12 5.8164 74.434 34.895 143.64 76.184 206.44 78.508-34.309 141.89-98.277 173.88-204.7z" fill="#efc083" fill-rule="nonzero"/> <path d="m2865.6 802.51c-2.9062-51.754-60.477-91.301-110.49-77.344-14.539 4.0703-25.59 12.215-34.895 24.426-3.4883 4.6523-0.58203 12.211 4.0703 15.117 5.8164 3.4922 11.051 0.58203 15.121-4.0703 6.9766-8.7227 16.863-13.957 28.496-15.699 10.465-1.7461 22.68 0.58203 33.727 4.6523 22.102 8.7227 41.289 29.074 42.453 52.918 0.58203 13.957 22.098 13.957 21.516 0z" fill="#431a11" fill-rule="nonzero"/> <path d="m2425.4 623.4c-2.9102-51.754-60.48-91.297-110.49-77.34-14.539 4.0703-25.59 12.211-34.895 24.422-3.4883 4.6523-0.58203 12.211 4.0703 15.121 5.8164 3.4883 11.051 0.58203 15.121-4.0703 6.9805-8.7227 16.863-13.957 28.496-15.703 10.469-1.7422 22.68 0.58203 33.73 4.6523 22.098 8.7227 41.289 29.078 42.449 52.918 0.58203 13.957 22.68 13.957 21.52 0z" fill="#431a11" fill-rule="nonzero"/> <path d="m2260.2 667.6c-63.387-29.074-148.29 16.285-158.76 84.902-6.9766 43.613 18.609 88.973 55.246 112.23 46.523 29.656 101.77 12.211 139.57-25.004 49.43-49.43 25.586-143.64-36.055-172.13z" fill="#f27276" fill-opacity=".3176" fill-rule="nonzero"/> <path d="m2883.1 872.29c-63.391-29.074-148.29 16.285-158.76 84.902-6.9766 43.613 18.609 88.973 55.246 112.23 46.523 29.656 101.77 12.211 139.57-25.004 49.43-49.43 25.586-143.05-36.055-172.13z" fill="#f27276" fill-opacity=".3176" fill-rule="nonzero"/> <path d="m2991.8 550.13c51.754 2.9062 102.93 10.465 153.52 22.68-2.3242-6.3984-5.2344-12.215-7.5586-18.609-16.285 28.492-42.453 48.848-73.855 58.152-15.703 4.6523-9.3047 29.074 6.9766 24.422 37.219-10.465 69.785-36.055 88.977-69.781 4.0703-6.9805 0.58203-16.863-7.5586-18.609-52.34-12.211-106.42-20.352-159.92-23.262-16.867-1.7422-16.867 23.844-0.58203 25.008z" fill="#431a11" fill-rule="nonzero"/> <path d="m2327.1 810.07c-59.898-76.762-145.38-127.35-232.61-167.48-97.117-45.359-198.89-79.668-303.56-102.93-58.734-13.375-118.63-22.68-179.11-28.496-5.2305-0.57812-5.2305 8.1445 0 8.7227 105.84 10.469 210.52 31.984 311.7 65.133 50.594 16.281 100.02 35.473 148.29 56.988 44.195 19.773 87.812 41.871 128.52 68.039 45.359 29.074 87.23 63.965 120.38 106.42 3.4922 4.0703 9.8867-2.3281 6.3984-6.3984z" fill="#431a11" fill-rule="nonzero"/> <path d="m2285.8 802.51c-69.203-55.246-154.69-83.156-240.17-101.77-97.117-20.934-197.14-30.82-296.59-30.238-56.406 0.57813-112.82 4.6523-169.23 11.629-4.6523 0.58203-5.2305 8.7227 0 7.5586 97.117-12.793 195.98-15.117 294.26-6.9766 92.465 7.5586 186.67 23.262 274.48 54.082 47.105 16.863 92.465 39.543 132.01 70.945 4.0703 3.4883 9.3047-1.7461 5.2344-5.2344z" fill="#431a11" fill-rule="nonzero"/> <path d="m2287 839.73c-112.24-38.383-230.87-55.828-349.5-54.082-118.05 2.3242-235.52 24.422-346.59 65.129-62.223 23.262-122.12 52.336-179.11 87.227-4.6523 2.9102-0.58203 10.469 4.0703 7.5625 100.02-61.641 210.52-105.26 325.66-129.1 114.56-23.844 233.78-29.078 350.09-13.375 65.711 8.7227 130.26 23.84 193.07 44.777 5.2344 1.7422 7.5625-6.3984 2.3281-8.1406z" fill="#431a11" fill-rule="nonzero"/> <path d="m2339.9 775.76c5.2344 4.0703 11.051-4.0703 5.8164-8.1406-5.2344-4.0703-11.051 4.0703-5.8164 8.1406z" fill="#431a11" fill-rule="nonzero"/> <path d="m2377.1 745.52c5.2344 4.0703 11.051-4.0703 5.8164-8.1406-5.2344-4.0742-11.051 4.0703-5.8164 8.1406z" fill="#431a11" fill-rule="nonzero"/> <path d="m2371.3 782.74c5.2344 4.0703 11.051-4.0703 5.8164-8.1406-5.2344-4.0703-11.047 4.0703-5.8164 8.1406z" fill="#431a11" fill-rule="nonzero"/> <path d="m2703.9 914.75c5.2344 4.0703 11.047-4.0703 5.8125-8.1406-5.2305-4.0742-11.047 4.0703-5.8125 8.1406z" fill="#431a11" fill-rule="nonzero"/> <path d="m2570.2 854.27c94.207-37.797 197.72-36.633 297.16-27.332 102.35 9.8867 204.12 31.402 301.82 62.223 55.246 17.449 109.91 38.383 162.83 62.805 4.6523 2.3281 9.3047-5.2344 4.0742-7.5586-94.211-43.031-193.07-76.18-294.84-98.277-50.594-11.047-101.77-19.77-153.52-25.586-51.176-5.8164-102.35-9.3047-153.53-7.5586-56.988 2.3242-113.98 11.047-167.48 32.562-4.0703 2.3281-1.7461 10.469 3.4883 8.7227z" fill="#431a11" fill-rule="nonzero"/> <path d="m2609.2 867.64c97.699-15.117 195.4 11.051 286.7 43.035 86.648 30.82 170.39 70.363 249.48 117.46 44.199 26.75 87.23 56.406 128.52 87.809 4.0703 2.9102 8.1406-3.4883 4.0703-6.9766-74.434-56.988-154.69-107-239.01-147.71-84.902-41.289-176.2-76.762-268.67-95.367-53.5-11.051-108.75-15.121-162.83-6.3984-5.2344 1.1641-3.4883 8.7227 1.7422 8.1406z" fill="#431a11" fill-rule="nonzero"/> <path d="m2585.3 899.62c115.14 22.68 226.21 66.293 326.24 126.77 100.61 60.477 190.75 138.4 265.76 228.54 41.871 50.594 79.09 105.84 110.49 163.99 2.3281 4.6523 9.8867 0.58203 7.5586-4.0703-55.824-104.09-130.84-197.71-218.66-276.8-87.812-78.504-188.42-142.47-297.16-187.83-61.641-26.168-126.19-45.359-191.91-58.734-5.2344-1.1641-7.5586 6.9766-2.3242 8.1406z" fill="#431a11" fill-rule="nonzero"/> <path d="m2691.2 884.5c5.2305 4.0742 11.047-4.0703 5.8125-8.1406-5.2344-3.4883-11.047 4.6523-5.8125 8.1406z" fill="#431a11" fill-rule="nonzero"/> <path d="m2662.7 906.61c5.2344 4.0703 11.047-4.0742 5.8125-8.1445-4.6523-4.0703-11.047 4.0703-5.8125 8.1445z" fill="#431a11" fill-rule="nonzero"/> <path d="m2659.7 867.64c4.0703-11.047-13.375-16.281-17.445-5.2344-9.3047 24.426-28.496 61.645-59.316 56.41-23.262-4.0703-39.543-27.914-44.195-50.012-3.4883-16.281-2.3281-32.566 3.4883-47.684v-1.1641c0.58203-1.1641 1.1641-1.7461 1.7461-2.9062 8.7227-22.098 16.863-44.777 25.586-66.875 1.7461-4.6523-1.7461-9.8867-6.3984-11.633-5.2305-1.7422-9.8828 1.7461-11.629 6.3984-8.7227 22.098-16.863 44.777-25.586 66.875v0.58203c-0.58203 0.58203-0.58203 1.1602-1.1641 1.7422-16.285 31.402-50.594 54.082-86.648 49.43-13.375-1.7422-26.172-8.1406-33.148-19.77-9.8867-15.703-6.9766-35.473-1.7461-52.34 3.4922-11.047-13.957-16.281-17.445-5.2305-9.8867 31.402-7.5586 68.617 23.844 87.227 27.332 15.699 62.223 11.047 88.395-4.0703 6.9766-4.0703 13.375-8.7227 19.188-14.539 0.58203 21.516 8.1445 42.453 21.52 59.316 19.191 23.84 51.754 33.727 78.508 16.281 22.098-16.281 34.309-40.125 42.449-62.805z" fill="#431a11" fill-rule="nonzero"/> <path d="m2581.2 721.1c-20.938-9.8867-50.016-8.1406-53.504 15.121-2.9062 20.352 15.703 44.777 37.219 43.613 13.957-0.58203 33.148-13.375 36.637-27.332 2.9062-14.539-8.1406-25.586-20.352-31.402z" fill="#f27276" fill-rule="nonzero"/> <path d="m2281.8 241.34c1.7461 1.1641-1.1641-1.1641 0 0 0.58203 0.58203 1.1641 1.1641 1.7461 1.1641 1.1602 1.1641 2.3242 1.7422 2.9062 2.9062 2.3242 1.7461 4.6523 4.0703 6.3984 5.8164 4.0703 4.0703 8.1406 8.7227 12.211 13.375 0.58203 1.1641 1.7461 2.3242 2.3242 3.4883-0.57813-1.1641-1.1602-1.1641 0 0 0.58203 0.58203 1.1641 1.1641 1.1641 1.7461 1.7461 2.3242 3.4883 4.6523 5.2344 6.9766 3.4883 5.2344 6.3984 10.469 8.7227 15.703 2.9062 5.8125 11.633 8.1406 17.445 4.6523 5.8164-4.0742 7.5625-11.051 4.6523-17.449-11.629-23.84-29.656-44.195-50.594-60.477-2.3242-1.7461-6.9766-2.3242-9.8867-1.1641-2.9062 0.58203-6.3945 2.9102-7.5586 5.8164-1.7422 2.9062-2.3242 6.3984-1.1641 9.8867 1.7461 2.9062 3.4922 5.2344 6.3984 7.5586z" fill="#431a11" fill-rule="nonzero"/> <path d="m2527.7 2602.9c4.0703 91.297-1.1641 188.41-48.266 224.46-62.227 47.688-166.9 16.285-194.82-56.406-24.422-63.387 4.6523-133.17 7.5625-200.62 2.9062-62.223-16.867-123.28-36.055-182.6-63.391-195.39-136.66-344.26-247.73-561.75" fill="#fff" fill-rule="nonzero"/> <path d="m2514.9 2602.9c2.3242 47.684 2.9062 97.113-6.9766 144.22-7.5625 35.473-22.102 68.617-57.574 82.574-31.984 12.793-70.367 9.3047-100.61-6.9766-35.473-18.609-57.57-51.176-61.062-91.301-4.6523-53.5 13.379-105.84 16.285-158.75 2.9062-56.988-12.211-112.82-29.078-166.32-29.074-92.461-63.387-182.6-102.35-270.99-41.289-93.625-87.23-185.5-133.75-276.8-6.3984-12.793-13.375-26.168-19.773-38.961-7.5586-14.539-29.656-1.7461-22.098 12.793 49.43 96.535 98.859 193.65 143.06 292.5 40.707 90.719 76.18 183.18 107 277.39 17.449 54.664 34.895 111.07 31.984 169.22-2.9062 54.664-22.098 108.75-15.699 164.57 5.2344 44.195 27.332 81.996 65.711 105.25 33.148 19.773 75.02 27.332 112.82 18.027 18.609-4.6523 36.055-13.375 50.594-25.586 14.539-12.793 24.422-30.82 30.82-48.848 16.863-44.777 18.609-95.371 18.027-142.47 0-13.375-0.58203-26.168-1.1641-39.543-1.7422-16.863-26.75-16.863-26.168 0z" fill="#431a11" fill-rule="nonzero"/> <path d="m2471.3 1721.9c12.793 238.42 22.098 477.43 40.707 715.85 5.8125 72.691 2.9062 144.8 12.793 217.49 6.3945 48.848 15.121 125.03 58.152 157.59 62.805 46.52 166.9 16.281 194.82-56.41 24.422-63.383-4.6523-133.17-7.5625-200.62-2.9062-62.223 16.863-123.29 36.055-182.6 63.387-195.39 172.72-416.95 222.73-620.48" fill="#fff" fill-rule="nonzero"/> <path d="m2458.5 1721.9c9.8867 180.27 17.449 360.54 28.496 540.81 5.8164 90.137 13.375 179.69 16.285 269.83 1.1602 43.613 3.4883 86.645 9.3047 129.68 4.0703 30.238 8.1406 61.059 17.445 90.715 9.3047 29.078 24.422 56.988 50.594 74.434 23.262 15.703 52.918 22.098 80.832 20.355 58.734-3.4883 114.56-40.125 131.43-98.277 11.633-38.961 5.8164-80.25-0.58203-119.79-6.9766-41.289-12.793-81.414-7.5586-123.28 5.2344-42.453 18.609-83.742 31.402-124.45 12.215-37.219 25.008-73.855 38.965-110.49 57.57-152.94 125.03-302.39 170.39-459.4 5.2344-18.609 10.469-37.801 15.121-56.41 4.0703-15.699-20.934-22.676-24.426-6.9766-37.797 154.68-102.35 301.23-159.92 448.93-28.492 72.691-56.406 146.54-78.504 221.56-11.633 40.125-20.938 81.996-20.938 123.86 0 40.125 9.8867 79.668 15.121 119.21 4.0703 34.891 5.2344 72.688-13.375 103.51-12.793 21.516-34.312 37.801-57.574 47.105-23.84 8.7227-50.012 11.629-75.016 5.2305-26.172-6.3945-46.523-22.676-59.316-46.52-13.957-26.168-19.773-55.828-24.426-84.902-5.8164-36.055-9.3047-72.691-11.047-109.32-2.3281-43.617-2.3281-87.812-5.2344-131.43-2.9102-44.195-6.3984-87.809-9.3047-132-11.633-176.2-19.191-352.4-28.496-528.6-1.1641-21.516-2.3281-43.035-3.4883-64.551-1.1641-15.117-26.754-15.117-26.172 1.1641z" fill="#431a11" fill-rule="nonzero"/> </svg>