<?xml version='1.0' encoding='utf-8'?>
<svg xmlns="http://www.w3.org/2000/svg" viewBox="0 0 202.78 336.09"> <defs> <clipPath id="a"> <path d="m728.65 494.4h11.552v-10.832h-11.552v10.832z"/> </clipPath> <clipPath id="b"> <path d="m712.26 545.33h12.094v-1.999h-12.094v1.999z"/> </clipPath> <clipPath id="c"> <path d="m727.5 562.48h4.604v-12.135h-4.604v12.135z"/> </clipPath> <clipPath id="d"> <path d="m625.36 549.18h22.79v-27.585h-22.79v27.585z"/> </clipPath> <clipPath id="e"> <path d="m623.56 511.4h22.788v-27.585h-22.788v27.585z"/> </clipPath> <clipPath id="f"> <path d="m719.04 498.16h18.476v-2.943h-18.476v2.943z"/> </clipPath> <clipPath id="g"> <path d="m755.06 541.74h79.167v-16.978h-79.167v16.978z"/> </clipPath> <clipPath id="h"> <path d="m754.42 523.35h79.732v-11.069h-79.732v11.069z"/> </clipPath> <clipPath id="i"> <path d="m754.42 505.28h76.329v-8.582h-76.329v8.582z"/> </clipPath> <clipPath id="j"> <path d="m745.46 533.23h4.47v-5.145h-4.47v5.145z"/> </clipPath> <clipPath id="k"> <path d="m745.67 524.69h5.302v-5.874h-5.302v5.874z"/> </clipPath> <clipPath id="l"> <path d="m746.86 517.5h4.922v-4.874h-4.922v4.874z"/> </clipPath> <clipPath id="m"> <path d="m747.42 511.04h4.151v-5.132h-4.151v5.132z"/> </clipPath> <clipPath id="n"> <path d="m748.06 503.99h4.289v-4.545h-4.289v4.545z"/> </clipPath> <clipPath id="o"> <path d="m719.87 528.38h4.774v-28.874h-4.774v28.874z"/> </clipPath> <clipPath id="p"> <path d="m667.08 518.61h2.77v-4.955h-2.77v4.955z"/> </clipPath> <clipPath id="q"> <path d="m631.87 530.88h9.827v-2.229h-9.827v2.229z"/> </clipPath> <clipPath id="r"> <path d="m630.93 502.46h9.828v-2.229h-9.828v2.229z"/> </clipPath> <clipPath id="s"> <path d="m602.94 497.8h13.854v-6.374h-13.854v6.374z"/> </clipPath> <clipPath id="t"> <path d="m643.99 517.34h3.818v-2.357h-3.818v2.357z"/> </clipPath> <clipPath id="u"> <path d="m588.14 565.83h35.26v-56.445h-35.26v56.445z"/> </clipPath> <clipPath id="v"> <path d="m589.9 558.39h49.061v-49.004h-49.061v49.004z"/> </clipPath> <clipPath id="w"> <path d="m589.9 509.38h38.021v-26.764h-38.021v26.764z"/> </clipPath> <clipPath id="x"> <path d="m603.93 521.26h23.035v-12.924h-23.035v12.924z"/> </clipPath> <clipPath id="y"> <path d="m670.28 541.99h9.711v-19.077h-9.711v19.077z"/> </clipPath> <clipPath id="z"> <path d="m647.58 540.05h6.185v-11.132h-6.185v11.132z"/> </clipPath> <clipPath id="aa"> <path d="m647.58 503.99h6.185v-11.133h-6.185v11.133z"/> </clipPath> <clipPath id="ab"> <path d="m580.31 575.03h43.954v-25.151h-43.954v25.151z"/> </clipPath> </defs> <g transform="matrix(0 1.25 1.25 0 157.5 77.722)"> <path d="m0 0c27.5 0 49.792-15.288 49.792-34.146s-22.292-34.147-49.792-34.147-49.79 15.288-49.79 34.147 22.291 34.146 49.79 34.146" fill="#f9dec5"/> </g> <g transform="matrix(0 1.25 1.25 0 92.654 86.86)"> <path d="m0 0c4.099 0 7.421-1.31 7.421-2.924 0-1.615-3.322-2.924-7.421-2.924s-7.421 1.309-7.421 2.924c0 1.614 3.322 2.924 7.421 2.924"/> </g> <g transform="matrix(0 1.25 1.25 0 127.93 88.861)"> <path d="m0 0c4.099 0 7.421-1.309 7.421-2.923 0-1.615-3.322-2.924-7.421-2.924s-7.422 1.309-7.422 2.924c0 1.614 3.322 2.923 7.422 2.923"/> </g> <g transform="matrix(0 1.25 1.25 0 93.404 72.712)"> <path d="m0 0s-4.798-3.448-3.448-14.842" fill="none" stroke="#000"/> </g> <g transform="matrix(0 1.25 1.25 0 116.83 74.024)"> <path d="m0 0s-5.697 4.947-4.798 14.993" fill="none" stroke="#000"/> </g> <g transform="matrix(0 1.25 1.25 0 124.48 84.165)"> <path d="m0,0c1.009-.244 1.701-.956 1.548-1.592s-1.093-.952-2.103-.708-1.699.954-1.546,1.59 1.093.952 2.101.71" fill="#fff"/> </g> <g transform="matrix(0 1.25 1.25 0 89.842 81.895)"> <path d="m0,0c1.009-.244 1.701-.955 1.548-1.59s-1.093-.953-2.103-.709-1.699.955-1.547,1.589c.154.636 1.093.953 2.102.71" fill="#fff"/> </g> <g transform="matrix(0 1.25 1.25 0 150.65 9.1139)"> <path d="m0 0s1.405 48.657 67.97 40.859c0 0-16.223-0.031-26.986-10.794 0 0 15.292 2.102 31.484-8.394 0 0-14.772 1.686-21.928-1.557 0 0-28.26-30.991-50.54-20.114" fill="#42210b"/> </g> <g transform="matrix(0 1.25 1.25 0 -539.3 -708.04)"> <g clip-path="url(#ab)" opacity=".5"> <g transform="translate(580.31 549.92)"> <path d="m0 0s6.248 35.384 43.954 22.154c0 0-39.695-23.217-43.954-22.154"/> </g> </g> </g> <g transform="matrix(0 1.25 1.25 0 168.9 98.732)"> <path d="m0 0c6.596-4.133 10.266-10.157 8.2-13.454s-9.089-2.622-15.684 1.513c-6.597 4.133-10.267 10.158-8.2 13.456s9.087 2.619 15.684-1.515" fill="#f9dec5"/> </g> <g transform="matrix(0 1.25 1.25 0 95.464 113.94)"> <path d="m0 0s6.746 7.196-1.125 19.79c0 0 18.666-11.019 1.125-19.79" fill="#ed1c24"/> </g> <g transform="matrix(0 1.25 1.25 0 -539.3 -708.04)"> <g clip-path="url(#aa)" opacity=".5"> <g transform="translate(650.67 503.99)"> <path d="m0 0c1.707 0 3.092-2.492 3.092-5.566 0-3.075-1.385-5.567-3.092-5.567s-3.093 2.492-3.093 5.567c0 3.074 1.385 5.566 3.093 5.566" fill="#d4145a"/> </g> </g> <g clip-path="url(#z)" opacity=".5"> <g transform="translate(650.67 540.05)"> <path d="m0 0c1.707 0 3.092-2.493 3.092-5.565 0-3.076-1.385-5.567-3.092-5.567s-3.093 2.491-3.093 5.567c0 3.072 1.385 5.565 3.093 5.565" fill="#d4145a"/> </g> </g> </g> <g transform="matrix(0 1.25 1.25 0 149.95 191.34)"> <path d="m0 0s18.516 3.179 24.171-12.256 7.755-29.422 10.903-33.101h6.747s-8.902 24.32-8.902 40.02c0 0 2.067 17.481-33.929 16.746" fill="#f9dec5"/> </g> <g transform="matrix(0 1.25 1.25 0 138.19 128.15)"> <path d="m0 0h11.501s7.674 13.269 14.6 21.589c6.925 8.32 34.444 3.148 34.444 3.148-3.559-4.272 0.748-21.589 0.748-21.589h-7.488c13.103-15.741 25.832-8.995 25.832-8.995 32.57 30.584 81.988 19.79 81.988 19.79 11.98-25.186-2.621-69.263-2.621-69.263-12.729 8.095-90.6 11.244-90.6 11.244-16.095 0-24.707-7.196-35.938-2.699s-19.843 28.785-19.843 28.785l-4.882-1.087s-2.328 12.737-7.741 19.077" fill="#f9dec5"/> </g> <g transform="matrix(0 1.25 1.25 0 116.99 116.91)"> <path d="m0,0c-1.854,1.593-3.5,2.57-3.5,2.57 7.871-12.593 1.125-19.79 1.125-19.79 1.163.582 2.155,1.174 3.017,1.772 2.557,5.49.859,11.765-.642,15.448" fill="#fff"/> </g> <g transform="matrix(0 1.25 1.25 0 138.85 142.92)"> <path d="m0,0c.995-4.061 1.853-10.422.995-19.015 1.278-3.429 9.365-24.167 19.661-28.29 11.232-4.497 19.843,2.7 35.939,2.7 0,0 77.871-3.149 90.599-11.245 0,0 14.602,44.078 2.621,69.264 0,0-49.418,10.794-81.988-19.79 0,0-12.728-6.746-25.832,8.995h7.488c0,0-4.306,17.317-.748,21.589 0,0-27.518,5.172-34.444-3.148-6.117-7.351-12.81-18.544-14.291-21.06" fill="#fbb03b"/> </g> <g transform="matrix(0 1.25 1.25 0 -539.3 -708.04)"> <g clip-path="url(#y)" opacity=".2"> <g transform="translate(670.28 541.99)"> <path d="m0,0c5.726-6.34 8.188-19.077 8.188-19.077l1.523.321c-.784,7.14-3.107,14.076-4.978,18.756h-4.733z"/> </g> </g> <g clip-path="url(#x)" opacity=".2"> <g transform="translate(606.99 508.45)"> <path d="m0 0s9.413-0.807 19.972 12.264c0 0-11.098-8.875-17.17-10.044 0 0 7.066 5.647 9.606 10.591 0 0-23.736-14.331-12.408-12.811" fill="#f15a24"/> </g> </g> </g> <g transform="matrix(0 1.25 1.25 0 67.166 48.911)"> <path d="m0,0c-.229.554 20.241-8.244 27.736,1.051 0,0-24.59-.002-33.433,13.792 0,0 19.041-3.149 27.735,19.04 0,0-9.967-11.392-19.635-11.971-.251-.015-.502-.022-.754-.022-9.894,0 22.638,15.891 28.036,37.48 0,0-15.294-16.941-25.488-17.541 0,0 22.197,18.295 28.792,29.69 0,0 2.243,5.841 23.532.745 0,0-16.492,6.895-26.086,5.096 0,0 11.094,1.799 17.391,1.799 0,0-88.753,39.279-74.66-53.671 0,0-7.798,3.6-12.295,14.094 0,0 5.387-22.436 20.44-24.925 0,0 3.247-21.552 26.035-25.149 0,0-3.598,1.496-7.346,10.492" fill="#42210b"/> </g> <g transform="matrix(0 1.25 1.25 0 -539.3 -708.04)"> <g clip-path="url(#w)" opacity=".3"> <g transform="translate(589.9 509.38)"> <path d="m0 0s4.529-28.602 38.021-26.67c0 0-29.701-1.665-38.021 26.67"/> </g> </g> <g clip-path="url(#v)" opacity=".3"> <g transform="translate(589.9 509.38)"> <path d="m0 0s4.571 57.734 49.061 47.87c0 0-38.492 9.925-49.061-47.87"/> </g> </g> <g clip-path="url(#u)" opacity=".3"> <g transform="translate(589.9 509.38)"> <path d="m0 0s-8.546 45.876 33.508 56.445c0 0-44.528-6.297-33.508-56.445"/> </g> </g> <g clip-path="url(#t)" opacity=".2"> <g transform="translate(644.24 516.99)"> <path d="m0,0c.396-.699.96-2.158 2.104-1.986 .873.131 1.484,1.632 1.466,2.34-.679.054-1.035-.543-1.713-.601-.747-.065-1.442.693-2.104.124" fill="#f15a24"/> </g> </g> <g clip-path="url(#s)" opacity=".2"> <g transform="translate(611.29 491.84)"> <path d="m0,0c-2.727.27-6.805,3.726-8.359,5.964 2.027-.739 4.204-1.914 6.361-2.684 2.384-.85 5.021-2.85 7.493-2.988-1.638-1.428-5.268-.319-7.113.193" fill="#f15a24"/> </g> </g> <g clip-path="url(#r)" opacity=".2"> <g transform="translate(635.85 502.46)"> <path d="m0,0c2.715,0 4.914-.498 4.914-1.113 0-.616-2.199-1.116-4.914-1.116s-4.914.5-4.914,1.116c0,.615 2.2,1.113 4.914,1.113" fill="#fff"/> </g> </g> <g clip-path="url(#q)" opacity=".2"> <g transform="translate(636.78 530.88)"> <path d="m0 0c2.715 0 4.914-0.499 4.914-1.114s-2.199-1.115-4.914-1.115-4.913 0.5-4.913 1.115 2.199 1.114 4.913 1.114" fill="#fff"/> </g> </g> <g clip-path="url(#p)" opacity=".2"> <g transform="translate(667.5 513.66)"> <path d="m0,0c.053.105.241.168.382.332 .335.389.302,1.423.273,1.912-.049.902-.578,1.954-1.069,2.67 .81.295 2.268-1.072 2.589-1.756 .267-.569.25-1.664-.133-2.178-.479-.641-1.545-.59-2.228-.793" fill="#f15a24"/> </g> </g> <g clip-path="url(#o)" opacity=".2"> <g transform="translate(720.13 499.51)"> <path d="m0 0s5.813 5.395-0.262 28.874c0 0 10.563-26.177 0.262-28.874" fill="#f15a24"/> </g> </g> <g clip-path="url(#n)" opacity=".2"> <g transform="translate(750.57 499.66)"> <path d="m0,0c.116.021.222-.004.313-.074-.944.652-3.521,1.567-2.642,2.965 .595.945 3.121,1.529 4.109,1.429-.701-.74-1.631-1.47-1.681-2.633-.025-.564.961-2.324-.199-1.806" fill="#f15a24"/> </g> </g> <g clip-path="url(#m)" opacity=".2"> <g transform="translate(751.57 505.92)"> <path d="m0,0c-.77-.104-3.145.851-3.74,1.539-.634.732-.473,1.692.056,2.438 .255.359 1.274,1.461 1.787,1.062 .534-.417-.167-2.394-.093-3.092 .703-.373 2.038-.445 1.974-1.685-.108-.092-.455-.242-.585-.258-.094.095-.163.215-.202.357" fill="#f15a24"/> </g> </g> <g clip-path="url(#l)" opacity=".2"> <g transform="translate(750.16 512.79)"> <path d="m0,0c-.728-.232-3.034.78-3.3,1.92 .863.893 1.794,2.049 2.898,2.514 .625.263 2.129.648 2.018-.453-.098-.964-1.82-1.24-1.829-2.176-.009-.813 1.273-.979 1.079-1.908-.574-.022-1.246-.251-1.569.463" fill="#f15a24"/> </g> </g> <g clip-path="url(#k)" opacity=".2"> <g transform="translate(750.97 519.17)"> <path d="m0,0c-1.493.05-4.78-.311-5.302,1.896 .81.69 1.175,1.765 2.064,2.464 .762.602 1.585,1.216 2.526,1.161-.235-1.058-.864-1.913-1.082-2.966 .461-.33.925-.966 1.093-1.592 .149-.55.146-1.834-.605-1.084" fill="#f15a24"/> </g> </g> <g clip-path="url(#j)" opacity=".2"> <g transform="translate(749.56 528.56)"> <path d="m0,0c.064-.176.124-.283.095-.469-.756-.046-2.892.694-3.49,1.312-.411.422-.379,1.033-.709,1.556 .73.725 1.565,1.031 2.426,1.452 .632.306 1.353,1.131 2.043.703-.4-.805-1.558-1.639-1.57-2.511-.015-.862 1.522-1.713 1.205-2.405" fill="#f15a24"/> </g> </g> <g clip-path="url(#i)" opacity=".2"> <g transform="translate(754.42 503.18)"> <path d="m0 0s50.089 4.85 76.329-6.484c0 0-44.212 13.694-76.329 6.484" fill="#f15a24"/> </g> </g> <g clip-path="url(#h)" opacity=".2"> <g transform="translate(754.42 512.29)"> <path d="m0 0s52.785 17.801 79.732 2.266c0 0-27.666 21.242-79.732-2.266" fill="#f15a24"/> </g> </g> <g clip-path="url(#g)" opacity=".2"> <g transform="translate(755.05 524.76)"> <path d="m0 0s51.09 23.902 79.167 11.599c0 0-29.258 17.899-79.167-11.599" fill="#f15a24"/> </g> </g> <g clip-path="url(#f)" opacity=".2"> <g transform="translate(719.04 495.22)"> <path d="m0 0s11.781 3.961 18.476 2.693c0 0-16.136-2.168-18.476-2.693" fill="#f15a24"/> </g> </g> </g> <g transform="matrix(0 1.25 1.25 0 115.08 144.16)"> <path d="m0 0s4.917-8.734 13.145-13.736c0 0-1.979 17.907-14.14 32.751 0 0 8.181-18.421 0.995-19.015" fill="#f15a24"/> </g> <g transform="matrix(0 1.25 1.25 0 99.955 85.646)"> <path d="m0 0c6.293 0 11.395-6.175 11.395-13.792s-5.102-13.793-11.395-13.793-11.394 6.176-11.394 13.793 5.102 13.792 11.394 13.792z" fill="none" stroke="#f7931e"/> </g> <g transform="matrix(0 1.25 1.25 0 -539.3 -708.04)"> <g clip-path="url(#e)" opacity=".3"> <g transform="translate(634.95 511.4)"> <path d="m0 0c6.293 0 11.395-6.175 11.395-13.792s-5.102-13.793-11.395-13.793-11.394 6.176-11.394 13.793 5.102 13.792 11.394 13.792" fill="#fff"/> </g> </g> <g clip-path="url(#d)" opacity=".3"> <g transform="translate(636.75 549.18)"> <path d="m0 0c6.293 0 11.396-6.176 11.396-13.793s-5.103-13.792-11.396-13.792-11.394 6.176-11.394 13.792 5.103 13.793 11.394 13.793" fill="#fff"/> </g> </g> </g> <g transform="matrix(0 1.25 1.25 0 147.29 87.993)"> <path d="m0 0c6.293 0 11.396-6.177 11.396-13.793s-5.103-13.794-11.396-13.794-11.394 6.178-11.394 13.794 5.103 13.793 11.394 13.793z" fill="none" stroke="#f7931e"/> </g> <g transform="matrix(0 1.25 1.25 0 99.955 85.646)"> <path d="m0 0s-4.691 4.832 0.822 10.343" fill="none" stroke="#f7931e"/> </g> <g transform="matrix(0 1.25 1.25 0 -539.3 -708.04)"> <g clip-path="url(#c)" opacity=".2"> <g transform="translate(728.16 562.33)"> <path d="m0,0c-1.722-4.017.396-10.057.813-11.171 1.021-.196 2.072-.464 3.126-.816-1.767,4.824-1.175,9.503-.683,11.804-.908.126-1.854.236-2.841.33l-.415-.147z"/> </g> </g> <g clip-path="url(#b)" opacity=".2"> <g transform="translate(712.27 543.61)"> <path d="m0,0c-.229-.099 3.784,2.412 10.488,1.535 0,0 .6-.813 1.598-1.812 0,0-8.748,1.713-12.086.277" fill="#f15a24"/> </g> </g> </g> <g transform="matrix(0 1.25 1.25 0 80.916 195.54)"> <path d="m0,0c-.39-1.273 1.938-4.107 2.862-5.516 1.279-1.956 2.107-3.814 3.336-5.767 3.69-5.859 5.101-12.807 8.193-18.977 2.684-5.357 5.819-12.625 3.216-18.706-1.279-2.991-4.091-4.631-2.979-8.323 1.813,1.201 3.245,2.941 5.294,3.735 1.89.732 1.507-4.841 1.379-5.412-.301-1.347-1.928-4.972-.015-5.7 1.643-.625 4.744,3.318 5.631,4.391 1.939,2.345 3.47,5.462 2.81,8.646-.647,3.121-3.087,5.43-3.785,8.55-.841,3.756-.861,7.657-1.237,11.481-.945,9.635-2.309,18.136-7.052,26.556-1.769,3.147-2.823,6.351-4.441,9.503-1.658,3.237-4.131,2.918-7.392.971-2.605-1.556-5.472-2.907-5.82-5.432" fill="#f9dec5"/> </g> <g transform="matrix(0 1.25 1.25 0 79.722 190.76)"> <path d="m0 0s1.709-0.174 8.459-10.402c0 0 4.296 6.34 11.661 10.023 0 0 0.871 1.689-8.463 9.742 0 0-9.069-4.482-11.657-9.363" fill="#fbb03b"/> </g> <g transform="matrix(0 1.25 1.25 0 -539.3 -708.04)"> <g clip-path="url(#a)" opacity=".2"> <g transform="translate(729.93 483.57)"> <path d="m0,0c1.792,4.061 7.504,7.027 10.272,8.424-.409.799-.797,1.599-1.154,2.401l-.014.007c-5.111-1.269-10.342-8.58-10.383-8.638 .215-.372.426-.742.664-1.119 .221-.35.409-.718.615-1.075"/> </g> </g> </g> </svg>