<?xml version='1.0' encoding='utf-8'?>
<svg xmlns="http://www.w3.org/2000/svg" data-name="Layer 1" viewBox="0 0 3919.6 4348.2"> <defs> <style>.cls-1{fill:#d98d92;}.cls-2{fill:#344758;}.cls-3{fill:#f9a9a6;}.cls-4{fill:#5f9eb7;}.cls-5{fill:#f9f9f9;}.cls-6{fill:#e1d3cf;}.cls-7{fill:none;stroke:#344758;stroke-miterlimit:10;stroke-width:10px;}</style> </defs> <path class="cls-1" transform="translate(-290.22 -75.88)" d="M4208.36,1571.77c-5.95-70.76-30.58-142.24-70.57-189.06-22,4.8-30.9-12.23-40.46-25.92-61.9-88.48-147.19-149.14-238.83-202.4-20.35-11.84-41.68-22.85-47.19-49-12.47-18.14-9.78-35.08,2.65-52.37,21.15-29.4,43.35-58.27,61.81-89.31,56.12-94.52,89.72-194.67,69.39-306.74-21.46-10-19-30.65-22.24-49-29.08-166.09-100.19-307.29-246.41-400.38-152.71-97.22-317.47-121.07-492.14-71-13.55,3.89-31.06,6.59-33.06,22.77-2.17,17.59,16.62,20.74,28.5,27.12,348.64,187.14,491.71,495.21,512.91,874.11,5.77,103.19-2,206-19.75,308-3.25,18.74-6.16,37.6-10.57,56.08-2.85,11.88-5,28-21.92,26.13-18.31-2.06-14.05-19.25-12.73-30.43,3.7-31.43,10.3-62.53,14.53-93.92,29.06-215.28,20.85-428-57.29-632.82-153.67-402.79-542.08-629.73-971.8-552.76-142.37,25.5-266.39,88.83-382.2,172.13-16.09,11.57-30.08,29.64-54,25.26-19.85,12.73-40.4,24.48-59.4,38.38-58.1,42.5-121.11,80.58-146.72,154.1,25.87,13.51,3.8,25.73-1.89,36.9-52.62,103.21-75.65,207.48-14.18,315.71l48.91-8.27c-2.47-58-12.46-116.29,4.89-173.5,4.63-15.29,6.28-41.05,29.28-35.16,25.74,6.58,9.64,28.86,5.91,43.7-21,83.29-2.83,161.59,28.36,238.5,19.83-.17,25.52-18.7,37.53-28.91,14-30.69,16.51-64.16,22.05-96.78,7-41.09,19.5-80.43,41.4-115.44,17.28-27.63,26.65-55.23,27.58-88,1.76-61.73,23.35-117.27,61.27-166.33,10.93-14.16,22.48-30.54,42.2-23.24,22.7,8.41,12.75,28.54,10.14,45.13C2285.59,656.3,2363.15,812.35,2525,898.51c15.18,8.08,33.36,12.19,37.81,32.52,47.13-3.15,95.48,5.84,141-14-15.23-30.87-31.36-61.32-45.35-92.75-8.3-18.63-14.44-38.48-19.24-58.34-3.5-14.5-11-36,7.45-41.59,21.19-6.49,23.3,17.36,26.32,31.15,17.48,79.95,63.36,143.37,114.72,204.2,20.31,24.07,54,33.6,67.62,64.36,38.4,28.65,68.52,65,86.37,108.81.61,1.48,1.24,2.94,1.92,4.35.45,1,.93,2,1.43,3,1.35,2.71,2.8,5.36,4.32,7.94.52.92,1.07,1.81,1.63,2.7,2.93,4.84,6.1,9.51,9.3,14.16l3.91,5.67c.69,1,1.36,2,2,3,2.78,4.09,5.49,8.19,8,12.41.57.93,1.11,1.86,1.63,2.8s1,1.71,1.43,2.58c.18.31.35.63.5,1,.5.93,1,1.87,1.46,2.82s1,2.15,1.54,3.26c.26.56.52,1.15.76,1.74.2.41.37.84.54,1.28.59,1.41,1.15,2.86,1.67,4.32v0c2.55-1.52,5.13-3,7.72-4.41,1.73-1,3.45-2,5.12-3a76.87,76.87,0,0,0,7.34-4.91c45.14-34.62,95.09-38.64,142.35-11.1,52.63,30.69,72,80.21,63.45,142.18-7.24,52.34-189.33,172.59-196.91,298.38-5.57,92.28,19.17,177.8,105.47,234.14,100.12,65.4,186.65,146.5,259.57,241.74,158.4,206.94,215.89,448.31,238,701.21,14.59,167.11,4.15,332.44-45,494.08-.83,2.69-1.85,5.52-2.85,8.43-.45,1.3-.89,2.62-1.32,3.95-3.09,9.8-4.72,20,3.84,28,4.43,4.15,8.93,5.36,13.42,5,3.87-.3,7.76-1.82,11.6-3.69,4.82-2.3,9.58-5.13,14.23-6.8,58.44-21,364.81-140.07,181.46-472.29-20.63-11.62,81.54-199.5,88.6-293.3,2.13-28.33,6.75-56.45,10.25-84.71-11.92-62.53-36.55-120.24-71.43-172.69-34.17-51.37-66.77-102.54-74.55-165.4-83.33-200.64,40-382.48,257.53-381.09,48,.31,92.85,17.14,139.92,21.09,21.44-7.71,29.71-27.54,39.4-45.11q2.86-5.18,5.41-10.64C4206.25,1682.5,4213.05,1627.36,4208.36,1571.77Zm-1109-506.5c-1.87,9.43-8.45,14-17,12-12.12-2.91-24.42-6.6-35.43-12.29-137.2-70.87-222.34-186.46-278.66-326.42-5.08-12.67-14.18-29.41,4-37.23,19.28-8.3,24,11.42,28.69,23.48,55.38,142.69,144.59,255.22,284.59,323.49C3099.32,1055,3100,1058.63,3099.38,1065.27Zm101.74-11.51c-7.08,8.58-17.51,7.93-25.7,2.07-8.84-6.3-17.55-13.84-23.74-22.63-36.57-52-66.7-107.3-81-165.62-.46-14.18-.11-24.5,12.07-26.36,9.34-1.42,14.23,6.55,16.79,14,22.16,64.85,52.28,125.23,97.16,177.64C3201.88,1039,3207.33,1046.27,3201.12,1053.76Z"/> <path class="cls-2" transform="translate(-290.22 -75.88)" d="M3595.52,3335.84c-3.84,1.87-20.59,2.89-25-1.26-8.56-8-6.93-18.22-3.84-28,.43-1.33.87-2.65,1.32-3.95,1-2.91,2-5.74,2.85-8.43,49.15-161.64,59.59-327,45-494.08-22.11-252.9-79.6-494.27-238-701.21-72.92-95.24-159.45-176.34-259.57-241.74-86.3-56.34-88.1-148.76-105.47-234.14-5.37-26.39,88-175.38,118.32-184.94,36.45-30.67,71.35-61.1,78.59-113.44,8.57-62-10.82-111.49-63.45-142.18-47.26-27.54-97.21-23.52-142.35,11.1a76.87,76.87,0,0,1-7.34,4.91c-1.67,1-3.39,2-5.12,3-2.59,1.44-5.17,2.87-7.72,4.39v0c-10.62,21.09-22.34,41.75-31.38,63.53-4.43,10.67-11,26.93,4.56,33.08,15.36,6.08,21.66-7.08,24.87-20.72,1.43-6.08,4.56-11.79,7.21-17.55,24.28-52.58,74.52-77.67,123.24-61.62,45.65,15,74.24,70.48,64,124.06-10.53,55.06-58.4,93.18-111.46,88.77-3.15-.26-6.28-.78-9.45-1-16.62-1.17-39.55-22.35-48.22,2.76-10.75,31.1,21.63,31.41,42.27,40.18-50.26,62.62-83.58,129.65-64.6,213.2,17.66,77.65,34.28,155.14,101.46,208.4,210.57,129.67,348.62,316.76,421.2,550.16,84.88,272.9,106.65,551.13,34,830.64-32.84,126.39-87.66,243.78-210.86,309.35-131.34,69.9-273,77.48-416.95,54.67-105.25-16.66-207.7-44.46-304.38-91-46.58-22.42-86.44-52.82-118-93.88-4.78-6.23-14.79-13.72-13.62-18.43,2.28-9.15,3.33-16.71,3.33-23,0-1.3-.05-2.54-.13-3.71s-.22-2.32-.39-3.43c-.07-.41-.16-.85-.24-1.28a10.83,10.83,0,0,0-.26-1.24c-.11-.54-.26-1.09-.42-1.61a7.75,7.75,0,0,0-.24-.78c-.06-.26-.15-.5-.23-.74s-.22-.63-.35-.93-.33-.78-.5-1.18a6.92,6.92,0,0,0-.46-1c-.15-.33-.32-.65-.5-1a20.49,20.49,0,0,0-1.39-2.17,15.86,15.86,0,0,0-1.08-1.37c-.29-.34-.59-.67-.89-1a15.32,15.32,0,0,0-1.24-1.18c-.41-.37-.85-.71-1.3-1.06a25.66,25.66,0,0,0-3.18-2l-1.12-.59s0,0-.05,0c-.45-.22-.91-.41-1.39-.61s-.95-.41-1.45-.59a19,19,0,0,0-1.89-.63c-.37-.13-.76-.23-1.15-.34s-1.05-.29-1.59-.42-1.09-.26-1.63-.36c-.91-.2-1.82-.37-2.76-.53l-1.73-.26c-.24,0-.46-.06-.68-.08-.67-.09-1.32-.18-2-.24l-.17,0-2.09-.2c-2.73-.24-5.56-.39-8.4-.48l-2.95-.11-6.11-.17-3-.11c-1.52-.06-3-.13-4.51-.22a103.42,103.42,0,0,1-11.43-1.28h0c-1.35-.26-2.67-.54-3.95-.89h0c-2.38,0-4.75-.06-7.14-.11q-7.17-.17-14.4-.5c-4.82-.23-9.67-.52-14.53-.84-2.43-.18-4.87-.35-7.3-.55s-4.89-.41-7.34-.63l-7.34-.71q-11.79-1.22-23.65-2.83c-4-.54-7.91-1.13-11.86-1.71-2-.31-4-.61-6-.94-4-.65-7.92-1.32-11.9-2-2-.34-4-.69-6-1.08q-6-1.11-11.93-2.3c-3-.61-6-1.22-8.94-1.85s-6-1.28-8.95-2c-4-.86-7.95-1.8-11.93-2.75s-8-1.94-11.9-3c-2-.5-4-1-6-1.54s-3.95-1-5.93-1.59-3.95-1.06-5.93-1.62l-8.64-2.44q-10.26-3-20.44-6.21-3.14-1-6.23-2c-2.81-.91-5.63-1.82-8.41-2.78q-10.36-3.45-20.59-7.19c-2.45-.89-4.91-1.8-7.34-2.71-2.8-1-5.6-2.11-8.39-3.19s-5.56-2.15-8.34-3.26-5.51-2.22-8.25-3.35-5.62-2.32-8.43-3.49c-2.19-.94-4.38-1.87-6.58-2.83l-3.43-1.5c-2-.86-4-1.75-6-2.67-3.21-1.43-6.4-2.89-9.6-4.36-1.73-.81-3.45-1.61-5.16-2.44-1.46-.67-2.89-1.36-4.35-2.06-3-1.45-6-2.91-9-4.39q-7.14-3.51-14.16-7.19c-1.91-1-3.83-2-5.74-3-2.17-1.16-4.34-2.33-6.49-3.5s-4.24-2.32-6.34-3.5q-8-4.42-15.73-9c-1.45-.85-2.89-1.72-4.32-2.59-3.78-2.26-7.54-4.58-11.23-6.9-2.13-1.35-4.26-2.7-6.36-4.07-1-.65-2-1.3-3-2q-2.91-1.89-5.78-3.83c-1.91-1.28-3.8-2.56-5.67-3.86s-3.76-2.59-5.6-3.91-3.7-2.61-5.52-3.93c-3.58-2.59-7.12-5.21-10.58-7.84-1.71-1.31-3.39-2.61-5.06-3.91s-3.39-2.65-5-4c-1.52-1.19-3-2.41-4.49-3.63-2.33-1.91-4.63-3.82-6.87-5.75-2-1.7-4-3.41-5.9-5.15-1.4-1.24-2.76-2.45-4.11-3.69s-2.85-2.56-4.24-3.89-2.69-2.5-4-3.78q-6.06-5.76-11.66-11.66c-1.13-1.17-2.22-2.33-3.28-3.5s-2.18-2.32-3.22-3.5q-7.95-8.76-14.9-17.74c-.63-.78-1.24-1.59-1.82-2.37l-.37-.5c-.44-.56-.85-1.13-1.28-1.69-1.57-2.09-3.07-4.17-4.52-6.26-.85-1.19-1.67-2.41-2.48-3.62q-2.48-3.66-4.73-7.3c-.68-1.07-1.35-2.15-2-3.24-.78-1.3-1.54-2.58-2.28-3.89-.22-.37-.41-.73-.63-1.1-.54-.92-1-1.85-1.54-2.78-.7-1.22-1.35-2.46-2-3.7-1.74-3.34-3.36-6.71-4.86-10.07-.29-.63-.57-1.26-.83-1.89a3.29,3.29,0,0,1-.17-.39c-.2-.42-.39-.83-.55-1.26a1.24,1.24,0,0,1-.1-.29c-.33-.71-.63-1.45-.92-2.17q-2.79-6.84-4.9-13.75c-.27-.8-.5-1.63-.72-2.43-.41-1.39-.81-2.8-1.15-4.21-.18-.68-.35-1.33-.52-2-.31-1.24-.59-2.48-.85-3.72q-.59-2.59-1-5.21c-.16-.76-.26-1.54-.39-2.3a5.65,5.65,0,0,1-.11-.7c-.13-.76-.24-1.52-.35-2.28a7.3,7.3,0,0,1-.13-1c-.13-.84-.24-1.67-.33-2.52s-.19-1.71-.26-2.58-.15-1.48-.19-2.22c-.09-.91-.15-1.84-.2-2.78,34.86,16.95,49.78,52.43,77.91,73.39,19,14.14,35.92,31.06,54.76,45.46,10.88,8.3,25.84,20.75,37.07,5.24,11.08-15.31-8.58-21-17.4-27.3-55.88-39.88-97.34-91.7-129.4-151.72-20.48-19.43-22-43-14.86-70.87,25.13,4.11,32.91,25.22,44.55,42,24.74,34,58.1,58.75,90.35,84.75,10.25,8.27,23.33,17.91,33.17,7.34,12.1-13-3.93-21.35-12.64-29.65-38.84-37-76-75.5-105.47-120.54-7.78-11.82-14-24.79-19.88-37.71-4.6-10.18-8.77-23.17,0-31.32,12.75-11.9,24,1.7,32.51,8.69,51.31,42,101.61,85.21,152.39,127.86,8.45,7.13,17.74,13.25,26.24,20.35,12.05,10.08,26,14.79,38.66,4.76,11.49-9.14,6.86-24.3,2.62-35.58-14.94-39.72-33-78.38-35.05-126.06,25,2.39,40.88,16.25,56,31.28,35.86,35.68,73.5,69.81,106.8,107.75,50.1,57.14,111.87,94.83,182.18,120.5,24.11,2.5,38.59-4.15,50.84-29.43,28-57.8,86.23-73.19,143-80.93,139.68-19,269.22-.32,367.63,115.46,9.47,11.15,21.37,32.43,37.46,19.57,20.86-16.63-4.17-29.43-12.25-42.83-8.71-14.42-27.12-22.48-28.69-46.72,51.83,4.89,98.65,18.6,140.14,48.81,12.38,9,26.84,26.82,39.85,9.86,15.45-20.18-8.49-30-21.15-39.79-27.76-21.42-62.51-27.78-94.68-38.53-28.93-9.67-40.68-23-36.62-54.67,14-108.68,16.92-218.15,18.18-327.6.18-14.24,7.78-38.18-13.05-40.07-26.56-2.39-19.42,23.78-20.31,39.33-6,106.08-11.77,212.18-16.05,318.33-1.3,32.51-11.86,46.37-46.15,38.07-40-9.69-81.1-15-121-25.15-83.73-21.35-167.22-20.48-248.69,6.19-33.21,10.88-41.22,1.22-53.54-27.56q-124.35-290.47-253.68-578.83c-13.16-29.45-13.14-50.17,6.56-77.23,61.75-84.9,127.14-166.16,207.48-234.29,4.48-3.78,8.82-7.8,13.19-11.75q2.18-2,4.39-3.95c2.36-2.09,4.75-4.15,7.18-6.15,1-.87,2.13-1.74,3.22-2.56.76-.63,1.54-1.22,2.32-1.81,1.26-.93,2.52-1.84,3.8-2.73a90.23,90.23,0,0,1,8-5c.67-.37,1.37-.73,2.06-1.1,1.41-.74,2.82-1.42,4.28-2s2.93-1.21,4.45-1.75,3-1.07,4.63-1.5c.8-.22,1.58-.44,2.39-.63s1.63-.39,2.45-.57c.7-.39,1.37-.78,2-1.17a4.34,4.34,0,0,0,.46-.28q2.45-1.5,4.73-3c.76-.5,1.52-1,2.26-1.54,1.18-.83,2.33-1.67,3.46-2.5.56-.41,1.1-.83,1.65-1.28,1.45-1.13,2.84-2.28,4.19-3.46.91-.76,1.78-1.56,2.63-2.36s1.67-1.61,2.47-2.41,1.41-1.46,2.11-2.18c.48-.52,1-1,1.41-1.56s.72-.8,1-1.19.68-.81,1-1.2c.68-.8,1.31-1.61,1.94-2.41.76-1,1.47-2,2.17-2.93.5-.7,1-1.39,1.41-2.09s1-1.56,1.5-2.34a.35.35,0,0,0,.06-.09c.46-.76.92-1.54,1.35-2.3.93-1.61,1.78-3.22,2.58-4.87.4-.8.79-1.63,1.16-2.45s.67-1.48,1-2.24.63-1.47.92-2.23a2.81,2.81,0,0,0,.19-.53c.33-.84.63-1.69.94-2.54.89-2.54,1.67-5.12,2.36-7.73.22-.78.42-1.59.61-2.39a.67.67,0,0,0,0-.22c.26-1,.5-2.08.72-3.15,0,0,0-.1,0-.15.24-1.08.44-2.17.63-3.26v-.06c.39-2.24.74-4.47,1-6.73a.16.16,0,0,0,0-.09c.27-2,.48-4.06.66-6.1.08-.89.15-1.76.21-2.65.09-1.33.16-2.65.24-4s.11-2.65.15-4c0-.89.07-1.78.09-2.69,0-1.78,0-3.58,0-5.39,0-2,0-4-.06-6,0-1.18,0-2.35-.09-3.54s-.06-2.37-.11-3.57c-.06-2.21-.15-4.45-.26-6.66s-.19-4.46-.32-6.69c-.18-3.89-.39-7.8-.57-11.69s-.32-7.67-.45-11.49c-.05-1.84-.11-3.69-.13-5.52-.05-1.19-.07-2.41-.05-3.6s0-2.13,0-3.17a56.49,56.49,0,0,0-.87-9.19c-.11-.76-.26-1.52-.39-2.3s-.24-1.3-.35-2c-.17-.84-.32-1.69-.5-2.56,0-.17-.06-.35-.08-.52-.18-.93-.35-1.87-.52-2.8-.2-1.09-.37-2.17-.55-3.26-.06-.41-.11-.8-.15-1.22a49.51,49.51,0,0,1-.5-9c0-.52.07-1,.11-1.57s.07-.74.13-1.13.11-.69.17-1,.09-.54.16-.82.13-.57.19-.85c.13-.57.31-1.13.48-1.7s.37-1,.56-1.54.46-1,.7-1.54.54-1,.83-1.52.63-1,1-1.48.72-1,1.11-1.45c.26-.33.54-.65.85-1s.61-.65.93-1,.59-.56.89-.86.41-.37.63-.55.37-.32.57-.48c.37-.3.76-.6,1.17-.91.61-.45,1.28-.93,2-1.37s1.35-.84,2.07-1.26h0c-.39-.82-.76-1.65-1.15-2.47q-1.11-2.48-2.15-5c-.68-1.68-1.35-3.33-2-5-.5-1.37-1-2.71-1.48-4.08s-.93-2.72-1.36-4.09c-.35-1.06-.68-2.1-1-3.17l-.78-2.65c-.35-1.23-.68-2.47-1-3.69-.44-1.63-.83-3.26-1.2-4.89q-.91-3.93-1.63-7.94c-.32-1.72-.63-3.44-.89-5.17s-.5-3.46-.73-5.2-.44-3.47-.61-5.21-.35-3.47-.48-5.23-.26-3.5-.35-5.26-.17-3.52-.22-5.28c0-.87-.06-1.76-.06-2.65s0-1.76,0-2.65c-.09-7.36.15-14.76.67-22.24-80.84,2.87-160.51-3.62-236.81-32.68-120.91-46-194.8-137.71-243.54-253.32-7.23,71,34.47,121.67,75.56,170,73.72,86.75,167.94,136.4,283.12,145.91,68.65,5.7,70.43,10,82.6,81.39,1.58,9.34,5,18.35,6.82,27.67,12.12,63.29,8.6,113.18-55,158.68-105.71,75.63-189.59,176.36-263.07,291.17-38.68-60.59-60.44-124.32-86.46-186.07-.42-1-.85-2-1.26-3s-.79-1.95-1.2-2.95-.89-2.26-1.35-3.39q-.9-2.31-1.82-4.62c-.13-.35-.26-.7-.39-1-.37-.93-.74-1.84-1.09-2.75-.11-.29-.21-.57-.34-.83-.83-2.08-1.68-4.15-2.52-6.21-.44-1-.85-2-1.31-3.06-.87-2-1.78-4-2.73-6-.44-.94-.89-1.87-1.35-2.78-.65-1.33-1.35-2.65-2-3.93-.41-.78-.85-1.55-1.28-2.3s-.81-1.4-1.22-2.09c-.65-1.06-1.32-2.13-2-3.15-.58-.87-1.17-1.74-1.78-2.58l-.91-1.26c-.46-.61-.94-1.24-1.43-1.85s-1-1.19-1.48-1.8l-1-1.18c-.7-.76-1.41-1.52-2.15-2.25-.37-.4-.74-.76-1.11-1.11-.93-.89-1.89-1.78-2.89-2.63-.8-.7-1.63-1.37-2.48-2l-.62-.48c-.68-.5-1.37-1-2.07-1.45-.54-.37-1.08-.74-1.65-1.09s-1.32-.8-2-1.17-1.26-.72-1.91-1.06-1.5-.76-2.28-1.13-1.54-.72-2.35-1c-.45-.19-.93-.39-1.41-.56s-.89-.37-1.34-.54c-.87-.31-1.74-.61-2.65-.89a73.14,73.14,0,0,0-8-2c-36.21,13-73.15,22.48-111.71,24.76-136.2,42.55-276.53,68.62-414.47,104.26-67.46,17.42-135,34.55-202,53.56-12.56,3.56-20.7,5.58-30.28-10.34l252.86-120.33c-17.75-24.67-33.21-8.88-45.26-4.12-106.36,42-211.66,86.24-309.38,146.71-13.81,8.54-29.41,19.29-50.5,8.93,23.42-38.51,65.34-54.45,98.24-79.49,165.87-126.26,341.87-235,541.64-301.43,39.82-13.23,60.6-6.78,78.63,31.08,24.5,51.39,54.21,100.28,81.67,150.26,28.53,1,24.91-17.55,21.84-35.77-28.56-28.78-36.51-68.55-54.14-103.09-10.47-20.54,2.54-39.81,14.72-56.79,42.14-58.69,103.35-97.22,155.19-145.63,27-25.26,41.7,19.63,75.91,14.4-66.77-98.59-123.28-198.08-118.33-318.48-2.32-13.94-.3-31-7.73-41.24-26-35.79-9.93-51.28,24.59-60.9-8.78-5.69-6-12-.89-18.31,35.83-175.87,50.62-355.62,95.82-541.82,25.15,53.43,40,98.39,66,137.86,15,22.84,32.43,42.89,56.19,56.6,17.62,10.16,30.56,9.75,28.67-16-2-1-3.93-2-5.82-3.11-.93-.54-1.87-1.08-2.78-1.63-2.78-1.65-5.43-3.38-8-5.21-1.7-1.19-3.35-2.45-5-3.71-1.31-1-2.57-2.07-3.81-3.11-1.86-1.59-3.67-3.21-5.43-4.89-.58-.54-1.17-1.1-1.73-1.67-27.43-27.08-41.23-64.16-56-99.54-35.84-86.16-33.3-172.5,11.6-258C2262,629.84,2308.31,737,2380.62,835.2c38.59,45.33,88.07,74.82,142.41,96.89,12.88,5.23,26.82,10.49,39.77-1.06-4.45-20.33-22.63-24.44-37.81-32.52-161.84-86.16-239.4-242.21-210.71-423.62,2.61-16.59,12.56-36.72-10.14-45.13-19.72-7.3-31.27,9.08-42.2,23.24-37.92,49.06-59.51,104.6-61.27,166.33-.93,32.82-10.3,60.42-27.58,88-21.9,35-34.41,74.35-41.4,115.44-5.54,32.62-8.08,66.09-22.05,96.78-2.43,101.08-20.54,200.28-40.35,298.93-29.52,147.1-31.28,289.17,60.51,416.82-73.57,45.57-137.68,97.76-185.9,167.85-5.19,7.56-10.27,28.45-21.35,15.81-45.89-52.43-94.67-19.31-139.5-5-196.07,62.53-624.14,260.7-622.29,346,8.6,11.38-14,43.77-18.25,51.72-10.46,15.53-71.63,10.12-78.34,2.36-106-78.6-218.11-149.06-318-236-6.69-1.48-13.56.46-42.31-17.92-17.14-6-28.78.87-42,12.73-35,31.47-23.28,64.14-7.56,98.8q136.32,300.51,271.56,601.55c9,20,28.59,39.55,12,65.74-24.89,39.38-20.44,81-8.47,123.61,31.45,112,92.93,206.83,165.46,295.64,39.87,4.09,62.27,35.41,89.15,58.75,47.37,41.14,103.74,69.42,153.67,112.32-66.83-3.17-131.86,1.28-196.93-1.39-112.42,14.4-213.27,50.3-275.77,153.6-49.81,82.31-55.65,170.13-28,261,28.85,94.66,86.92,159.58,186.46,181.88,6.24,2.13,12.86,7.17,9,12.69-5.61,8-13.58,3-19.86-2l-284.11-60.19-3.06,25.67c81,29.17,165.5,43.14,250.1,55.17,35.34,5,49.41,15.44,44.59,53.82-6.78,53.82-1.22,107.28,22.68,158,37.55,79.62,100.58,118.83,187.09,125.63,16.11,1.25,38.31-12.58,48.58,12.94,4.54-9.88,11.73-14.1,19.66-4.95,3.19,3.69,3.3,7.19,1.65,10.27a12.83,12.83,0,0,1-.74,1.17,4.78,4.78,0,0,1-.48.61,13.18,13.18,0,0,1-.93,1.07,24.31,24.31,0,0,1-5.71,4.19,0,0,0,0,1,0,0,136.65,136.65,0,0,1-10.82,13c-1.24,1.32-2.52,2.63-3.82,3.89q-1.69,1.65-3.46,3.21t-3.51,3.06c-1.18,1-2.37,2-3.59,2.91-1,.79-2,1.52-3,2.26-.44.33-.87.65-1.33,1-1,.74-2,1.45-3.08,2.15-.18.13-.37.26-.55.37-2.3,1.54-4.64,3-7,4.41l-.26.15c-1.22.72-2.46,1.41-3.72,2.08-1.11.61-2.21,1.2-3.34,1.76l-1.52.79c-1,.47-1.89.93-2.85,1.36-1.24.59-2.5,1.15-3.76,1.72-.6.28-1.21.54-1.82.78-3.3,1.41-6.65,2.72-10,3.91-1.33.48-2.67.94-4,1.37-1.89.63-3.78,1.22-5.69,1.8-1.63.5-3.26,1-4.91,1.39-1.93.52-3.89,1-5.84,1.52q-2.05.49-4.11,1c-1.34.32-2.69.63-4.06.89-.54.13-1.08.24-1.63.35-1.28.28-2.56.52-3.84.76-2.24.43-4.5.84-6.76,1.23-2.76.48-5.54.92-8.32,1.33s-5.43.78-8.14,1.13c-7.67,1-15.33,1.84-22.94,2.61a1263.34,1263.34,0,0,1-145.54,6.25c-4.76-.09-9.51-.17-14.25-.3l-4.34-.13q-8.53-.24-17.07-.61-4.44-.19-8.86-.44c-1.92-.08-3.83-.19-5.74-.3q-15.12-.81-30.14-2c-2.7-.22-5.41-.44-8.11-.68-5.14-.43-10.31-.91-15.46-1.43l-5.93-.59c-5-.52-10.06-1.06-15.07-1.67-3-.32-5.93-.69-8.89-1.06s-5.93-.74-8.88-1.13c-2.48-.31-5-.65-7.43-1l-3.28-.46c-2.32-.32-4.67-.65-7-1q-8.87-1.28-17.68-2.7c-2.76-.43-5.54-.89-8.32-1.34-2.15-.35-4.32-.72-6.47-1.11-3-.5-5.93-1-8.89-1.57-3.84-.67-7.66-1.36-11.51-2.1l-8.77-1.7c-2.91-.56-5.84-1.15-8.75-1.76s-5.85-1.17-8.76-1.8-5.82-1.24-8.73-1.87-5.82-1.28-8.73-1.93-5.8-1.3-8.71-2c-5.73-1.32-11.47-2.69-17.18-4.1s-11.73-2.94-17.57-4.48-11.56-3.06-17.31-4.65c-2.89-.78-5.78-1.6-8.65-2.43s-5.75-1.63-8.62-2.47q-12.93-3.72-25.8-7.78c-2.87-.89-5.74-1.8-8.6-2.71l-8.56-2.78c-2.87-.94-5.71-1.87-8.56-2.83s-5.71-1.91-8.55-2.89c-5.7-1.93-11.39-3.93-17.05-5.95L578,4310q-8.51-3.09-17-6.3c-2.83-1.06-5.67-2.15-8.5-3.24s-5.64-2.19-8.47-3.3-5.62-2.21-8.45-3.34l-8.45-3.41q-21.11-8.61-42.09-17.9c-2.78-1.26-5.58-2.5-8.38-3.76s-5.58-2.52-8.36-3.8-5.54-2.54-8.3-3.84l-.07,0c-5.25-2.44-10.51-4.91-15.74-7.43q-1.31-.61-2.61-1.26h0c-.39-.2-.78-.39-1.17-.56-2.33-1.16-4.63-2.31-6.93-3.5s-4.63-2.41-6.93-3.67c-3-1.65-6-3.37-9-5.13-1-.56-1.92-1.13-2.85-1.71-.67-.4-1.35-.81-2-1.24-1-.63-2.06-1.28-3.08-1.94-2.31-1.49-4.59-3-6.85-4.58-1.06-.74-2.15-1.5-3.21-2.28s-2.13-1.54-3.17-2.34c-.8-.59-1.59-1.2-2.35-1.79q-2.08-1.62-4.12-3.32c-.94-.76-1.85-1.52-2.74-2.3s-1.54-1.33-2.3-2c-.33-.28-.65-.59-1-.87-.87-.78-1.72-1.56-2.56-2.39s-1.54-1.45-2.3-2.21c-1.13-1.09-2.22-2.22-3.31-3.35-.65-.67-1.3-1.35-1.91-2-1.21-1.3-2.41-2.65-3.58-4-.8-.95-1.61-1.91-2.39-2.89s-1.69-2.08-2.5-3.15a138.25,138.25,0,0,1-15.05-24.49c-18.94-13.21-25.37-38.64-47.57-48.66,2.57,48.79,27.85,84,60.69,113.84,6.62,6,13.57,11.85,20.7,17.5,58.6,46.5,127.58,72.65,198.28,94.55L654.54,4364l78,17.46c-.11,3.89-.24,7.77-.37,11.68-10.33-2.3,134,27.65,184.42,26.39,104.89-2.62,211.51,4.33,317.2,4.56,696.63,1.48,2132-37.35,2119.3-41.52,19.83-14.73,312-343.69,322.24-546.21q1.26-25.34,1.43-51.1v0c.28-38.59-1.2-77.88-3.95-117.65-6.06-87.49-28-171.93-59.93-253.14C3608.31,3403,3600.34,3333.54,3595.52,3335.84Zm-1516.5-417c-.94-.54-1.85-1.08-2.78-1.63l3.1-4.27c.89,1,2.52,2.1,2.48,3.1S2080,2917.91,2079,2918.84ZM842.76,2097.15c-61.09-17.07-111.4-52.41-159.88-90.79C755.25,2004.41,790.46,2065.24,842.76,2097.15Zm121.09,752.67c-15.53-37.86-11.29-64.46,3.84-89.79,3.41-5.71,13.34-6.75,15.9-.76C997,2790.44,980.79,2816,963.85,2849.82Zm73.65-92.48c7.3-5.72,14.77-5.48,20.89,1.15,9.76,10.55,10.13,22.91,2.89,34.71-25.65,41.85-41,88-58.73,139.8C985.46,2887,1008.11,2780.32,1037.5,2757.34Zm16.88,121.34c6.12-11.66,6.84-28.62,24.82-33.36,22.81,24.94,6.5,51.11.72,75.61s-15.47,48.43-13.49,74.06c.5,6.47,7.26,15.92,13.1,17.73,9.47,3,11.94-7.15,14.12-14.82.86-3,1.54-6.3,3.14-9,11.21-18.46,7.24-58.31,35.32-50.95,24.87,6.54,6.89,41.77,8.69,64.16,2.45,30.58-25.17,60.29-2.5,91.85,4.06,5.65.41,12.4-5.3,16.12-12.42,8.12-20.2-1.17-29-8C1021.69,3038,1006.2,2970.54,1054.38,2878.68ZM1300.05,3258c-66.49-37.25-113-105.6-198-113.79l6.45-13.42c26.82,5,53.65,10,96.61,18-63.77-59.2-25.35-120-26.83-178.14-.71-28.39-11.51-50.19-29.71-72.46-24-29.4-44.07-63.66-47.26-102.9-3.87-47.31-26.34-72.42-75-71.64-24.33.4-37.27-7.62-47.31-29.66-84.1-184.53-169.45-368.48-253.31-553.11-6.28-13.82-24.53-32.71-5.65-46.38,15.18-11,33.79,2.13,47.87,12.08,87.18,61.55,186.09,101.93,278.57,153.86,34.86,19.59,50.74,45.64,65.88,80.67,52.15,120.59,110.64,238.39,164.16,358.39,106.47,238.7,214.91,476.46,327.53,712.32,1.91,4,2,8.86,2.91,13.36a5.39,5.39,0,0,0,.56.08l2.37,2.28c-1-.61-1.89-1.24-2.85-1.84a5.06,5.06,0,0,1-.08-.52c-32.23-4.5-56.91-24.83-84-40.27C1448.78,3342.53,1374.68,3299.85,1300.05,3258Zm-60.88,995.82a2.71,2.71,0,0,1-.52-.15c.56-.76,1.12-1.55,1.71-2.33C1240,4252.21,1239.58,4253,1239.17,4253.86Zm1.23-2.54c.16-.33.31-.63.46-1a0,0,0,0,1,0,0l-.11-.07c-17.09,4.52-32.77,5.65-47.3,4q-2.09-.22-4.11-.54c-1.37-.2-2.71-.44-4.06-.7q-4-.78-8-1.84c-1.3-.33-2.59-.72-3.87-1.11s-2.56-.83-3.82-1.28-2.52-.9-3.76-1.39h0c-1.13-.46-2.26-.92-3.37-1.42a7.08,7.08,0,0,1-.65-.28c-.78-.32-1.56-.69-2.34-1.06a10,10,0,0,1-1-.46c-1.61-.78-3.19-1.58-4.78-2.43-2-1-3.91-2.11-5.82-3.28-1.15-.7-2.3-1.39-3.43-2.15-.7-.44-1.37-.87-2-1.35-.92-.58-1.83-1.21-2.74-1.89-.65-.43-1.3-.91-2-1.39-1.1-.78-2.19-1.6-3.28-2.45-14.18-10.95-27-24.87-39-40.62-65.94-86.88-59.73-206.64,18.81-278-4.5,30.56-7.1,60.25-7.1,88.79,0,2,0,3.91,0,5.84,0,2.17.06,4.35.13,6.49.11,3.83.26,7.61.45,11.39.14,2.34.29,4.71.46,7.06.13,1.93.3,3.88.46,5.82.34,3.82.74,7.64,1.19,11.42q1.53,13.07,4.06,25.72c.26,1.39.57,2.78.85,4.14a288,288,0,0,0,8.54,31.26c.37,1.13.76,2.24,1.15,3.34s.8,2.26,1.21,3.37q.78,2.15,1.59,4.26c.72,1.82,1.43,3.62,2.17,5.43,1,2.45,2.09,4.91,3.17,7.34.57,1.28,1.17,2.56,1.76,3.84s1.22,2.54,1.85,3.83c1.45,3,3,5.9,4.58,8.84,1.28,2.38,2.63,4.75,4,7.1l.32.56c.68,1.15,1.37,2.28,2.07,3.41s1.56,2.54,2.36,3.8c.57.89,1.13,1.76,1.7,2.63a247,247,0,0,0,20.07,26.43c.52.59,1,1.18,1.54,1.76,1.3,1.48,2.6,2.94,3.95,4.37.8.87,1.61,1.71,2.43,2.58s1.63,1.72,2.48,2.57,1.65,1.69,2.52,2.54,1.69,1.69,2.56,2.52,1.74,1.67,2.63,2.49q2.64,2.52,5.39,5c1.08,1,2.17,1.95,3.3,2.91.95.84,1.95,1.67,2.95,2.52,1.7,1.43,3.41,2.84,5.15,4.23l3.56,2.83c1.17.91,2.37,1.82,3.56,2.73,4.41,3.35,9,6.63,13.73,9.82.87.59,1.72,1.17,2.61,1.74,3.56,2.39,7.21,4.71,11,7h0s0,0,0,0a.42.42,0,0,0,.15,0h0l0,0-.07.11.17.11Zm-29.88-402.4c-10.08,7.51-20.46,28.71-34.51,13.23-17.29-19.05,8.27-26.78,18-35.36a1810.81,1810.81,0,0,1,255.64-188.86c11.66-7.14,27.15-10.49,32.14-27.69-65.81-40.66-138.87-68.07-218.5-107.38,35.91-12.68,55.11-.39,73.94,8q75.78,33.84,150.49,70.08c14.9,7.22,27.76,14,43.83,2.74,55.65-38.92,111.73-77.23,167.66-115.79-23.83-.71-35.13-14.48-44.79-35.53-73.28-159.64-148.28-318.49-222-478-95.61-206.94-190-414.5-286.16-621.18-15.7-33.75-14.18-47.09,26.91-56.95q445.92-107,890.46-219.65c39.88-10.08,50.13,11,62.27,38.77q84.51,193.17,169.91,386,102.88,233.68,205.67,467.42c14.07,32-16.06,99.81-49.2,112-15.16,5.59-23.2-5.66-33.71-12-70-42.24-124.67-102.23-183.16-157.83-27.43-26.07-55.06-52-83.9-76.46-45.7-38.72-71.81-28.58-82.6,29.69-3.19,17.25,6.82,42.07-18.51,48.89-21.63,5.85-34.07-13.48-47.54-26.23-25.28-24-48.28-50.48-82.3-63.23-48.65-18.24-80.73,4.84-72.63,54.82,3.09,18.94,7.39,33.25-16.74,40.31-12.06,3.52-16.81,18.2-13,27.87,27.17,69.72-30,147.56,25.13,216,47.69,59.25,103,106.62,170,141.46,18,9.34,35.69,19.22,59.34,32-3.26,1-6.49,2-9.71,3-3.8,1.19-7.58,2.41-11.34,3.62-2.6.85-5.21,1.7-7.79,2.57-23.29,7.69-45.81,15.72-67.77,24.19q-4.43,1.7-8.86,3.46-8.5,3.32-16.92,6.79c-3,1.24-6.08,2.48-9.1,3.76q-12.09,5-24,10.32c-2.06.89-4.12,1.82-6.17,2.74q-15.54,7-30.82,14.33l-7.62,3.71c-2.54,1.24-5.08,2.5-7.6,3.76q-6.42,4.56-12.84,9.1l-7,4.93q-7.2,5.11-14.47,10.12-8.59,6-17.24,12-17.31,11.89-34.69,23.63-13,8.79-26.13,17.53t-26.21,17.4q-17.5,11.57-35.08,23c-5.87,3.84-11.71,7.67-17.57,11.47-38.12,24.8-76.35,49.41-114.46,74.15q-13.2,8.6-26.37,17.18-17.59,11.46-35.1,23-9.39,6.18-18.7,12.36c-4.06,2.69-8.12,5.38-12.16,8.12-3.17,2.08-6.32,4.19-9.45,6.3q-5.51,3.67-11,7.38Q1434.68,3684,1423,3692q-9.59,6.53-19.14,13.1l-4.32,3c-3.08,2.1-6.17,4.25-9.23,6.38q-16.43,11.4-32.69,23c-4.71,3.35-9.4,6.69-14.09,10.1-4.89,3.48-9.78,7-14.62,10.58q-3.67,2.67-7.36,5.36-6.75,4.92-13.47,9.91C1275,3797.86,1243.49,3824.33,1210.52,3848.92Zm69.85,536.6c32.8-26.19,66.83-49,66.76-96.37,0-13.18,16.29-12.33,27.13-13.49,18.92-2,38-3.12,56.78-5.73,24.76-3.43,38.85-13.57,24-41.07-77.54-143.46,68.31-343.3,274.47-328.73,75.76,5.35,145.34,32.39,211.76,67.18,63.84,33.47,126.67,68.87,189.25,104.65,16.91,9.66,34.72,20.87,41.15,51.15-73.52-39.56-141-76.09-208.66-112.19-67.52-36-137.13-66.93-214.39-74.3-87.16-8.29-161.22,19.75-224.56,80.89-80.06,77.3-90.92,259.5,67.35,334.2,15.06,7.12,34.15,7.44,47.18,25.28C1518.81,4392.93,1400.67,4382.66,1280.37,4385.52Zm1045,.52c-63-.15-126-.47-188.92-1.73-3.3-.07-6.38-9.37-9.58-14.36v0c-2.62-.31-5.27-.59-7.9-.91-2-.22-4-.46-6-.7-4.63-.52-9.25-1-13.88-1.59h-.08a63.55,63.55,0,0,1-7.61,9,.78.78,0,0,1-.24.24,20.82,20.82,0,0,1-1.58,1.43,1.14,1.14,0,0,1-.28.26c-.59.52-1.2,1-1.81,1.48a.35.35,0,0,1-.13.08c-.34.26-.67.5-1,.74,0,0,0,.05,0,.05-.35.26-.74.52-1.11.76a26.81,26.81,0,0,1-2.54,1.58,3.16,3.16,0,0,1-.56.33l-.29.17c-.63.35-1.3.67-2,1l-1.44.65c-.45.19-.91.37-1.36.54s-1.09.42-1.66.61a11.06,11.06,0,0,1-1.23.39c-.87.28-1.76.52-2.68.72-.71.17-1.43.32-2.17.45a49.87,49.87,0,0,1-6.19.76c-1.1.07-2.19.11-3.32.11-141.24,1-281.9-2.54-417-50.67-40.18-14.31-79.36-31.14-103-70.24-67.55-80.86-49.8-198.47,41.55-258,74.39-48.52,155.14-58.45,239.35-27.06,18.59,6.95,36.33,16.22,54.45,24.43l-1-.67q9.23,4.39,18.46,8.84,12.38,5.21,24.59,10.77c2.28,1,4.54,2.06,6.8,3.13,2.47,1.15,5,2.3,7.42,3.47q11.45,5.38,22.74,11,4.34,2.14,8.63,4.34c2.15,1.09,4.3,2.17,6.43,3.28,2.47,1.28,5,2.54,7.42,3.85q13.23,6.87,26.35,14c3.69,2,7.38,4,11.05,6,2.83,1.52,5.65,3.09,8.48,4.67q12.7,7,25.32,14.16l12.21,6.91,14.85,8.45q14.89,8.44,29.74,16.9,8,4.49,15.92,9,3.45,1.95,6.95,3.89c2.3,1.28,4.62,2.58,7,3.86q7.23,4,14.46,8,8.47,4.64,17,9.19l23.24,14.14c12.27-18.5,25.93-11.14,40.81-3.19,77.5,41.46,94.68,117.74,112.44,193.65C2345.45,4377.59,2339.59,4386.07,2325.34,4386Zm77.86-1.52c-58.77-17-31.47-85.64-57.62-126.47,66.23,41.46,132.17,80.71,203.21,113.9C2499.77,4379.4,2449.64,4397.92,2403.2,4384.52ZM2197.89,4083c-.13.11-.26.19-.37.3l.48.09c0-.11,0-.22,0-.33Z"/> <path class="cls-2" transform="translate(-290.22 -75.88)" d="m3945.2 656.94c-21.48-10-19-30.64-22.25-49-29.08-166.1-100.18-307.29-246.41-400.37-152.71-97.22-317.47-121.07-492.13-71-13.57 3.89-31.07 6.57-33.07 22.76-2.17 17.59 16.63 20.74 28.5 27.12 348.65 187.15 491.71 495.2 512.9 874.1 5.77 103.19-2 206-19.74 308-3.26 18.75-6.16 37.61-10.58 56.09-2.84 11.87-5 28-21.9 26.13-18.32-2.08-14.06-19.24-12.74-30.42 3.7-31.44 10.3-62.53 14.53-93.92 29.07-215.29 20.84-428-57.29-632.83-153.67-402.79-542.08-629.74-971.8-552.77-142.37 25.43-266.39 88.77-382.19 172.06-16.1 11.58-30.1 29.64-54 25.26 11.72-37.56 43.4-57.54 72.56-78.09 246-173.27 514.37-211 801.29-128.39 26.32 7.58 46.34 6.65 71.16-6.33 186.24-97.34 476.82-45.54 641.99 108.13 111.15 103.4 167.77 231.64 190.49 378.28 2.51 16.34-0.17 31.38-9.32 45.19z"/> <path class="cls-2" transform="translate(-290.22 -75.88)" d="m350.25 4170.6c-18.93-13.19-25.37-38.62-47.56-48.64-53.69-166.29 75.31-261.07 206.59-275.61 74.4-8.24 147.59 7.77 219.26 28.5q-1.5 12.86-3 25.7c-15.69-1.93-31.53-3-47-5.94-80.35-15.23-160.15-22.62-238.72 9.47-80.46 32.87-124.64 107.89-109 189.16 4.94 26.05 22.67 49.07 19.43 77.36z"/> <path class="cls-1" transform="translate(-290.22 -75.88)" d="m1094.9 3158.2c39.86 4.09 62.27 35.41 89.15 58.75 47.38 41.13 103.73 69.42 153.67 112.31-66.83-3.17-131.86 1.28-196.93-1.39-27.73-53.19-46.75-108.74-45.89-169.67z"/> <path class="cls-2" transform="translate(-290.22 -75.88)" d="m4137.8 1382.7c-22 4.79-30.9-12.24-40.47-25.91-61.89-88.5-147.19-149.15-238.84-202.42-20.35-11.83-41.67-22.84-47.18-49 107.53 28.28 188.39 97.27 262.89 174.71 28.04 29.13 57.17 59.3 63.6 102.62z"/> <path class="cls-2" transform="translate(-290.22 -75.88)" d="m1970.8 530.63c25.87 13.5 3.81 25.73-1.89 36.9-52.63 103.22-75.66 207.49-14.18 315.72-20.08 17-30.31 4-40.18-12.65-28.95-48.78-39.3-101.34-30.18-157 11.3-69.02 29.84-135.12 86.43-182.97z"/> <path class="cls-2" transform="translate(-290.22 -75.88)" d="m2003.7 875c-2.48-58-12.47-116.29 4.88-173.5 4.63-15.28 6.27-41.06 29.29-35.16 25.72 6.59 9.64 28.86 5.9 43.69-21 83.31-2.82 161.6 28.37 238.51-43.54-5.26-53.29-41.93-68.44-73.54z"/> <path class="cls-3" transform="translate(-290.22 -75.88)" d="M3507.38,2429.07c-72.58-233.4-210.63-420.49-421.2-550.16-31.67,78-70.48,151-135.51,207.58-64,55.62-135.66,91.39-222.08,91.46-84,0-121.92-28.8-149.11-109.54-7.49-22.21-6.82-47.34-23-66.57-.82.18-1.63.35-2.45.55s-1.59.41-2.39.63q-2.35.68-4.63,1.5t-4.45,1.75c-1.46.66-2.87,1.33-4.28,2-.69.37-1.39.73-2.06,1.1-2.76,1.52-5.41,3.2-8,5-1.28.89-2.54,1.8-3.8,2.73-.78.59-1.56,1.18-2.32,1.81-1.09.82-2.17,1.69-3.22,2.56-2.43,2-4.82,4.06-7.18,6.15q-2.22,1.95-4.39,3.95c-4.37,4-8.71,8-13.19,11.75-80.34,68.13-145.73,149.39-207.48,234.29-19.7,27.06-19.72,47.78-6.56,77.23q129,288.49,253.68,578.83c12.32,28.78,20.33,38.44,53.54,27.56,81.47-26.67,165-27.54,248.69-6.19,39.86,10.17,80.95,15.46,121,25.15,34.29,8.3,44.85-5.56,46.15-38.07,4.28-106.15,10-212.25,16.05-318.33.89-15.55-6.25-41.72,20.31-39.33,20.83,1.89,13.23,25.83,13.05,40.07-1.26,109.45-4.21,218.92-18.18,327.6-4.06,31.65,7.69,45,36.62,54.67,32.17,10.75,66.92,17.11,94.68,38.53,12.66,9.77,36.6,19.61,21.15,39.79-13,17-27.47-.85-39.85-9.86-41.49-30.21-88.31-43.92-140.14-48.81,1.57,24.24,20,32.3,28.69,46.72,8.08,13.4,33.11,26.2,12.25,42.83-16.09,12.86-28-8.42-37.46-19.57C2911.88,2980.66,2782.34,2962,2642.66,2981c-56.73,7.74-115,23.13-143,80.93-12.25,25.28-26.73,31.93-50.84,29.43-28.63,88.53-45.48,178.82-40.86,272.34v0c1.29.35,2.61.63,4,.87h0a92.65,92.65,0,0,0,11.43,1.28c1.49.09,3,.16,4.51.22l3,.11,6.11.17,2.95.11c2.84.09,5.67.24,8.4.48l2.09.2.17,0c.68.06,1.33.15,2,.24.22,0,.44,0,.68.08l1.73.26c.94.16,1.85.33,2.76.53.54.1,1.09.21,1.63.36s1.06.26,1.59.42a9,9,0,0,1,1.15.34,19,19,0,0,1,1.89.63c.5.18,1,.37,1.45.59s.94.39,1.39.61c0,0,0,0,.05,0l1.12.59a25.66,25.66,0,0,1,3.18,2,11.81,11.81,0,0,1,1.3,1.06,15.32,15.32,0,0,1,1.24,1.18c.3.3.6.63.89,1a15.86,15.86,0,0,1,1.08,1.37,20.49,20.49,0,0,1,1.39,2.17c.18.31.35.63.5,1a6.92,6.92,0,0,1,.46,1,9.73,9.73,0,0,1,.5,1.18c.13.3.24.61.35.93s.17.48.23.74a7.75,7.75,0,0,1,.24.78c.16.52.31,1.07.42,1.61a10.83,10.83,0,0,1,.26,1.24c.08.43.17.87.24,1.28.17,1.11.3,2.24.39,3.43s.13,2.41.13,3.71c0,6.3-1.05,13.86-3.33,23-1.17,4.71,8.84,12.2,13.62,18.43,31.56,41.06,71.42,71.46,118,93.88,96.68,46.52,199.13,74.32,304.38,91,143.94,22.81,285.61,15.23,416.95-54.67,123.2-65.57,178-183,210.86-309.35C3614,2980.2,3592.26,2702,3507.38,2429.07Zm-978,864.09c-26.63,5.75-50.05-.48-75.22-22.55,10.51-3.84,13.42-5.9,16.27-5.8,22.37.79,47.17-6.49,63.07,17C2534.91,3283.91,2531.63,3292.68,2529.4,3293.16Zm4.88-109.14c-23.17,9.14-44.15,6.9-66.94-17.62,29.08-9.79,50.17-12.72,69.31,2C2541.17,3171.94,2541.58,3181.13,2534.28,3184Z"/> <path class="cls-4" transform="translate(-290.22 -75.88)" d="m1699.2 3467.9c-23.81-0.72-35.12-14.49-44.78-35.54-73.28-159.64-148.28-318.49-222-478-95.6-207-190-414.5-286.16-621.18-15.71-33.75-14.18-47.09 26.91-56.95q445.92-107 890.46-219.67c39.88-10.07 50.13 11 62.27 38.78q84.53 193.17 169.91 386 102.9 233.68 205.67 467.42c14.08 32-16.06 99.81-49.2 112-15.17 5.59-23.19-5.67-33.7-12-70-42.25-124.69-102.23-183.18-157.85-27.42-26.06-55-52-83.89-76.45-45.7-38.71-71.82-28.57-82.59 29.69-3.2 17.25 6.81 42.07-18.52 48.9-21.62 5.84-34.08-13.48-47.55-26.25-25.28-24-48.27-50.47-82.28-63.22-48.66-18.23-80.74 4.84-72.64 54.81 3.08 19 7.39 33.27-16.75 40.32-12 3.52-16.8 18.2-13 27.86 27.19 69.74-30 147.56 25.14 216 47.7 59.26 103 106.63 170 141.45 18 9.36 35.69 19.24 59.34 32-75.59 23.44-142.83 49.95-207.66 82.28-15.84-7.13-29.58-2.57-45.24 3.79-42.85 17.47-80.98 42.89-120.56 65.81z"/> <path class="cls-5" transform="translate(-290.22 -75.88)" d="m2103 1336.5a111.89 111.89 0 0 0 22.93 12.86 114.5 114.5 0 0 1-22.93-12.86zm22.93 12.9a102.27 102.27 0 0 0 12 4.17 111.64 111.64 0 0 1-12.02-4.17zm476.07 457.87a46.2 46.2 0 0 0 0.5 9 49.51 49.51 0 0 1-0.5-9z"/> <path class="cls-5" transform="translate(-290.22 -75.88)" d="M3112.22,1202.54c-48.72-16-99,9-123.24,61.62-2.65,5.76-5.78,11.47-7.21,17.55-3.21,13.64-9.51,26.8-24.87,20.72-15.57-6.15-9-22.41-4.56-33.08,9-21.78,20.76-42.44,31.38-63.53v0c-9.49-26.8-31.14-46.18-42.07-73-17.85-43.85-48-80.16-86.37-108.81-43.81,7.17-70.09-22.13-97.2-48.07-19.26-18.41-36.29-39.22-54.32-59-45.48,19.87-93.83,10.88-141,14-13,11.55-26.89,6.29-39.77,1.06-54.34-22.07-103.82-51.56-142.41-96.89-6.06,19.92-20.42,34.21-33.52,49.35v0c1.89,25.78-11,26.19-28.67,16-23.76-13.71-41.2-33.76-56.19-56.6-25.91-39.47-40.81-84.43-66-137.86-45.2,186.2-60,365.95-95.82,541.82,28.93-27.91,61.16-46.81,102.56-30.43,34.75,13.77,52.43,41.64,50,78.34-2.49,38-31.32,53.48-64.11,59.58a115.37,115.37,0,0,1-34.49,1.34c-2.78-.32-5.56-.76-8.3-1.3s-5.47-1.19-8.19-2a102.27,102.27,0,0,1-12-4.17,111.89,111.89,0,0,1-22.93-12.86q-.83,7.17-1.68,14.4v0q9.22,23.23,18.4,46.48c48.74,115.61,122.63,207.27,243.54,253.32,76.3,29.06,156,35.55,236.81,32.68,25.24-15.37,54.88-9.4,82-16.83,23.87-6.54,29.67,10.19,28.13,30.41-3.09,39.94-51.46,85.4-93.7,88.24h0c-.72.42-1.39.83-2.07,1.26s-1.34.92-2,1.37c-.41.31-.8.61-1.17.91-.2.16-.39.31-.57.48s-.41.35-.63.55-.61.58-.89.86-.63.63-.93,1-.59.65-.85,1c-.39.48-.76,1-1.11,1.45s-.67,1-1,1.48-.57,1-.83,1.52-.48,1-.7,1.54-.39,1-.56,1.54-.35,1.13-.48,1.7c-.06.28-.13.56-.19.85s-.11.56-.16.82-.13.7-.17,1-.11.76-.13,1.13-.09,1-.11,1.57a49.51,49.51,0,0,0,.5,9c0,.42.09.81.15,1.22.18,1.09.35,2.17.55,3.26.17.93.34,1.87.52,2.8,0,.17.06.35.08.52.18.87.33,1.72.5,2.56.11.66.24,1.31.35,2s.28,1.54.39,2.3a56.49,56.49,0,0,1,.87,9.19c0,1,0,2.11,0,3.17s0,2.41.05,3.6c0,1.83.08,3.68.13,5.52q.19,5.73.45,11.49c.18,3.89.39,7.8.57,11.69.13,2.23.24,4.45.32,6.69s.2,4.45.26,6.66c0,1.2.09,2.39.11,3.57s.07,2.36.09,3.54c0,2,.06,4,.06,6,0,1.81,0,3.61,0,5.39,0,.91,0,1.8-.09,2.69,0,1.35-.08,2.68-.15,4s-.15,2.67-.24,4c-.06.89-.13,1.76-.21,2.65-.18,2-.39,4.08-.66,6.1a.16.16,0,0,1,0,.09c-.26,2.26-.6,4.51-1,6.73v.06c-.19,1.09-.39,2.18-.63,3.26,0,0,0,.11,0,.15-.22,1.07-.46,2.11-.72,3.15a.67.67,0,0,1,0,.22c-.19.8-.39,1.61-.61,2.39-.67,2.61-1.45,5.19-2.36,7.73-.31.85-.61,1.7-.94,2.54a2.81,2.81,0,0,1-.19.53c-.29.76-.59,1.49-.92,2.23s-.63,1.5-1,2.24-.74,1.65-1.16,2.45c-.8,1.65-1.65,3.26-2.58,4.87-.43.78-.87,1.54-1.35,2.3a.35.35,0,0,1-.06.09q-.72,1.17-1.5,2.34c-.46.7-.91,1.39-1.41,2.09-.7,1-1.41,2-2.17,2.93-.61.83-1.26,1.61-1.94,2.41a15.13,15.13,0,0,1-1,1.2c-.32.39-.67.8-1,1.19s-.93,1-1.41,1.56c-.67.72-1.37,1.46-2.11,2.18s-1.6,1.63-2.47,2.41-1.72,1.6-2.63,2.36c-1.35,1.2-2.74,2.35-4.19,3.46-.55.45-1.09.87-1.65,1.28-1.11.87-2.28,1.69-3.46,2.5-.74.54-1.5,1-2.26,1.54q-2.28,1.53-4.73,3a4.34,4.34,0,0,1-.46.28c-.67.41-1.34.8-2,1.19,16.16,19.23,15.49,44.36,23,66.57,27.19,80.74,65.09,109.58,149.11,109.54,86.42-.07,158.09-35.84,222.08-91.46,65-56.54,103.84-129.58,135.51-207.58-67.18-53.26-83.8-130.75-101.46-208.4-19-83.55,14.34-150.58,64.6-213.2-20.64-8.77-53-9.08-42.27-40.18,8.67-25.11,31.6-3.93,48.22-2.76,3.17.22,6.3.74,9.45,1,53.06,4.41,100.93-33.71,111.46-88.77C3186.46,1273,3157.87,1217.57,3112.22,1202.54Zm-824.28-120c-.39,4.35-.87,8.69-1.43,13v0c-.42,3.21-.89,6.43-1.46,9.6-3.82,22.33-10.86,43.7-24.65,63-21.05,29.49-54,26.43-70.57-6-16.66-32.64-5.84-112.29,19.4-140.16,12.59-13.9,28.49-20.65,46.8-14.22,23.87,8.38,30.37,26.74,32.21,47.41.13,1.46.22,3,.31,4.43,0,.11,0,.2,0,.29.09,1.54.17,3.1.22,4.64,0,0,0,.11,0,.18.06,1.6.1,3.23.13,4.84C2288.66,1073.88,2288.35,1078.22,2287.94,1082.54Zm65.92,177.19c-28.67-6.23-32.52-27.43-30.41-50.39,1.69-18.33,3.45-43.37,28.82-39.7,23.22,3.36,10,25.67,8.65,39.42C2359.33,1225.59,2363.91,1243.33,2353.86,1259.73Zm74.89,154.77c-17.64,13.3-35.84,12.25-51.74-2.39-13.51-12.42-20.05-28.51-13.2-47,1.3-3.5,6.88-5.43,13-10,19.52,26.85,43.33,26,68.91,9.73.46-.28,5.39,4,5.82,6.52C2455.07,1391.44,2442.93,1403.82,2428.75,1414.5Zm369.51-114c-4.91,42.27-39.07,63.92-87.22,55.23-66.68-12-76-28.52-65.84-116.07a88.06,88.06,0,0,1-25.36-.74,57,57,0,0,1-6.43-1.56c-.7-.19-1.37-.41-2-.65a51.1,51.1,0,0,1-7.54-3.24c-1.17-.63-2.32-1.28-3.43-2a47.6,47.6,0,0,1-4.58-3.3l0,0a44.53,44.53,0,0,1-4.17-3.84c-8.58-8.82-14.18-21-17.5-35.8q-.78-3.42-1.37-7c-.41-2.39-.78-4.85-1.09-7.37-6.43-52.27,18-112.81,50.48-124.19,27.19-9.53,54.62,12.23,61.47,49,9.86,53-11,97.76-38.49,140.59,27.37,3.5,49-17.68,77.21-15.75C2769.09,1227,2803.11,1258.71,2798.26,1300.52Z"/> <path class="cls-4" transform="translate(-290.22 -75.88)" d="M1607.54,3425.32c-32.51-4.35-57.3-24.82-84.49-40.35-74.26-42.44-148.38-85.13-223-126.93-66.48-37.25-113-105.6-198-113.8l6.43-13.42,96.62,18c-63.77-59.22-25.35-120-26.83-178.15-.72-28.39-11.51-50.2-29.71-72.45-24-29.41-44.07-63.67-47.26-102.91-3.86-47.31-26.35-72.41-75-71.63-24.33.39-37.28-7.64-47.32-29.67-84.08-184.53-169.45-368.48-253.31-553.11-6.27-13.83-24.52-32.7-5.64-46.37,15.19-11,33.79,2.13,47.88,12.08,87.18,61.55,186.08,101.92,278.57,153.86,34.85,19.57,50.73,45.62,65.88,80.67,52.13,120.57,110.62,238.38,164.15,358.38C1383,2938.25,1491.47,3176,1604.08,3411.88c2,4.16,2,9.23,3,13.87Z"/> <path class="cls-3" transform="translate(-290.22 -75.88)" d="m350.25 4170.6c3.24-28.29-14.49-51.31-19.5-77.36-15.63-81.27 28.55-156.29 109-189.16 78.57-32.09 158.37-24.7 238.72-9.47 15.49 2.93 31.33 4 47 5.94 81 29.16 165.51 43.13 250.11 55.16 35.32 5 49.41 15.44 44.58 53.82-6.77 53.83-1.21 107.28 22.68 158 37.56 79.64 100.58 118.83 187.09 125.63 16.11 1.27 38.3-12.58 48.58 12.94l13.47 12.39c-36.73 50-94 58.69-147.74 64.09-245.24 24.62-478.49-22.76-700.05-128.93-38.44-18.42-74.35-42.13-93.94-83.05z"/> <path class="cls-1" transform="translate(-290.22 -75.88)" d="M2567.8,1822.42c-1.81-9.32-5.24-18.33-6.82-27.67-12.17-71.44-13.95-75.69-82.6-81.39-115.18-9.51-209.4-59.16-283.12-145.91-41.09-48.37-82.79-99-75.56-170q-9.19-23.23-18.4-46.48l-16.81,17.48c-4.95,120.4,51.56,219.89,118.33,318.48-34.21,5.23-48.87-39.66-75.91-14.4-51.84,48.41-113,86.94-155.19,145.63-12.18,17-25.19,36.25-14.72,56.79,17.63,34.54,25.58,74.3,54.14,103.08,1.51.14,3,.26,4.57.36-1.53-.09-3.06-.21-4.57-.35,3.07,18.24,6.68,36.81-21.84,35.76q-.57,10.46-1.16,20.91c38.56-2.26,75.51-11.75,111.7-24.75-.38-.74-.78-1.47-1.17-2.18.4.71.79,1.44,1.18,2.18a73.14,73.14,0,0,1,8,2c.91.28,1.78.58,2.65.89.45.17.89.34,1.34.54s1,.37,1.41.56c.81.33,1.59.68,2.35,1s1.54.73,2.28,1.13,1.3.69,1.91,1.06,1.35.76,2,1.17,1.11.72,1.65,1.09c.7.45,1.39,1,2.07,1.45l.62.48c.85.63,1.68,1.3,2.48,2,1,.83,2,1.69,2.89,2.63.37.35.74.71,1.11,1.11.74.71,1.45,1.47,2.15,2.25l1,1.18c.5.61,1,1.19,1.48,1.8s1,1.24,1.43,1.85l.91,1.26c.61.84,1.2,1.71,1.78,2.58.68,1,1.35,2.09,2,3.15.41.69.83,1.39,1.22,2.09s.87,1.52,1.28,2.3c.69,1.28,1.39,2.6,2,3.93.46.91.91,1.84,1.35,2.78,1,2,1.86,4,2.73,6,.46,1,.87,2,1.31,3.06.86,2,1.69,4.13,2.52,6.21.13.26.23.54.34.83.35.91.72,1.82,1.09,2.75.13.33.26.68.39,1q.92,2.31,1.82,4.62c.46,1.13.92,2.28,1.35,3.39s.8,2,1.2,2.95.84,2,1.26,3c26,61.75,47.78,125.48,86.46,186.07,73.48-114.81,157.36-215.54,263.07-291.17C2576.4,1935.6,2579.92,1885.71,2567.8,1822.42Zm-474.87,176.8c.9,1.11,1.79,2.29,2.64,3.54Q2094.28,2000.9,2092.93,1999.22Z"/> <path class="cls-1" transform="translate(-290.22 -75.88)" d="m2015.7 1978.4c-1.53-0.09-3.06-0.21-4.57-0.35 1.51 0.13 3.04 0.25 4.57 0.35z"/> <path class="cls-3" transform="translate(-290.22 -75.88)" d="M1892.49,4014.64c95.45,40.14,182.41,96.32,273.32,144.91-31.83,65.95-52.64,135.46-66.75,207.13-9.64,13.52-21.29,21.26-39.35,21.38-141.23.95-281.9-2.53-417-50.67-40.17-14.31-79.37-31.15-103-70.23-.37-18.92.69-38-1.36-56.74-15.43-140.91,102.62-207.65,205.08-213.69,44.64-2.63,87.56,9.75,131.66,9.76,0,0-1.1-.73-1.09-.74Z"/> <path class="cls-5" transform="translate(-290.22 -75.88)" d="m2448.8 3091.3c-28.61 88.54-45.48 178.84-40.85 272.36-243.51-2.58-550.4-159.28-559.58-320.95 34.86 16.95 49.77 52.44 77.92 73.39 19 14.14 35.91 31.07 54.74 45.46 10.88 8.31 25.84 20.75 37.08 5.23 11.08-15.31-8.58-21-17.4-27.29-55.88-39.87-97.35-91.7-129.41-151.72 13.53-5.9 2.47-37.07 29.7-28.9 24.75 34 58.1 58.75 90.35 84.75 10.25 8.26 23.34 17.92 33.17 7.33 12.1-13-3.93-21.34-12.65-29.65-38.83-37-75.94-75.49-105.47-120.52-7.77-11.84-14-24.79-19.87-37.72-4.61-10.17-8.78-23.17 0-31.32 12.75-11.9 24 1.7 32.51 8.69 51.3 42 101.62 85.21 152.38 127.87 8.47 7.12 17.76 13.24 26.24 20.34 12 10.09 26 14.79 38.66 4.76 11.51-9.14 6.86-24.31 2.62-35.58-14.93-39.72-33-78.39-35-126 25 2.39 40.89 16.25 56 31.27 35.85 35.68 73.51 69.81 106.79 107.76 50 57.1 111.77 94.77 182.07 120.44z"/> <path class="cls-5" transform="translate(-290.22 -75.88)" d="m1988.1 2034.7c-136.19 42.57-276.54 68.63-414.48 104.26-67.45 17.42-135 34.56-202 53.58-12.54 3.56-20.7 5.58-30.27-10.35l252.86-120.32c-17.74-24.69-33.21-8.9-45.27-4.14-106.35 42-211.66 86.26-309.36 146.72-13.81 8.55-29.41 19.28-50.5 8.92 23.41-38.5 65.33-54.44 98.22-79.48 165.88-126.27 341.88-235 541.66-301.42 39.81-13.24 60.58-6.79 78.63 31.08 24.48 51.38 54.19 100.28 81.66 150.24q-0.56 10.46-1.15 20.91z"/> <path class="cls-5" transform="translate(-290.22 -75.88)" d="m1699.2 3467.9c39.58-23 77.71-48.34 120.53-65.74 15.66-6.36 29.4-10.92 45.24-3.79-182.25 130-376.92 241.57-556.86 375-33 24.49-64.59 51-97.55 75.56-10.08 7.52-20.46 28.72-34.51 13.22-17.29-19 8.26-26.77 18-35.35a1811.1 1811.1 0 0 1 255.64-188.85c11.68-7.16 27.16-10.49 32.15-27.69-65.81-40.66-138.87-68.08-218.49-107.39 35.89-12.67 55.09-0.39 73.93 8q75.8 33.82 150.49 70.08c14.9 7.21 27.76 14 43.82 2.74 55.61-38.93 111.69-77.25 167.61-115.79z"/> <path class="cls-3" transform="translate(-290.22 -75.88)" d="m2189 4173.7c12.28-18.49 25.95-11.12 40.82-3.17 77.5 41.44 94.67 117.72 112.44 193.65 3.15 13.44-2.71 21.91-17 21.87-63-0.15-126-0.47-188.92-1.73-3.29-0.06-6.39-9.36-9.58-14.34 19.72-65.76 48.51-128.64 62.24-196.28z"/> <path class="cls-5" transform="translate(-290.22 -75.88)" d="m1240.9 4250.2c-64.42 17.14-109.13-13.73-145.45-61.58-65.94-86.89-59.72-206.64 18.81-278-20.59 140.19-1.55 261.7 126.78 339.92z"/> <path class="cls-1" transform="translate(-290.22 -75.88)" d="M2380.62,835.2c-6.06,19.92-20.42,34.21-33.52,49.35-2-1-3.93-2-5.82-3.09-.93-.54-1.87-1.08-2.78-1.63-2.78-1.67-5.43-3.41-8-5.21-1.7-1.19-3.35-2.45-5-3.71-1.31-1-2.57-2.07-3.81-3.11-1.86-1.59-3.67-3.21-5.43-4.89-.58-.54-1.17-1.1-1.73-1.67-27.43-27.08-41.23-64.16-56-99.54-35.84-86.16-33.3-172.5,11.6-258C2262,629.84,2308.31,737,2380.62,835.2Z"/> <path class="cls-3" transform="translate(-290.22 -75.88)" d="m2253 1295.9c-2.49 38-31.32 53.48-64.11 59.58a115.37 115.37 0 0 1-34.49 1.34c-2.78-0.32-5.56-0.76-8.3-1.3s-5.47-1.19-8.19-2a102.27 102.27 0 0 1-12-4.17 111.89 111.89 0 0 1-22.93-12.86c-0.55-23.38-2.52-133.78 100-118.94 37.02 5.36 52.47 41.65 50.02 78.35z"/> <path class="cls-5" transform="translate(-290.22 -75.88)" d="m1875.1 4006.5c-44.1 0-87-12.39-131.66-9.76-102.46 6-220.51 72.78-205.08 213.69 2.05 18.74 1 37.82 1.36 56.74-67.56-80.87-49.81-198.49 41.54-258.07 74.39-48.52 155.14-58.44 239.34-27.05 18.62 6.96 36.36 16.24 54.5 24.45z"/> <path class="cls-5" transform="translate(-290.22 -75.88)" d="m1079.2 2845.3c22.81 24.94 6.5 51.11 0.72 75.62s-15.47 48.43-13.49 74c0.5 6.47 7.26 15.92 13.09 17.73 9.48 2.94 12-7.15 14.13-14.81 0.86-3 1.53-6.31 3.14-9 11.21-18.47 7.23-58.32 35.31-50.95 24.88 6.53 6.89 41.76 8.69 64.16 2.46 30.58-25.16 60.29-2.5 91.84 4.06 5.65 0.42 12.41-5.29 16.14-12.42 8.1-20.21-1.18-29-8-82.34-64.09-97.81-131.59-49.64-223.45 6.14-11.6 6.86-28.54 24.84-33.28z"/> <path class="cls-5" transform="translate(-290.22 -75.88)" d="M2197.51,4083.25c41.13,7.2,63.43,42.26,93.64,65,113.37,85.39,237.86,149.86,368.4,203.83,13,5.38,25.53,12.06,38.14,18.38.7.35.23,3,.35,5.47-20.66,10.23-39.76.29-57.9-6.92-159.47-63.38-308.92-143.19-431.81-266.15-6.11-6.12-9.92-11.64-10.36-19.86Z"/> <path class="cls-1" transform="translate(-290.22 -75.88)" d="M2710.17,1697c-3.09,39.94-51.46,85.4-93.7,88.24h0c-.39-.82-.76-1.65-1.13-2.47q-1.11-2.48-2.15-5c-.68-1.68-1.35-3.33-2-5-.5-1.37-1-2.71-1.48-4.08s-.93-2.72-1.36-4.09c-.35-1.06-.68-2.1-1-3.17l-.78-2.65c-.35-1.23-.68-2.47-1-3.69-.42-1.63-.83-3.26-1.2-4.89q-.91-3.93-1.63-7.94c-.32-1.72-.6-3.44-.89-5.17s-.5-3.46-.73-5.2-.42-3.47-.61-5.21-.33-3.47-.48-5.23-.24-3.5-.35-5.26-.17-3.52-.22-5.28c0-.87-.06-1.76-.06-2.65s0-1.76,0-2.65c-.09-7.36.15-14.76.67-22.24,25.24-15.37,54.88-9.4,82-16.83C2705.91,1660,2711.71,1676.77,2710.17,1697Z"/> <path class="cls-3" transform="translate(-290.22 -75.88)" d="m2189 4173.7c-13.77 67.64-42.56 130.52-62.2 196.28-9.3-1.09-18.6-2.16-27.84-3.25 14.17-71.7 35-141.21 66.81-207.16z"/> <path class="cls-6" transform="translate(-290.22 -75.88)" d="m1002.5 2933c-17.08-46 5.58-152.69 35-175.67 7.28-5.7 14.77-5.48 20.89 1.17 9.74 10.55 10.11 22.9 2.89 34.69-25.69 41.87-41.07 88.03-58.78 139.81z"/> <path class="cls-5" transform="translate(-290.22 -75.88)" d="m682.88 2006.4c72.38-2 107.57 58.86 159.89 90.79-61.1-17.09-111.4-52.42-159.89-90.79z"/> <path class="cls-1" transform="translate(-290.22 -75.88)" d="m2015.7 1978.4c-1.53-0.09-3.06-0.21-4.57-0.35 1.51 0.13 3.04 0.25 4.57 0.35z"/> <path class="cls-6" transform="translate(-290.22 -75.88)" d="m963.86 2849.8c-15.55-37.85-11.31-64.48 3.83-89.79 3.42-5.72 13.33-6.76 15.91-0.77 13.4 31.19-2.8 56.74-19.74 90.56z"/> <path class="cls-5" transform="translate(-290.22 -75.88)" d="m2103 1336.5q-0.83 7.17-1.68 14.4l-16.81 17.48c-2.32-13.94-0.3-31-7.73-41.24-26.04-35.73 25.65-14.02 26.22 9.36z"/> <path class="cls-6" transform="translate(-290.22 -75.88)" d="m1901 2958.9c-27.23-8.17-16.17 23-29.7 28.9-20.47-19.44-22-43-14.84-70.87 25.12 4.11 32.89 25.22 44.54 41.97z"/> <path class="cls-2" transform="translate(-290.22 -75.88)" d="m2159.4 4045.4c-15.8-4-34.63-4.53-32.72-32.76 18.4 5 25.08 19.52 33.49 32z"/> <path class="cls-2" transform="translate(-290.22 -75.88)" d="M2183.45,4073.6c-15-3.48-21.65-14-24-28.22l.77-.75c17,3.85,29.41,13.9,38.4,28.52Z"/> <path class="cls-5" transform="translate(-290.22 -75.88)" d="m1892.5 4014.6-18.51-8.89q9.24 4.46 18.51 8.89z"/> <path class="cls-6" transform="translate(-290.22 -75.88)" d="m1023.5 3924.4c6.24 2.12 12.85 7.17 9 12.7-5.6 8-13.56 3-19.85-2.05z"/> <path class="cls-3" transform="translate(-290.22 -75.88)" d="m1278.5 4306c4.53-9.87 11.73-14.09 19.66-4.94 6 7 1 13.36-6.23 17.32q-6.67-6.14-13.43-12.38z"/> <path class="cls-4" transform="translate(-290.22 -75.88)" d="m2079 2918.8-2.76-1.63 3.08-4.27c0.9 1 2.53 2.11 2.48 3.09s-1.8 1.88-2.8 2.81z"/> <path class="cls-4" transform="translate(-290.22 -75.88)" d="m1607.1 3425.8 2.84 1.85-2.38-2.27z"/> <path class="cls-2" transform="translate(-290.22 -75.88)" d="M2183.45,4073.6l15.12-.45c.75,2.35,1.88,4.67,2,7,.07.94-2,2-3.1,3.05l.45-.24Z"/> <path class="cls-5" transform="translate(-290.22 -75.88)" d="M1241,4250.48c-.8,1.07-1.6,2.15-2.39,3.23a2.89,2.89,0,0,0,.54.15c.6-1.2,1.17-2.42,1.73-3.65A2.86,2.86,0,0,0,1241,4250.48Z"/> <path class="cls-2" transform="translate(-290.22 -75.88)" d="m3099.4 1065.3c-1.87 9.43-8.44 14-17 12-12.11-2.91-24.4-6.61-35.42-12.29-137.2-70.87-222.33-186.46-278.64-326.42-5.1-12.67-14.19-29.4 4-37.24 19.27-8.3 24 11.44 28.69 23.49 55.38 142.7 144.58 255.21 284.58 323.48 13.73 6.72 14.41 10.34 13.79 16.98z"/> <path class="cls-2" transform="translate(-290.22 -75.88)" d="m2855.3 1024c-43.81 7.17-70.09-22.13-97.2-48.07-19.26-18.41-36.29-39.22-54.32-59-15.23-30.87-31.36-61.32-45.35-92.75-8.3-18.63-14.44-38.48-19.24-58.34-3.5-14.5-11-36 7.45-41.59 21.19-6.49 23.3 17.36 26.32 31.15 17.48 79.95 63.36 143.37 114.72 204.2 20.34 24.14 54.02 33.67 67.62 64.4z"/> <path class="cls-2" transform="translate(-290.22 -75.88)" d="m3070.7 867.59c-0.45-14.18-0.11-24.5 12.08-26.37 9.33-1.43 14.23 6.56 16.78 14 22.15 64.85 52.29 125.25 97.15 177.66 5.2 6.06 10.65 13.36 4.44 20.87-7.08 8.57-17.52 7.92-25.7 2.06-8.84-6.31-17.55-13.83-23.74-22.64-36.58-52-66.68-107.26-81.01-165.58z"/> <path class="cls-2" transform="translate(-290.22 -75.88)" d="m2454.2 3270.6c10.51-3.85 13.44-5.91 16.29-5.81 22.37 0.8 47.17-6.47 63.06 17 1.4 2.08-1.89 10.84-4.12 11.32-26.62 5.8-50.05-0.44-75.23-22.51z"/> <path class="cls-2" transform="translate(-290.22 -75.88)" d="m2467.3 3166.4c29.09-9.78 50.17-12.73 69.3 2 4.53 3.5 4.94 12.69-2.37 15.58-23.16 9.18-44.15 6.94-66.93-17.58z"/> <path class="cls-2" transform="translate(-290.22 -75.88)" d="m2645.1 1239.5a0.69 0.69 0 0 0 0.06 0.13 89.28 89.28 0 0 1-25.36-0.7 57 57 0 0 1-6.43-1.56c-0.68-0.19-1.37-0.41-2-0.65a51.1 51.1 0 0 1-7.54-3.24c-1.17-0.63-2.32-1.3-3.43-2a47.6 47.6 0 0 1-4.58-3.3 44.53 44.53 0 0 1-4.17-3.84c-8.58-8.82-14.18-21-17.5-35.8q-0.78-3.42-1.37-7c-0.41-2.39-0.78-4.85-1.09-7.37-6.43-52.27 18-112.81 50.48-124.19 27.19-9.53 54.62 12.23 61.47 49 9.81 53.01-11.02 97.69-38.54 140.52z"/> <path class="cls-3" transform="translate(-290.22 -75.88)" d="m2798.3 1300.5c-4.91 42.27-39.07 63.92-87.22 55.23-66.68-12-76-28.52-65.84-116.07a0.69 0.69 0 0 1-0.06-0.13c27.37 3.5 49-17.68 77.21-15.75 46.74 3.2 80.76 34.91 75.91 76.72z"/> <path class="cls-2" transform="translate(-290.22 -75.88)" d="m2288.9 1069.5c-0.26 4.38-0.56 8.73-0.95 13.07s-0.87 8.69-1.43 13c-0.44 3.21-0.92 6.43-1.46 9.6-3.82 22.33-10.86 43.7-24.65 63-21.05 29.49-54 26.43-70.57-6-16.66-32.64-5.84-112.29 19.4-140.16 12.59-13.9 28.49-20.65 46.8-14.22 23.87 8.38 30.37 26.74 32.21 47.41 0.11 1.48 0.22 3 0.31 4.43v0.29c0.09 1.54 0.15 3.08 0.22 4.64v0.18c0.06 1.54 0.1 3.15 0.12 4.76z"/> <path class="cls-2" transform="translate(-290.22 -75.88)" d="m2428.8 1414.5c-17.64 13.3-35.84 12.25-51.74-2.39-13.51-12.42-20.05-28.51-13.2-47 1.3-3.5 6.88-5.43 13-10 19.52 26.85 43.33 26 68.91 9.73 0.46-0.28 5.39 4 5.82 6.52 3.53 20.08-8.61 32.46-22.79 43.14z"/> <path class="cls-2" transform="translate(-290.22 -75.88)" d="m2360.9 1209.1c-1.59 16.53 3 34.27-7.06 50.67-28.67-6.23-32.52-27.43-30.41-50.39 1.69-18.33 3.45-43.37 28.82-39.7 23.22 3.36 9.97 25.67 8.65 39.42z"/> <path class="cls-3" transform="translate(-290.22 -75.88)" d="m4186.3 1724.9q11.3-76.44 22-153.13c4.71 55.59-2.09 110.73-22 153.13z"/> <path class="cls-2" transform="translate(-290.22 -75.88)" d="m3849.6 2363.6a17.5 17.5 0 0 1-15-8.45c-7.18-11.89-14.45-23.63-21.48-35-52-84-101.19-163.34-107.29-295.32-2.1-45.53-1.91-89.89 23.21-132.1 14.59-24.52 35.36-56.21 66.71-83.87 37.77-33.33 83-53.68 134.53-60.51 59.46-7.87 122.83-1.09 169.09 3.86 18 1.93 40.12 4.3 46.82 3.47a17.5 17.5 0 0 1 18.24 29.69c-10 7.53-24.51 6.39-68.79 1.65-44.5-4.77-105.45-11.3-160.77-4-96.05 12.73-144.38 74.87-175.75 127.58-20.19 33.92-20.24 71-18.33 112.58 5.68 122.9 50.36 195 102.08 278.51 7.09 11.43 14.41 23.26 21.69 35.32a17.5 17.5 0 0 1-15 26.54z"/> <path class="cls-2" transform="translate(-290.22 -75.88)" d="m2083.4 1450.8h-27.33s-1.45-156.47 13.19-232.31 31.17-15.84 31.17-15.84-35.1 204.97-17.03 248.15z"/> <path class="cls-2" transform="translate(-290.22 -75.88)" d="m3595.5 3353.3a17.5 17.5 0 0 1-5.71-34c125.37-43.3 203.26-107.78 231.53-191.64 22.28-66.11 9.22-133.16-5.67-177.76-16.47-49.34-38.78-83.09-39-83.43a17.5 17.5 0 0 1 29.08-19.46c1 1.49 24.75 37.25 42.76 90.73 10.62 31.54 17 62.8 19.12 92.91 2.62 38.07-1.77 74.39-13 107.93-31.84 94.8-117.08 166.73-253.36 213.8a17.51 17.51 0 0 1-5.75 0.92z"/> <path class="cls-7" transform="translate(-290.22 -75.88)" d="m725.5 3900.5s-355.25-173-394.75 192.69"/> </svg>