<?xml version='1.0' encoding='utf-8'?>
<svg xmlns="http://www.w3.org/2000/svg" viewBox="0 0 543.13 587.44"> <defs> <style>.cls-1{fill:#293272;}.cls-2{fill:#b65618;}.cls-3{fill:#4153a1;}.cls-4{fill:#ee771e;}</style> </defs> <g data-name="Ebene 2"> <path class="cls-1" transform="translate(-26.07 -127.22)" d="M264.44,222.88l6.87-6.85,6.88-2.11,1.92-4.21-1.33-5.11-.32-1.21,1.65-5.27-1.74,2.35-2.66-.77-5.22-.26-4.4,4.48-5.22-.27-8.53-4.74L243,194.17l-5.23,4.74-3.14,4.2v0h-1.25l1.93-5.27,1.92-4.48L234.75,190l-5.5,2.11L223,193.43l6-8,.54-8.69-4-.37,2.92-3.84-5-5.53-4.4,3.16-9.63-5.53-1.37-3.43-3.73,5-12.49-.78-1.1-2.11-18.15-4.74-8.79,1.84-12.1-2.37,1.37-7.9,2.2-4.47-2.47-.27-6.6,8.81-5.5,12.64-1.1,14,1.65-.26,6.6-8.81.11-1.44,10.34.5.82,8.69,7.42,4.22-.27,5.79,6,7.39-9,.92.36.35-7,8.46,1.07,1-2.22,3.24-.5.21,1,1.12-.85,1.09.68,5.14,2.48-.92,1.1-1.43,6.66-1.53-1.3,1.5,1.86,2.88.75,7.16,5.55.23.05.11-5.88,7L170,240.4l-7.23-4.62-6.6,8.81-5.91,13.2-2.89-1.73-5,6.72L135.5,255l.82-5-21.44,2.9-11-.53L91.51,257.9l-6.6,8.81,1.85,2.53-2.4,3-2.7,8.17L84.08,287l10.18-.53,1,.79L89,295.94l.09,2.22-1.46,2.93,1.58,0,.59,14.25-6,8-.63,7.52H74.74l-6.6,8.81L67,346.77l-.83,5,13.48,2.9,3.16,6.85-.66,4.07-3,2.66-7.43,6.58-6.6,8.81,2.31,1.63-9.18,2.2-1.15,2-.42.1v0l-10.81-5.28-3.38,5-.34.1,0,0v0l-5.86,1.78L29.65,400l.82,5,3.58,1,.55,4.48,2.75.26v4.48L42.29,421l.55,11.85-8.3,12.06-1.87-.85-6.6,8.81.55,6.58,6.05-.26,3,3.95v5.53l-1.93,3.69-.55,6.32h5.23l2.19,5.79,2.57,1h0l-2.83,3.77,1.37,3.69L48.89,494,50,501.54l-2.19,1.28-6.6,8.81-3.57,13.16,9.9,13.43,9.07,3.95-.2,5.3-2,2.6L50,557.45l-1.1,7.9,8,1.58,2.47,7.37,8,11.85L72,588.52l3.48-4.74h3.39l3.3,6.85,1.92-2.37,10.73,2.37,3.85-4.48,4.94,3.16,3.3,3.69,30.25,6.85-2.05,3.52L127.8,610l-6.6,8.81L115.7,632l-1.1,11.58-7.15,15.8,2.75,5.27-2.2,3.69-4.4,16.85,6.6,10,9.9-2.9,11,2.9,8.25-5.79,3.3,2.63h11l2.48-1.84,5.2-7,.85.71,6.87,5.54,7.7-2.11h7.15l15.67,9.48,9.34-.26,2.84-3.79,1.84,3.52,6,1.58,4.67,4-.27,6.06,6-2.9-.55,9.75,9.9-5,6.6-8.81,1.62-3.57h0l2.47-2.64,6.05,2.9,5.78-1-.28,2.1,4.68,7.64,5.49-.26,5.23-4.22,1.37,3.69,9.35-2.11,11.34-10.41,6.53,1.72,2.13-2.89,16,.52,4.5-6L334,687l5.22,3.42,3.85-3.16,5.5-.53,3,3.69-1.1,2.9,4.94,5.79,6.33,2.9,6.6-8.81,2.2-3.69,2.2-6.85-2.48-6.58-5.77-1.84,4.67-9-2.75-1L358,651.59l5.38-3.81,10.72-2.64,7.7-7.37,6.6-8.81-.05-2,4.72,3.16,3.3-1.58,6.6-8.81,3-5,.55-8.17-4.12-8.16-3.85-2.9-5.22-6.58-2.93,4h-3.4l-.82-6.06-3-3.68-6-2.37L364,565.49l-5.23,1.58-2.47-4.21-5.22-3.69-.28-5.53-3-1.84-2.48-7.9-6.49-5.45,4-5.35,3.3-6.58-2.2-1.58-.55-3.69-5-1L332.19,515,175.45,534.55l67.09-292.68,27.13-11.09-1.38-2.37h-3.85v-3.3m26.79,473.37,3.73.12M139.18,268.49l-.34-.28h0l-.24-.26.55-.16-.23-.26.54-.16-.23-.26.55-.16-.23-.26.41-.12Zm.87-2.05-.15-.18.26-.07Zm.23-.53-.07-.07.11,0ZM38.4,446.07l-.5.39L36,445.59Z" data-name="shadow BRD (blue)"/> <path class="cls-2" transform="translate(-26.07 -127.22)" d="M392.88,435.43l-.25-5.11,2.45-1.36,2.2,7.9,18.7.53,4.4-1.05,3.84,5.26,4.13,1.58,1.65.09.27,2.77,3.39.54-.68,1.17,1.19,2,1.1,3.38,2.29,1.45,1.24-1.1,4.39-8.81-1-.92.1-.9,4-3.86,1.47-1.84,7.51-.35,2-1a23.05,23.05,0,0,1,1.88-1.75l2.52,0,3.53,2.41,3.2.09,1.19-2,2.16-4.36,7.88-.77L481.8,425l2.59-.68,1.33-1.5,1.74-1.49,1,1.58,3.8-.09,3.93-7.9,8.31,0,5.64-1.32,2.65-2.76s2.57-2.55,2.75-2.59,5-.22,5-.22l3.71-1.36,2.94-3.82,6.28-.09,1.64-1.32,4.07-8.29,3.54,1.8-.27,5.31,3.71.17.09,1.28-1.47,3.11s4.68,2.86,4.81,2.86,4.95-1.1,4.95-1.1l3.56-7.13,4.46-9,1.56-4,2.15-4.87,1.06-6.49,1.88-4-.14-5.36-2.43-4.08-.14-7-.41-1.45-2.93-1.14-3.85-1.49-4.86-2.5.24-2.37,1.78-3.51-1.15-4.7L551.89,334l-2.3-5.18-.29-.81,3.91-7.79,1-5.66,3.08-6.15a16.17,16.17,0,0,0-2-1.18l-1.47-3.34.83-1.76-.71-1.93,1.21-2.19-.83-3.12-3.48-.22-2.06-1.36-1.33-3.29-.32-3.2-.42-1.31,3-5.94,1-2.32-1.06-2.84.65-1.29.14-2.89L546.94,268l-3.53-3.25-2.06-1.84-2.75-3.21-3.85-2.59-3.67-3.25-3.83-1.1,1.27-2.54.32-1,2.29-2,2.47-2,4.4-8.81,1.38-4.12.27-2.63-.87-1.36,0-.39,1.67-3.35,1.24-2.94L540,216.89l-.64-3.46-.19-3.69-2.06-4-1.92-3.73-.65-3.21v-3.77l-1.23-7.55-.41-.9,1.28-2.44L533,182.83l-1.33.93-2.48.87-3-.48-4.22-.83-.07-.07,2.18-.08,2.57-.57,4.4-8.81-.55-4.56-2.62-2.81-2.56-3-3.53-3.68L518,158l-3.12-2.59-2.2-3.73-2.43-.09-1.5,3h0l-1.42-2.81-1.33,1.1-3.48,1.75-3.94.35-2.11,2.46-2.57-3.34-3-2.63-2.2-3.86-6.14-3.86-3.67-1.5-.27-3.59.73-2.64-2.84-1.67-2.38-3.16-3.12,1.5L469,135.21l-1.71,1.8,2.26-4.43.46-2-9.17-.35-7.6.35v-2l-1.84-1.32-.82,1.41L448,133.1l-2.84,4.13L442.29,143h0l-5.24,1.64-2.56,5-1.74,2.81-1.65-2.37-7.61,2.63-10.35-.61-3.76,6.58L405,162.6l-5.5,1.05-2.17,4.45-.21-.15L395,169.36l-3.36-.42,1.16-2.3-2.29-3.07h-4.86l-4.31,1.14-5.77,2.37L373.19,172l-4.5,3.53-4.4,8.81,1.65,8.17,4.67,4.47,1.28.62-.45.06L368.92,203l-.19.11h0l-2.5,1.38-3,1.58-4.4,8.81-.27,6.59,3.84-1.58,1.38,6.84,2.2,1.32,6.87,3.69,6.05,6.05,2.2.79,1.59-3.24,4.18,3.51,3.58,5.79,7.7-.79,2.5,1.2v.33h-.21v.12l-5.32,3.22L389,247.13h-7.42l-4.67,4.74-7.7-1.31-4.4,8.81v7.37l7.7,11.06,1.92,7.64-1.92,4.21,4.83,4.42-1.81,3.48,2.48,5.27.32,1.85-1.7,3.15.38.74v.06l-14.12,2.51-2.47,3.95-4.4,8.81,2.72,5.41-3.27,6.44L358,341.8l1.46,3.07-2.56.23-5.78-1.84-3.57,6.58-6.6,3.42-6.32,2.64-4.4,8.81-.83,7.11,3.85,6.05,4.14,2-2.49,4.6v1.71h-.27L333,389.71l-1.66-.1-4.4,8.81,2.63,2.65-3.73,7.35L323.6,419l3.3.79,4.12-3.16v11.32l6.88-1.84,1.92,3.68,3.57-.52,3,7.11,8.8,4.74,2.47,6.32,3.85,3.16,3-3.16,5.5.26,4.4-8.81-.33-.27,6.65,1.18,2.48,5.79,5.22-1.31Zm52.91-291.08.06.21-.27.2.06.22-.13.09.12-.74Z" data-name="shdow DDR (orange)"/> <polygon class="cls-3" points="134.17 555.99 130.32 555.99 123.17 555.99 119.87 553.35 111.62 559.15 100.63 556.25 90.73 559.15 84.13 549.14 88.53 532.28 90.73 528.6 87.98 523.33 95.13 507.53 96.23 495.94 101.73 482.77 112.17 473.29 117.67 463.81 87.43 456.97 84.13 453.28 79.18 450.12 75.33 454.6 64.61 452.23 62.69 454.6 59.39 447.75 53.61 447.75 52.51 452.49 47.84 450.12 39.87 438.27 37.39 430.89 29.42 429.31 30.52 421.42 34.92 414.04 36.84 413.51 37.12 406.14 28.04 402.19 18.15 388.76 21.72 375.59 28.04 371.91 31.34 371.38 29.42 357.95 22.27 356.89 20.89 353.21 26.12 350.31 21.17 348.47 18.97 342.67 13.75 342.67 14.3 336.35 16.22 332.67 16.22 327.14 13.2 323.19 7.15 323.45 6.6 316.87 11.82 319.24 22.82 310.81 14.85 309.23 23.37 296.85 22.82 285 17.87 279.21 17.87 274.73 15.12 274.47 14.57 269.99 11 268.94 10.17 263.93 20.62 260.77 19.8 257.09 33.27 263.67 32.17 260.25 44.26 257.35 50.31 257.88 51.96 252.08 45.64 247.6 53.06 241.02 62.13 233.12 63.37 225.48 60.21 218.64 46.74 215.74 47.56 210.74 48.66 203.63 62.96 203.63 64.33 187.3 70.38 179.93 69.56 159.91 74.78 152.54 77.81 152.8 74.78 150.43 64.61 150.96 62.18 144.37 64.89 136.21 65.98 136.21 67.36 133.31 65.43 130.68 77.81 125.15 88.8 125.67 110.25 122.78 109.42 127.78 116.57 135.95 109.15 138.05 118.22 145.43 124 136.74 118.22 135.95 121.25 128.84 134.44 136.74 129.22 125.15 136.64 108.56 145.72 114.35 166.06 111.72 178.98 129.36 191.63 137.53 190.81 132.26 180.63 129.1 178.71 121.99 172.11 111.98 166.61 108.56 152.31 108.82 147.64 97.5 155.89 99.08 154.24 90.39 147.91 90.12 147.09 82.22 153.69 76.96 139.94 80.12 135.54 75.11 139.94 73.27 137.19 70.64 150.11 69.32 155.61 64.31 146.81 53.52 147.09 47.72 139.67 43.51 138.84 34.82 122.62 34.03 121.8 44.56 120.15 44.83 121.25 30.87 126.75 18.23 129.22 18.49 127.02 22.97 125.64 30.87 137.74 33.24 146.54 31.4 164.69 36.14 165.79 38.24 178.43 39.03 182.01 34.03 183.38 37.45 193 42.98 197.4 39.82 202.35 45.35 197.68 49.04 203.45 49.57 202.9 58.26 195.48 63.79 193.55 66.95 203.18 64.84 208.68 62.73 211.15 66.16 209.22 70.64 207.3 75.9 209.78 75.9 211.7 71.69 216.92 66.95 226.27 71.69 234.79 76.43 240.02 76.69 244.42 72.22 249.64 72.48 252.39 73.27 254.04 70.9 252.39 76.17 254.04 82.49 252.12 86.7 245.24 88.81 238.37 95.65 238.37 101.18 242.22 101.18 243.59 103.55 242.77 107.24 236.72 111.98 238.37 120.14 243.04 124.62 246.34 126.2 245.52 133.31 239.47 134.1 239.47 138.05 234.24 140.95 231.22 142.53 230.94 149.11 234.79 147.53 236.17 154.38 238.37 155.7 245.24 159.38 251.29 165.44 253.49 166.23 254.86 162.81 259.26 166.49 262.84 172.29 270.54 171.5 274.38 173.34 274.66 175.97 271.36 175.97 271.36 180.19 263.11 185.19 257.06 183.61 249.64 183.61 244.97 188.35 237.27 187.03 237.27 194.41 244.97 205.47 246.89 213.11 244.97 217.32 250.74 222.59 247.99 225.22 250.47 230.49 251.01 233.65 249.09 235.49 250.19 237.6 250.19 240.5 246.62 241.81 245.79 244.97 230.94 247.6 228.47 251.56 232.04 258.67 227.92 263.41 230.4 269.46 233.42 275.78 230.67 281.05 224.9 281.58 219.12 279.73 215.55 286.32 208.95 289.74 202.63 292.38 201.8 299.49 205.65 305.54 211.7 308.44 211.43 312.39 207.3 312.13 207.3 315.55 208.68 318.18 211.43 322.13 202.63 322.66 203.45 326.35 199.33 326.08 204.28 331.09 198.23 336.09 196.03 346.62 199.33 347.41 203.45 344.25 203.45 355.58 210.32 353.74 212.25 357.42 215.82 356.89 218.85 364 227.65 368.75 230.12 375.07 233.97 378.23 236.99 375.07 242.49 375.33 234.79 369.01 238.92 365.06 245.79 366.11 253.22 367.43 255.69 373.22 260.91 371.91 260.36 360.58 267.51 356.63 269.71 364.53 288.41 365.06 292.81 364 296.65 369.27 300.78 370.85 300.5 377.17 304.9 379.54 302.7 385.07 312.33 392.97 317.27 394.03 317.82 397.71 320.02 399.29 316.73 405.88 312.6 411.14 319.2 416.68 321.67 424.57 324.7 426.42 324.97 431.95 330.2 435.64 332.67 439.85 337.89 438.27 351.09 453.54 357.14 455.91 360.16 459.6 360.99 465.66 365.11 465.66 367.31 461.71 372.54 468.29 376.38 471.19 380.51 479.35 379.96 487.51 376.94 492.52 373.64 494.1 368.14 490.41 362.09 490.41 362.36 501.74 354.67 509.11 343.94 511.74 336.52 517.01 330.75 522.54 340.37 537.02 343.12 538.08 338.44 547.03 344.22 548.88 346.69 555.46 344.49 562.31 342.29 565.99 335.97 563.1 331.02 557.3 332.12 554.41 329.1 550.72 323.6 551.25 319.75 554.41 314.52 550.98 306.83 549.93 305.18 547.29 303.8 548.61 305.73 553.88 304.35 556.25 288.13 555.72 286.21 558.62 278.23 556.51 275.48 562.57 267.51 562.31 268.34 567.31 258.99 569.42 257.61 565.73 252.39 569.94 246.89 570.21 242.22 562.57 242.49 560.46 236.72 561.52 230.67 558.62 228.2 561.25 223.25 560.73 223.52 557.04 220.77 558.09 223.52 565.73 219.95 573.63 210.05 578.63 210.6 568.89 204.55 571.79 204.83 565.73 200.15 561.78 194.1 560.2 191.63 555.46 189.43 560.46 180.08 560.73 164.41 551.25 157.26 551.25 149.56 553.35 142.69 547.82 138.02 543.87 132.52 542.55 126.47 548.35 129.22 551.77 134.44 551.77 136.64 554.14" data-name="BRD (blue)"/> <path class="cls-4" transform="translate(-26.07 -127.22)" d="M443.19,444.72l-1-.93.32-2.85,1.23-2.94,2.25-3.25,4.72-4.52,1.47-1.84,7.51-.35,2-1a23.1,23.1,0,0,1,1.88-1.76l2.52.05,3.52,2.41,3.21.09,1.19-2,.69-4.22,9.35-.92.59-3.33,1.47-1.06,2.66-.7,1.33-1.49,1.74-1.49,1,1.58,3.8-.09,1.33-3,2.52-4.87,8.39-.05,5.63-1.31,2.66-2.77s2.57-2.54,2.75-2.59,5-.22,5-.22l3.71-1.36,2.94-3.82,6.27-.08,1.65-1.32-2.15-1.84-4.9-4.74,2.29-3.21,3.8,1.71,3.9-.79,4.67,2.37-.27,5.31,3.71.18.09,1.27L549.18,396s4.68,2.85,4.81,2.85,5-1.09,5-1.09l.6-3.56,3-3.73,1.56-3.95,2.15-4.87,1.06-6.5,1.88-4-.14-5.35-2.43-4.08-.14-7-.41-1.45-2.93-1.14-3.85-1.49-4.86-2.51.32-3.16,1.7-2.72-1.15-4.69-3.43-3.51-2.3-5.18-.91-2.55,2.38-2.33,2.15-3.73,1.06-6,1.37-3.34s1.65-2.32,1.65-2.45a15.11,15.11,0,0,0-2-1.19L553.81,304l.83-1.76L553.49,299l1.65-1-.83-3.11-3.48-.22-2.06-1.36-1.33-3.29-.32-3.21-1-3.16.6-1.45,3-2.63,1-2.33-1.15-3.07.74-1.05.14-2.9-3.53-2.24-3.53-3.25L541.35,263l-2.75-3.2-3.85-2.59-3.67-3.25-4.26-1.23,1.7-2.41,1-3-1-1.45-.28-3.33,1.51-.66,3.12-1,2.66-2.37,2.47-2,1.38-4.12.27-2.64-.87-1.36-.14-2.46,1.79-1.27,1.24-2.94L540,216.92l-.64-3.47-.19-3.69-2.06-3.95-1.92-3.73-.65-3.2v-3.77l-1.23-7.55-.55-1.23,1.42-2.11L533,182.86l-1.33.92-2.48.88-3-.48-4.22-.84-3.48-2.85-2.84-3.16,2.93-.53,2.8-1.18,2.33-1.06,4.77-.17,2.57-.57-.55-4.57-2.62-2.81-2.56-3-3.53-3.69L518,158l-3.12-2.59-2.2-3.73-2.43-.08-.41,1,1.15,2.16,1.33,1.18-1,.44-2.61-1.76-1.42-2.81-1.33,1.1-3.48,1.76-3.94.35-2.11,2.46-2.57-3.34-3-2.63-2.2-3.87-6.14-3.86-3.67-1.49-.27-3.6.73-2.63-2.84-1.67-2.38-3.16L471,132.69,469,135.24l-1.93,2-2.2-1-3.2-.44L460.24,133l-1,2.19-3.2,1-3.4.44-3,3.34L447,141.82l.92,3.42h-2.47l.64-4.21,1.92-2,.28-3.77,3.75.61,3.4-1.93,1.19-1.75,5.77.26,7.15.17.46-2-9.17-.36-7.6.36v-2l-1.84-1.32-.82,1.4L448,133.13l-2.84,4.13-2.2,5.53-5.87,1.84-2.56,5-1.74,2.81-1.65-2.37-7.61,2.64-10.35-.62-3.76,6.59-4.4,3.95-5.5,1.05-.92,2.9,3.85,1.58.74,4-6-4.13-2.11,1.4-3.48-.43,1.28-2.29-2.29-3.07h-4.86l-4.31,1.14-5.77,2.37-.82,3.69-6.05,4.74,1.65,8.16,4.67,4.48,3.3,1.58-.82,7.11-6.05.79v3.95l-5.23,2.9-3,1.58-.28,6.58,3.85-1.58,1.38,6.85,2.2,1.32,6.87,3.68,6.05,6.06,2.2.79,1.37-3.42,4.4,3.68,3.58,5.8,7.69-.79,3.85,1.84.28,2.63h-3.3v4.22l-8.25,5L389,247.16h-7.42l-4.67,4.74-7.7-1.32V258l7.7,11.06,1.92,7.64-1.92,4.21,5.77,5.27L380,288.77l2.47,5.27.55,3.16L381.06,299l1.1,2.11V304l-3.57,1.32-.83,3.16-14.85,2.63-2.47,4,3.57,7.11L359.89,327l2.47,6.06,3,6.32-2.75,5.27-5.77.53-5.78-1.85-3.57,6.59-6.6,3.42-6.32,2.63-.83,7.11,3.85,6.06,6.05,2.9-.28,3.95-4.12-.27v3.43l1.37,2.63,2.75,3.95-8.79.53.82,3.68-4.12-.26,4.95,5-6.05,5L328,410.17l3.3.79,4.12-3.16v11.33l6.87-1.85,1.93,3.69,3.57-.53,3,7.11,8.79,4.74,2.48,6.32,3.85,3.16,3-3.16,5.5.27-7.7-6.32,4.13-3.95,6.87,1.05,7.42,1.32,2.48,5.79,5.22-1.32-.55-11.32,7.15-3.95,2.2,7.9,18.7.53,4.39-1.06,3.85,5.27,4.13,1.58,1.65.09.27,2.76,3.81.62-1.1,1.1,1.19,2,1.1,3.38" data-name="DDR (orange)"/> </g> </svg>