<?xml version='1.0' encoding='utf-8'?>
<svg xmlns="http://www.w3.org/2000/svg" width="295.24mm" height="295.24mm" version="1.1" viewBox="0 0 295.24 295.24"> <g transform="translate(-15.144 1.8462)"> <rect x="15.144" y="-1.8462" width="295.24" height="295.24" fill="#9ed7f1" style="paint-order:fill markers stroke"/> <ellipse cx="93.268" cy="260.94" rx="64.904" ry="7.2115" fill="#7fcaec" style="paint-order:fill markers stroke"/> <rect x="61.702" y="33.043" width="226.41" height="167.39" rx="5.3399" ry="5.6045" fill="#42474c" style="paint-order:fill markers stroke"/> <rect x="66.801" y="38.037" width="216.21" height="152.3" rx="5.0993" ry="5.0993" fill="#4a7718" style="paint-order:fill markers stroke"/> <path d="m116.47 247.51-0.36058 3.3353s-4.6875 2.7945-10.367 0.8113c-0.18029-1.4423-0.63101-3.4255-0.63101-3.4255z" fill="#000" style="paint-order:fill markers stroke"/> <path d="m144.82 139.94s2.8046-5.6093 4.5894-7.394c1.7848-1.7848 3.3146-5.8642 2.8046-9.6887-0.50994-3.8245 2.3194-1.8029 3.0596-0.7649 1.3058 1.8312 0.25496 6.1192 0.25496 6.1192s16.292-2.7454 18.587-1.7256-0.47635 3.2399-8.432 3.7653c1.2748 2.2947-0.7649 3.0596-0.7649 3.0596s0.53822 1.2594 0.0283 2.2792c-0.50993 1.0199-1.5143 1.5453-1.5143 1.5453s0.7649 1.2748-0.25496 2.5497c-1.0199 1.2748-7.649 2.0397-7.649 2.0397l-3.5695 5.8642z" fill="#ffdc72" style="paint-order:fill markers stroke"/> <path d="m113.97 126.17s11.728 8.2864 20.397 19.25c6.5017-3.8245 10.964-7.7765 10.964-7.7765s2.8046 5.8642 9.1788 7.649c-4.5894 20.142-20.869 23.856-20.869 23.856-3.8158 1.1447-19.649-10.196-19.161-11.363 0.39366-0.94083-5.0993-23.712-0.50993-31.616z" fill="#2d9d91" style="paint-order:fill markers stroke"/> <path d="m69.231 247.51 0.36058 3.3353s4.6875 2.7945 10.367 0.8113c0.18029-1.4423 0.63101-3.4255 0.63101-3.4255z" fill="#000" style="paint-order:fill markers stroke"/> <path d="m61.659 190.99s0.72116 33.894 6.4904 56.971c6.6035 3.3727 13.236 1.2711 13.236 1.2711s8.7595-20.742 12.005-38.411c2.8846 19.111 11.538 38.942 11.538 38.942s8.6538 1.0817 12.26-1.4423c3.2452-20.553 3.2452-56.611 3.2452-56.611z" fill="#42474c" style="paint-order:fill markers stroke"/> <path d="m71.136 123.24s-2.8041 1.422-9.6551 5.3883c-3.4949 29.686-3.1886 56.451-2.2872 65.826 15.865 11.538 31.852 8.0746 31.852 8.0746s1.2929-4.7003 2.3747-6.5032c1.6226 4.8678 3.7551 7.0441 3.7551 7.0441s19.471-2.1635 24.7-8.6539c1.7901-23.86-7.425-67.933-7.425-67.933s-1.4748-1.3348-7.6382-3.6898c-6.1689-2.3571-13.421-3.351-35.676 0.44687z" fill="#2d9d91" style="paint-order:fill markers stroke"/> <path d="m73.94 119.8-2.8046 3.442 12.238 20.652 8.6689-6.3742 6.6291 6.1192s8.1589-13.641 8.5414-20.78c-1.2748-1.1474-3.0596-2.5497-3.0596-2.5497z" fill="#258278" style="paint-order:fill markers stroke"/> <path d="m81.061 93.7c5.7087-3.5417 11.986-3.2382 16.749 0.33666 4.4101 3.3099 5.7494 12.472 6.3446 26.271-3.1506 8.0966-4.3308 9.2749-12.111 17.21-9.5221-7.129-12.818-12.979-18.103-17.72-0.0013-12.38 2.2536-23.079 7.1202-26.098z" fill="#ffdc72" style="paint-order:fill markers stroke"/> <path d="m88.218 101.19c-2.9967 0.39682-4.3989-2.2909-7.5215-0.89238-1.0206 0.45707-1.2391 1.1117-1.7848 1.6573 2.9815 0.44791 7.7309 2.3858 9.3063-0.7649z" fill="#42474c" style="paint-order:fill markers stroke"/> <path d="m92.362 101.19c2.5656 0.39682 3.7662-2.2909 6.4397-0.89238 0.87378 0.45707 1.0609 1.1117 1.5281 1.6573-2.5527 0.44791-6.619 2.3858-7.9677-0.7649z" fill="#42474c" style="paint-order:fill markers stroke"/> <path d="m92.425 102.59s1.3386 5.7368 1.5298 7.4578c0.19122 1.721-0.70116 2.2947-2.0397 2.4859-1.3386 0.19122-2.8684-0.12749-2.8684-0.12749s0.50993 0.70116 2.8046 0.70116c2.2947 0 2.7409-1.1474 2.8046-2.6134 0.06374-1.4661-1.3386-5.2906-2.231-7.904z" fill="#eea320" style="paint-order:fill markers stroke"/> <path d="m79.805 104.63s1.2111-0.19122 2.8684-0.57367 3.3783-0.95613 4.6531 0.3187c-2.4859-0.0637-6.0555 0.7649-7.5215 0.25497z" fill="#eea320" style="paint-order:fill markers stroke"/> <path d="m93.828 104.05s0.44619-0.7649 1.721-0.57368c1.2748 0.19123 3.952 0.50993 3.952 0.50993 0.04642-0.053-3.2592 0.37383-5.673 0.0637z" fill="#eea320" style="paint-order:fill markers stroke"/> <path d="m91.214 113.3s-2.4222-1.4023-5.673-0.50993c-3.2508 0.89238-6.5654 2.6134-7.5215 2.0397-0.95612-0.57367-1.5935-1.2111-1.5935-1.2111s-0.25497 3.442 1.7848 5.928c2.0397 2.4859 4.9719 2.6134 6.9478 1.976 1.976-0.63742 5.2268-2.0397 7.0116-1.8485 4.1432 2.0397 6.1829 2.9959 9.3063 2.1035 5.2906-1.0199 5.673-5.928 5.673-5.928s-2.2947 2.1035-3.1871 1.211c-0.89239-0.89238-6.6929-6.4379-12.748-3.7608z" fill="#42474c" style="paint-order:fill markers stroke"/> <path d="m75.853 107.18s-2.8046-3.8245-4.5894-1.2748 0.63742 8.2864 3.5695 5.9917c0.89238-1.6573 1.0199-4.7169 1.0199-4.7169z" fill="#ffdc72" style="paint-order:fill markers stroke"/> <path d="m102.01 107.05s2.8046-3.8245 4.5894-1.2748-0.63742 8.2864-3.5695 5.9917c-0.89238-1.6573-1.0199-4.7169-1.0199-4.7169z" fill="#ffdc72" style="paint-order:fill markers stroke"/> <path d="m77.892 99.273c-0.43173-4.1358-2.4673 0.3001-2.9321 0.7649-0.44531 0.44531-1.3984 0.12353-1.7848 0.50994-1.0651 1.0651 1.0376 2.1495 0.25497 2.9321-0.25319 0.2532-1.6123 0.72733-1.2748 1.4023 0.31775 0.63551 1.4682 0.95824 2.0397 1.5298 0.51053 0.51053 0.20918 1.8665 0.7649 2.4222 0.19337 0.19337 1.3605-0.0428 1.5298-0.12748 1.77-0.88502-1.2039-3.258-0.12748-4.3344 0.30241-0.30241 0.9535-0.1886 1.2748-0.50993 0.07243-0.0724 0.50304-4.2586 0.25497-4.5894z" fill="#42474c" style="paint-order:fill markers stroke"/> <path d="m101.6 99.273c-0.93285 1.4685 0.0981 3.0008 0.7649 4.3344 0.39305 0.78611-1.2502 2.8293-0.25497 3.8245 1.7588 1.7588 1.1097-1.3646 1.5298-1.7848 0.43957-0.43957 1.2266-0.41339 1.5298-1.0199 0.37963-0.75926-0.79761-1.4677-1.0199-1.9122-0.32561-0.65123 0.97208-1.1951 0.38246-1.7848-0.43859-0.43859-1.1504 0.12448-1.5298-0.25497-0.74407-0.74408 0.88225-1.9735-1.4023-1.4023z" fill="#42474c" style="paint-order:fill markers stroke"/> <path d="m91.533 137.9s0 39.775 1.7848 58.132c0.50993-20.142-0.50993-55.583-1.7848-58.132z" fill="#258278" style="paint-order:fill markers stroke"/> <path d="m58.515 178.82s2.5497 3.952 3.952 3.952 2.8046 0.12748 4.5894 1.4023c1.7848 1.2748 0.7649 2.9321 0.7649 2.9321s1.4023 0.7649 1.7848 2.2947-0.38245 2.6772-1.5298 2.6772c-0.89238 1.9122-2.0397 2.1672-3.1871 2.1672-0.50993 1.7848-1.9122 1.7848-3.0596 1.6573-1.7848 1.7848-2.9321 1.0199-3.952 0.50994-1.0199-0.50994-7.649-7.394-9.4338-12.238 4.7169-1.1474 10.071-5.3543 10.071-5.3543z" fill="#ffdc72" style="paint-order:fill markers stroke"/> <path d="m61.702 128.47s-27.791 24.987-29.576 32.891c-1.7848 7.904 17.549 27.598 17.549 27.598s7.5306-4.2032 10.335-9.5575c-3.8245-7.7493-6.212-12.432-6.212-12.432s4.8444-3.8245 8.1589-10.454c3.3146-6.6291-0.25497-28.046-0.25497-28.046z" fill="#2d9d91" style="paint-order:fill markers stroke"/> <path d="m68.714 249.83s4.8444 3.1871 11.983 0.7649c0.89238 5.2268 1.0199 8.4139 1.0199 8.4139s-3.8245 1.2748-8.0314 0.63741c-0.25497-0.63741-3.3146 0.50994-6.2467 1.0199s-11.474 1.1474-15.298-1.2748c0.63742-6.5016 5.0993-6.5016 8.5414-5.9917 3.442 0.50993 7.0116-1.6573 8.0315-3.5695z" fill="#42474c" style="paint-order:fill markers stroke"/> <path d="m117.07 249.83s-4.8444 3.1871-11.983 0.7649c-0.89238 5.2268-1.0199 8.4139-1.0199 8.4139s3.8245 1.2748 8.0314 0.63741c0.25497-0.63741 3.3146 0.50994 6.2467 1.0199s11.474 1.1474 15.298-1.2748c-0.63741-6.5016-5.0993-6.5016-8.5414-5.9917s-7.0116-1.6573-8.0314-3.5695z" fill="#42474c" style="paint-order:fill markers stroke"/> <g fill="#fff" stroke="none" stroke-width="4.4687" aria-label="E= mc2"> <path d="m175.89 84.866q0.88443-0.72151 1.7223-1.7921 0.83788-1.0706 1.4896-2.2576 0.65169-1.187 1.0474-2.4205 0.39566-1.2335 0.39566-2.3042 0-0.86116-0.41894-1.443-0.39566-0.60514-1.4663-0.60514-0.90771 0-2.0016 0.41894t-2.2111 1.1637q-1.1172 0.72151-2.1878 1.7456-1.0474 1.0008-1.862 2.1878-0.81461 1.187-1.3266 2.4904-0.48877 1.3034-0.48877 2.63 0 1.1405 0.2793 1.9783 0.27929 0.81461 0.81461 1.4663 0.53531 0.62841 1.2801 1.1637 0.76806 0.53531 1.7456 1.1172-2.9326 1.2335-5.3997 3.049-2.4438 1.7921-4.2127 3.8868t-2.7697 4.3291q-0.97753 2.2111-0.97753 4.2592 0 0.72151 0.34912 1.2801 0.34912 0.53531 1.0939 0.53531 0.97753 0 2.1878-0.53531 1.2103-0.53532 2.5136-1.3965 1.3034-0.86116 2.6068-1.9318 1.3266-1.0706 2.4671-2.1412 1.1637-1.0939 2.0714-2.0714 0.90771-0.97753 1.443-1.6525 1.3965 1.1172 2.4206 2.0016 1.0241 0.86116 1.9085 1.5827-0.39567 0.53531-1.3266 1.4896-0.9077 0.95425-2.1878 2.0482-1.2568 1.0939-2.7697 2.2344-1.4896 1.1172-3.049 2.0249-1.5361 0.90771-3.049 1.4896-1.5128 0.58186-2.7697 0.58186-1.0939 0-2.1878-0.37239-1.0706-0.37239-2.0482-1.0008-0.97753-0.60514-1.8154-1.4198-0.81461-0.79133-1.4198-1.6525-0.62841-0.86116-1.0008-1.7223-0.37239-0.86116-0.39567-1.6059v-0.55859q0-2.4438 0.86116-4.6084 0.86116-2.1645 2.3507-3.9799 1.5128-1.8387 3.5145-3.305 2.0249-1.4896 4.3291-2.5835-0.41895-0.41894-0.83789-0.90771-0.39566-0.48876-0.72151-1.0939-0.30257-0.62841-0.48876-1.3965-0.1862-0.76806-0.1862-1.7223 0-1.6292 0.58186-3.1886 0.58187-1.5594 1.5594-2.9326t2.2809-2.5136q1.3266-1.1405 2.7929-1.9551 1.4663-0.83788 3.0024-1.3034 1.5361-0.46549 2.9791-0.46549 2.3973 0 3.3515 0.48876 0.79133 0.41894 1.699 1.2103 0.93098 0.79133 1.7223 1.7456 0.79134 0.93098 1.3266 1.9085 0.53531 0.95426 0.53531 1.7223 0 1.3266-0.44221 2.7697-0.44222 1.443-1.1637 2.8162-0.72151 1.3499-1.6525 2.5602-0.93098 1.187-1.8852 2.0016z" fill="#fff"/> <path d="m199.13 101.55q-0.1862 0.53532-0.39567 1.0939-0.18619 0.55859-0.37239 1.0706-0.1862 0.48877-0.37239 0.90771-0.16292 0.41894-0.2793 0.69823-0.32584 0-1.3965 0.0233-1.0474 0-2.4438 0t-2.9559 0.0233q-1.5361 0.0233-2.886 0.0233t-2.2809 0.0233q-0.93098 0-1.0939 0 0.11637-0.25602 0.32584-0.67496 0.1862-0.41894 0.39567-0.86116 0.20947-0.46549 0.37239-0.86115 0.1862-0.41895 0.2793-0.65169 0.16292 0 0.79133-0.0233 0.62841-0.0465 1.5361-0.0931 0.93098-0.0698 2.0482-0.13965 1.1172-0.0698 2.2576-0.13965 1.1637-0.0931 2.2576-0.16292 1.1172-0.0698 2.0016-0.11637 0.90771-0.0698 1.4896-0.0931 0.60514-0.0465 0.72151-0.0465zm1.9551-6.1445q-0.1862 0.53531-0.39567 1.0939-0.1862 0.53531-0.37239 1.0474-0.1862 0.51204-0.37239 0.93098-0.16293 0.41894-0.2793 0.67496-0.34912 0-1.3965 0.02327-1.0474 0-2.4438 0.02327-1.3965 0-2.9559 0.02327-1.5361 0-2.886 0.02327-1.3499 0-2.2809 0.02327-0.93098 0-1.0939 0 0.11637-0.25602 0.30257-0.67496 0.20947-0.41894 0.41894-0.86116 0.20947-0.46549 0.37239-0.86116 0.1862-0.41894 0.2793-0.65169 0.16292 0 0.79133-0.02327 0.62841-0.04655 1.5361-0.0931 0.93098-0.06982 2.0482-0.13965 1.1172-0.06982 2.2576-0.13965 1.1637-0.0931 2.2576-0.16292 1.1172-0.06982 2.0016-0.11637 0.9077-0.06982 1.4896-0.0931 0.60513-0.04655 0.72151-0.04655z" fill="#fff"/> <path d="m215.11 96.27q-0.2793 0.72151-0.55859 1.4896-0.2793 0.76806-0.53532 1.5594 1.4663-1.7456 2.4206-2.7929 0.97753-1.0474 1.6059-1.6292 0.65169-0.58186 1.0706-0.81461 0.41894-0.23275 0.76806-0.34912 0.20947 0 0.69824 0.23274 0.51204 0.23274 1.0706 0.58186 0.58187 0.32584 1.0939 0.69824 0.51203 0.34912 0.72151 0.58186 0.18619 0.1862 0.0465 0.53531-0.27929 0.74478-0.55858 1.5128-0.25602 0.74478-0.51204 1.5361 1.5594-1.7921 2.6067-2.8628 1.0474-1.0939 1.699-1.6758 0.67496-0.58186 1.0474-0.76806 0.3724-0.1862 0.58187-0.1862 0.30257 0 0.9077 0.30257 0.60514 0.30257 1.2103 0.74478 0.62841 0.44222 1.0706 0.90771 0.46549 0.46549 0.46549 0.81461 0 0.06982-0.0233 0.1862-0.0233 0.0931-0.0698 0.25602-0.1862 0.58186-0.48877 1.3732-0.27929 0.79133-0.60513 1.6525-0.32585 0.83788-0.65169 1.699-0.32584 0.83788-0.58186 1.5827-0.25602 0.74478-0.41894 1.3034-0.16293 0.55859-0.16293 0.81461 0 0.13964 0.13965 0.13964 0.25602 0 0.76806-0.30256 0.51204-0.30257 1.1637-0.79134 0.67496-0.48876 1.3965-1.0706 0.72151-0.58186 1.3732-1.1404 0.67496-0.58186 1.2103-1.0474 0.53531-0.46549 0.81461-0.69823 0.20947 0.20947 0.48876 0.53531 0.30257 0.32584 0.55859 0.60514-0.51204 0.51204-1.2801 1.2568-0.76806 0.72151-1.6758 1.4896-0.88444 0.76806-1.862 1.5361-0.95425 0.76806-1.862 1.3732-0.9077 0.60514-1.699 0.97753-0.79133 0.37239-1.3499 0.37239-0.34912 0-0.88443-0.25601-0.53531-0.23275-1.0241-0.60514-0.48876-0.34912-0.83788-0.79134-0.34912-0.44221-0.34912-0.86115 0.20947-0.95426 0.55859-2.1645 0.34912-1.2103 0.76806-2.4671 0.41894-1.2801 0.86116-2.5136 0.46549-1.2335 0.88443-2.2809-0.46549 0.55859-1.2336 1.3499-0.76806 0.79133-1.7456 2.0947-0.97753 1.2801-2.0947 3.1886-1.1172 1.9085-2.2344 4.6549-0.13965 0.46549-0.67496 0.46549-0.27929 0-0.69824-0.11637-0.39566-0.0931-0.86115-0.32585-0.44222-0.20947-0.93098-0.53531-0.46549-0.32584-0.88443-0.79133 0-0.16293 0.16292-0.97753 0.18619-0.83789 0.51204-2.118 0.34911-1.2801 0.8146-2.8628t1.0474-3.2584q-0.55859 0.60514-1.3965 1.5594-0.83789 0.93098-1.7921 2.2809-0.95426 1.3266-1.9551 3.0955-1.0008 1.7689-1.8852 4.0032-0.13964 0.48876-0.65168 0.48876-0.39567 0-0.88443-0.23274-0.51204-0.20947-1.0241-0.58186-0.53532-0.34912-1.0474-0.79134-0.53531-0.44221-0.95425-0.88443 0-0.13965 0.13965-0.79133 0.11637-0.65169 0.34911-1.6292 0.23275-1.0008 0.58187-2.2576 0.32584-1.2801 0.76806-2.6766 0.44221-1.3965 0.97753-2.8395 0.53531-1.4663 1.1404-2.8162 0.97753 0.46549 2.1645 1.1405 1.2103 0.67496 2.2111 1.5827z" fill="#fff"/> <path d="m237.83 109.23q-0.41894 0-0.95426-0.27929-0.53531-0.25602-1.0939-0.72151-0.55859-0.44222-1.0706-1.0474-0.53531-0.62841-0.88443-1.3034-0.13965-0.25602-0.1862-0.58186-0.0465-0.32585-0.0465-0.83788 0-1.3266 0.41894-2.6533 0.39566-1.3499 1.1172-2.5602 0.72151-1.2103 1.7456-2.2576 1.0008-1.0706 2.1878-1.8387t2.5369-1.2103q1.3499-0.44222 2.7464-0.44222 0.20947 0 0.55859 0.23274 0.37239 0.20947 0.79133 0.58186t0.83788 0.83788q0.44222 0.46549 0.79134 0.95426 0.34912 0.46549 0.55859 0.93098 0.23274 0.44222 0.23274 0.79133-0.11637 0.44222-0.72151 0.97753-0.60514 0.51204-1.443 0.97753-0.81461 0.44221-1.7223 0.74478-0.90771 0.30257-1.5827 0.30257-0.39567 0-0.39567-0.23274 0-0.25602 0.34912-0.74479 0.34912-0.51204 0.76806-1.0939 0.44222-0.60514 0.79133-1.187 0.34912-0.60514 0.34912-1.0241 0-0.20947-0.11637-0.34912-0.0931-0.13965-0.27929-0.13965-0.51204 0-1.0706 0.46549-0.55859 0.46549-1.1172 1.2336t-1.0706 1.7689q-0.51204 0.97753-0.9077 2.0249-0.37239 1.0474-0.60514 2.0947-0.23274 1.0474-0.23274 1.9085 0 0.51204 0.30256 0.72151 0.30257 0.18619 0.93098 0.18619 1.5594 0 3.0024-0.51204 1.4663-0.53531 2.7929-1.3499 1.3499-0.83788 2.5602-1.862 1.2103-1.0241 2.2809-2.0482 0.25602 0.30257 0.62841 0.60514 0.37239 0.2793 0.55859 0.48877-1.443 1.5128-3.0722 2.886-1.6059 1.3499-3.3981 2.374-1.7921 1.0008-3.7705 1.5827-1.9551 0.60514-4.0963 0.60514z" fill="#fff"/> <path d="m269.08 72.505q0.0746 0.11932 0.0895 0.41762 0.0298 0.2983 0.0298 0.53694 0 1.4169-0.31322 2.7444-0.31321 1.3274-1.044 2.625-0.73084 1.2827-1.924 2.5654-1.1932 1.2827-2.9383 2.6101-1.7451 1.3125-4.1016 2.7145-2.3417 1.3871-5.3992 2.9084 1.1037-0.14915 2.282-0.38779t2.2969-0.4922q1.1336-0.26847 2.1478-0.53694 1.0291-0.28339 1.8196-0.4922 0.80541-0.22373 1.3274-0.35796 0.52202-0.13424 0.65626-0.13424 0.0597 0 0.0597 0.05966 0 0.07457-0.14915 0.32813-0.13424 0.25356-0.37288 0.62643-0.23864 0.35796-0.53694 0.7905t-0.61152 0.87999q-0.31321 0.43254-0.62643 0.83524-0.2983 0.41762-0.52203 0.73084-0.53694 0.02983-1.3274 0.04475-0.77558 0.01491-1.7003 0.02983-0.92474 0.02983-1.939 0.04475-0.99931 0.01492-1.9837 0.02983-0.96948 0.02983-1.8793 0.04474-0.8949 0.02983-1.6108 0.04475-0.13423-0.14915-0.2983-0.41762-0.17898-0.25356-0.34304-0.56677-0.16407-0.2983-0.31322-0.61152-0.14915-0.32813-0.20881-0.5966 3.2962-1.5064 5.802-3.1023 2.5206-1.6108 4.3701-3.2217 1.8644-1.6257 3.1172-3.2217 1.2529-1.6108 2.0135-3.1322t1.0739-2.9234q0.32813-1.4169 0.32813-2.64 0-0.11932-0.0298-0.26847-0.0149-0.16406-0.0746-0.2983t-0.16407-0.22373q-0.0895-0.08949-0.23864-0.08949-0.47728 0-1.1186 0.2983-0.64134 0.28339-1.3573 0.7905-0.71592 0.4922-1.4766 1.1634-0.76067 0.65626-1.4915 1.3871-0.71593 0.73084-1.3573 1.4915-0.62644 0.74575-1.1037 1.4318-0.46237 0.68609-0.73084 1.2678-0.26847 0.58169-0.25355 0.96948 0 0.11932 0 0.17898 0.0149 0.05966 0.0895 0.05966 0.14915 0 0.58169-0.34305 0.43253-0.35796 0.98439-0.90982 0.56677-0.55186 1.1634-1.238 0.59661-0.70101 1.059-1.3871 0.1939 0.17898 0.4922 0.46237t0.58169 0.5966q0.2983 0.2983 0.55185 0.56677 0.25356 0.25356 0.35797 0.35796-0.46237 0.62643-1.238 1.238-0.77559 0.5966-1.6556 1.059-0.86507 0.46237-1.7301 0.74575-0.86508 0.28339-1.4915 0.28339-0.14915 0-0.38779-0.14915-0.22373-0.16406-0.4922-0.40271-0.25355-0.25356-0.50711-0.53694-0.25355-0.2983-0.46237-0.56677-0.20881-0.26847-0.34304-0.47728-0.11932-0.20881-0.11932-0.2983 0-1.1485 0.49219-2.2969 0.4922-1.1634 1.3274-2.2223 0.83525-1.0739 1.939-1.9986 1.1186-0.93965 2.3566-1.6108 1.2529-0.68609 2.5505-1.0739 1.2976-0.40271 2.5057-0.40271 0.2983 0.02983 0.64134 0.26847 0.34305 0.22373 0.70101 0.58169 0.37288 0.34305 0.71592 0.76067 0.35797 0.41762 0.65627 0.82033t0.50711 0.73084 0.2983 0.50711z"/> </g> </g> </svg>